<svg width="132" height="45" viewBox="0 0 132 45" fill="none" xmlns="http://www.w3.org/2000/svg">
<rect x="0.546875" y="0.986328" width="130.156" height="42.6562" rx="6.01562" fill="white"/>
<rect x="0.546875" y="0.986328" width="130.156" height="42.6562" rx="6.01562" stroke="#0B051D" stroke-width="1.09375"/>
<path d="M27.0205 23.1492C27.0338 22.1431 27.3076 21.1565 27.8163 20.2814C28.325 19.4063 29.0522 18.6711 29.9302 18.1441C29.3725 17.3664 28.6366 16.7264 27.7812 16.2748C26.9258 15.8233 25.9743 15.5728 25.0023 15.5431C22.9289 15.3306 20.9188 16.7544 19.8622 16.7544C18.7852 16.7544 17.1585 15.5642 15.4067 15.5994C14.2737 15.6351 13.1694 15.9568 12.2015 16.5331C11.2337 17.1094 10.4352 17.9206 9.88393 18.8877C7.49604 22.9241 9.27719 28.8562 11.5646 32.1189C12.7091 33.7166 14.0466 35.5012 15.7968 35.4379C17.5094 35.3685 18.1491 34.3717 20.2164 34.3717C22.2645 34.3717 22.8646 35.4379 24.6503 35.3977C26.488 35.3685 27.6458 33.7929 28.7502 32.1801C29.5725 31.0417 30.2052 29.7836 30.625 28.4522C29.5573 28.0114 28.6462 27.2734 28.0052 26.3304C27.3642 25.3874 27.0218 24.281 27.0205 23.1492Z" fill="#0B051D"/>
<path d="M23.6453 13.3973C24.6473 12.2229 25.141 10.7134 25.0214 9.18945C23.4906 9.34643 22.0765 10.0607 21.061 11.19C20.5644 11.7417 20.1841 12.3836 19.9418 13.0788C19.6995 13.7741 19.6 14.5092 19.6488 15.242C20.4145 15.2497 21.172 15.0877 21.8643 14.7682C22.5565 14.4486 23.1655 13.9799 23.6453 13.3973Z" fill="#0B051D"/>
<path d="M40.2402 10.3766H42.504C44.4603 10.3766 45.412 11.5398 45.412 13.6498C45.412 15.7599 44.4507 16.9375 42.504 16.9375H40.2402V10.3766ZM41.3313 11.2946V16.0195H42.3839C43.6816 16.0195 44.2921 15.236 44.2921 13.6643C44.2921 12.0829 43.6768 11.2946 42.3839 11.2946H41.3313ZM48.8631 11.7705C50.1897 11.7705 51.1173 12.6309 51.1173 14.0584V14.7169C51.1173 16.1925 50.1897 17.024 48.8631 17.024C47.5172 17.024 46.5992 16.2021 46.5992 14.7217V14.0632C46.5992 12.6741 47.5317 11.7705 48.8631 11.7705ZM48.8679 12.6309C48.1084 12.6309 47.6759 13.2653 47.6759 14.1161V14.6832C47.6759 15.534 48.0796 16.1637 48.8679 16.1637C49.6465 16.1637 50.0455 15.5388 50.0455 14.6832V14.1161C50.0455 13.2653 49.6273 12.6309 48.8679 12.6309ZM58.952 11.857L57.6157 16.9375H56.5295L55.4672 13.1884H55.4384L54.3954 16.9375H53.3043L51.9104 11.857H53.0592L53.8763 15.7311H53.9243L54.9481 11.857H55.9527L57.0053 15.7311H57.0534L57.8849 11.857H58.952ZM60.0094 16.9375V11.857H61.0572V12.7702H61.1101C61.2399 12.3713 61.61 11.7801 62.6385 11.7801C63.6623 11.7801 64.3497 12.3473 64.3497 13.5056V16.9375H63.2826V13.8181C63.2826 13.0442 62.8789 12.6885 62.2781 12.6885C61.4898 12.6885 61.0764 13.2942 61.0764 14.1161V16.9375H60.0094ZM65.9647 16.9375V10.0305H67.0317V16.9375H65.9647ZM70.6943 11.7705C72.0209 11.7705 72.9485 12.6309 72.9485 14.0584V14.7169C72.9485 16.1925 72.0209 17.024 70.6943 17.024C69.3484 17.024 68.4304 16.2021 68.4304 14.7217V14.0632C68.4304 12.6741 69.3629 11.7705 70.6943 11.7705ZM70.6991 12.6309C69.9397 12.6309 69.5071 13.2653 69.5071 14.1161V14.6832C69.5071 15.534 69.9108 16.1637 70.6991 16.1637C71.4777 16.1637 71.8767 15.5388 71.8767 14.6832V14.1161C71.8767 13.2653 71.4585 12.6309 70.6991 12.6309ZM75.7123 17.0144C74.7269 17.0144 74.0492 16.4088 74.0492 15.4619C74.0492 14.5631 74.6741 13.9575 75.8469 13.9575H77.1302V13.4816C77.1302 12.9 76.7601 12.6261 76.1737 12.6261C75.5969 12.6261 75.3374 12.8664 75.2557 13.2028H74.2415C74.304 12.3521 74.9432 11.7801 76.2074 11.7801C77.2936 11.7801 78.1924 12.2319 78.1924 13.496V16.9375H77.1783V16.279H77.1302C76.9043 16.6683 76.4621 17.0144 75.7123 17.0144ZM76.0439 16.1877C76.6496 16.1877 77.1302 15.7743 77.1302 15.2216V14.6736H76.0151C75.3951 14.6736 75.1211 14.9861 75.1211 15.409C75.1211 15.9377 75.5633 16.1877 76.0439 16.1877ZM81.4801 11.7897C82.1963 11.7897 82.7442 12.1069 82.9413 12.6212H82.9942V10.0305H84.0612V16.9375H83.023V16.1252H82.9701C82.8163 16.6395 82.2059 17.0048 81.4657 17.0048C80.2977 17.0048 79.5383 16.1733 79.5383 14.8322V13.9623C79.5383 12.6212 80.3121 11.7897 81.4801 11.7897ZM81.7781 12.6645C81.0667 12.6645 80.6245 13.1932 80.6245 14.1161V14.6736C80.6245 15.6013 81.0715 16.13 81.8021 16.13C82.5231 16.13 82.9942 15.6061 82.9942 14.7409V13.9719C82.9942 13.1884 82.4799 12.6645 81.7781 12.6645ZM89.9203 11.7705C91.2469 11.7705 92.1746 12.6309 92.1746 14.0584V14.7169C92.1746 16.1925 91.2469 17.024 89.9203 17.024C88.5745 17.024 87.6565 16.2021 87.6565 14.7217V14.0632C87.6565 12.6741 88.5889 11.7705 89.9203 11.7705ZM89.9252 12.6309C89.1657 12.6309 88.7331 13.2653 88.7331 14.1161V14.6832C88.7331 15.534 89.1369 16.1637 89.9252 16.1637C90.7038 16.1637 91.1028 15.5388 91.1028 14.6832V14.1161C91.1028 13.2653 90.6846 12.6309 89.9252 12.6309ZM93.5493 16.9375V11.857H94.5971V12.7702H94.65C94.7797 12.3713 95.1498 11.7801 96.1784 11.7801C97.2022 11.7801 97.8896 12.3473 97.8896 13.5056V16.9375H96.8225V13.8181C96.8225 13.0442 96.4188 12.6885 95.8179 12.6885C95.0297 12.6885 94.6163 13.2942 94.6163 14.1161V16.9375H93.5493ZM102.018 11.8907V10.6217H103.061V11.8907H104.201V12.727H103.061V15.4234C103.061 15.9762 103.268 16.13 103.84 16.13C103.984 16.13 104.176 16.1204 104.258 16.1108V16.9279C104.172 16.9423 103.816 16.9711 103.576 16.9711C102.34 16.9711 102.004 16.5289 102.004 15.51V12.727H101.23V11.8907H102.018ZM105.546 16.9375V10.0305H106.609V12.7702H106.661C106.772 12.4098 107.185 11.7801 108.204 11.7801C109.194 11.7801 109.901 12.3521 109.901 13.5105V16.9375H108.839V13.8229C108.839 13.049 108.411 12.6885 107.805 12.6885C107.041 12.6885 106.609 13.2894 106.609 14.1161V16.9375H105.546ZM113.482 17.024C112.098 17.024 111.237 16.1733 111.237 14.7409V14.0536C111.237 12.6116 112.179 11.7705 113.419 11.7705C114.693 11.7705 115.592 12.6549 115.592 14.0536V14.6496H112.295V14.8995C112.295 15.6301 112.727 16.1685 113.477 16.1685C114.035 16.1685 114.419 15.9041 114.491 15.5869H115.534C115.472 16.1733 114.852 17.024 113.482 17.024ZM112.295 13.9527H114.549V13.8854C114.549 13.1211 114.102 12.6116 113.424 12.6116C112.747 12.6116 112.295 13.1211 112.295 13.8854V13.9527Z" fill="#0B051D"/>
<path d="M41.7879 34.9375H39.5673L44.0854 21.8157H46.5271L51.0356 34.9375H48.7285L47.5653 31.3038H42.9607L41.7879 34.9375ZM45.3159 24.0844H45.2293L43.4509 29.6311H47.075L45.3159 24.0844ZM57.1642 35.0817C55.8472 35.0817 54.8474 34.4568 54.3091 33.5244H54.2322V38.3117H52.0981V24.7765H54.1745V26.2665H54.2514C54.809 25.2956 55.8472 24.6419 57.2122 24.6419C59.4905 24.6419 61.1151 26.3627 61.1151 29.4004V30.304C61.1151 33.3225 59.5097 35.0817 57.1642 35.0817ZM56.6739 33.3225C58.0293 33.3225 58.9522 32.2362 58.9522 30.1887V29.4773C58.9522 27.5066 58.087 26.3819 56.6354 26.3819C55.1454 26.3819 54.213 27.5931 54.213 29.4677V30.1887C54.213 32.1113 55.155 33.3225 56.6739 33.3225ZM68.0127 35.0817C66.6957 35.0817 65.696 34.4568 65.1576 33.5244H65.0807V38.3117H62.9466V24.7765H65.0231V26.2665H65.1C65.6575 25.2956 66.6957 24.6419 68.0608 24.6419C70.3391 24.6419 71.9637 26.3627 71.9637 29.4004V30.304C71.9637 33.3225 70.3583 35.0817 68.0127 35.0817ZM67.5224 33.3225C68.8779 33.3225 69.8007 32.2362 69.8007 30.1887V29.4773C69.8007 27.5066 68.9356 26.3819 67.484 26.3819C65.994 26.3819 65.0615 27.5931 65.0615 29.4677V30.1887C65.0615 32.1113 66.0036 33.3225 67.5224 33.3225ZM76.3861 31.2942H78.5202C78.6164 32.4285 79.6161 33.3994 81.4714 33.3994C83.1729 33.3994 84.1823 32.6015 84.1823 31.3615C84.1823 30.3617 83.5094 29.8234 82.1059 29.4869L79.9526 28.9486C78.2607 28.5544 76.7418 27.5451 76.7418 25.411C76.7418 22.902 78.9336 21.5273 81.481 21.5273C84.0285 21.5273 86.153 22.902 86.201 25.3533H84.1054C84.0093 24.2382 83.1537 23.3153 81.4522 23.3153C79.9526 23.3153 78.9336 24.0267 78.9336 25.2476C78.9336 26.1031 79.5296 26.7184 80.7505 26.9971L82.8942 27.5258C84.8648 28.0065 86.3645 28.939 86.3645 31.1692C86.3645 33.7455 84.2784 35.1971 81.308 35.1971C77.6551 35.1971 76.4342 33.063 76.3861 31.2942ZM88.965 24.7765V22.306H91.0607V24.7765H93.041V26.4876H91.0607V31.9094C91.0607 33.0149 91.474 33.3225 92.618 33.3225C92.8006 33.3225 92.9737 33.3225 93.0986 33.3033V34.9375C92.9256 34.9663 92.5219 35.0048 92.0893 35.0048C89.6187 35.0048 88.9362 34.1204 88.9362 32.0824V26.4876H87.5327V24.7765H88.965ZM98.8042 24.6035C101.727 24.6035 103.313 26.6607 103.313 29.4292V30.2463C103.313 33.111 101.736 35.1105 98.8042 35.1105C95.8722 35.1105 94.2765 33.111 94.2765 30.2463V29.4292C94.2765 26.6703 95.8818 24.6035 98.8042 24.6035ZM98.8042 26.3146C97.2181 26.3146 96.4298 27.6124 96.4298 29.4581V30.2367C96.4298 32.0536 97.2084 33.3898 98.8042 33.3898C100.4 33.3898 101.169 32.0632 101.169 30.2367V29.4581C101.169 27.6028 100.39 26.3146 98.8042 26.3146ZM105.115 34.9375V24.7765H107.249V26.1127H107.326C107.586 25.4783 108.345 24.6323 109.758 24.6323C110.037 24.6323 110.278 24.6516 110.479 24.69V26.5742C110.297 26.5261 109.922 26.4973 109.566 26.4973C107.855 26.4973 107.278 27.5547 107.278 28.9197V34.9375H105.115ZM115.656 35.1105C112.936 35.1105 111.205 33.3129 111.205 30.304V29.2754C111.205 26.4396 112.897 24.6035 115.57 24.6035C118.281 24.6035 119.915 26.5069 119.915 29.3716V30.3425H113.311V30.5828C113.311 32.2939 114.234 33.4283 115.685 33.4283C116.771 33.4283 117.512 32.8899 117.771 32.0151H119.8C119.492 33.659 118.165 35.1105 115.656 35.1105ZM113.311 28.8524H117.829V28.8332C117.829 27.3913 116.935 26.2569 115.579 26.2569C114.205 26.2569 113.311 27.3913 113.311 28.8332V28.8524Z" fill="#0B051D"/>
</svg>
