<svg width="42" height="42" viewBox="0 0 42 42" fill="none" xmlns="http://www.w3.org/2000/svg">
<path fill-rule="evenodd" clip-rule="evenodd" d="M37.5 21C37.5 25.3761 35.7616 29.5729 32.6673 32.6673C29.5729 35.7616 25.3761 37.5 21 37.5C16.6239 37.5 12.4271 35.7616 9.33274 32.6673C6.23839 29.5729 4.5 25.3761 4.5 21C4.5 16.6239 6.23839 12.4271 9.33274 9.33274C12.4271 6.23839 16.6239 4.5 21 4.5C25.3761 4.5 29.5729 6.23839 32.6673 9.33274C35.7616 12.4271 37.5 16.6239 37.5 21ZM42 21C42 26.5695 39.7875 31.911 35.8492 35.8492C31.911 39.7875 26.5695 42 21 42C15.4305 42 10.089 39.7875 6.15076 35.8492C2.21249 31.911 0 26.5695 0 21C0 15.4305 2.21249 10.089 6.15076 6.15076C10.089 2.21249 15.4305 0 21 0C26.5695 0 31.911 2.21249 35.8492 6.15076C39.7875 10.089 42 15.4305 42 21ZM23.25 10.5C23.25 9.90326 23.0129 9.33097 22.591 8.90901C22.169 8.48705 21.5967 8.25 21 8.25C20.4033 8.25 19.831 8.48705 19.409 8.90901C18.9871 9.33097 18.75 9.90326 18.75 10.5V21C18.75 21.3493 18.8313 21.6938 18.9875 22.0062C19.1438 22.3187 19.3706 22.5904 19.65 22.8L25.65 27.3C25.8864 27.4773 26.1554 27.6063 26.4416 27.6796C26.7278 27.7529 27.0257 27.7692 27.3182 27.7274C27.6107 27.6856 27.8921 27.5866 28.1464 27.4361C28.4006 27.2855 28.6227 27.0864 28.8 26.85C28.9773 26.6136 29.1063 26.3446 29.1796 26.0584C29.2529 25.7722 29.2692 25.4743 29.2274 25.1818C29.1856 24.8893 29.0866 24.6079 28.9361 24.3536C28.7855 24.0994 28.5864 23.8773 28.35 23.7L23.25 19.875V10.5Z" fill="#FF514A"/>
</svg>
