<svg width="132" height="45" viewBox="0 0 132 45" fill="none" xmlns="http://www.w3.org/2000/svg">
<rect x="1.29688" y="0.986328" width="130.156" height="42.6562" rx="6.01562" fill="white"/>
<rect x="1.29688" y="0.986328" width="130.156" height="42.6562" rx="6.01562" stroke="#0B051D" stroke-width="1.09375"/>
<path d="M20.2237 21.7257L9.59766 33.2584C9.59865 33.2605 9.59865 33.2635 9.59965 33.2656C9.92601 34.5179 11.0438 35.4395 12.3712 35.4395C12.9021 35.4395 13.4001 35.2925 13.8273 35.0353L13.8612 35.0149L25.8216 27.9574L20.2237 21.7257Z" fill="#EA4335"/>
<path d="M30.9718 19.7626L30.9618 19.7555L25.798 16.6947L19.9805 21.9886L25.8189 27.957L30.9548 24.9269C31.855 24.4288 32.4668 23.4582 32.4668 22.3397C32.4668 21.2272 31.864 20.2617 30.9718 19.7626Z" fill="#FBBC04"/>
<path d="M9.59781 11.369C9.53393 11.6099 9.5 11.863 9.5 12.1243V32.5036C9.5 32.7649 9.53393 33.018 9.5988 33.2578L20.5891 22.02L9.59781 11.369Z" fill="#4285F4"/>
<path d="M20.3025 22.3145L25.8017 16.692L13.8552 9.60901C13.4211 9.34264 12.9141 9.18955 12.3722 9.18955C11.0448 9.18955 9.92501 10.1132 9.59865 11.3665C9.59865 11.3675 9.59766 11.3685 9.59766 11.3695L20.3025 22.3145Z" fill="#34A853"/>
<path d="M48.4484 12.3098C48.4484 13.4035 48.124 14.2749 47.475 14.9238C46.7458 15.6967 45.787 16.0832 44.5984 16.0832C43.4609 16.0832 42.4984 15.6895 41.7109 14.902C40.9234 14.1145 40.5297 13.1447 40.5297 11.9926C40.5297 10.8405 40.9234 9.8707 41.7109 9.0832C42.4984 8.2957 43.4609 7.90195 44.5984 7.90195C45.1745 7.90195 45.7177 8.00404 46.2281 8.2082C46.7385 8.41237 47.1578 8.70039 47.4859 9.07227L46.7641 9.79414C46.5234 9.50247 46.2099 9.27643 45.8234 9.11602C45.4443 8.94831 45.0359 8.86445 44.5984 8.86445C43.7453 8.86445 43.0234 9.15977 42.4328 9.75039C41.8495 10.3483 41.5578 11.0957 41.5578 11.9926C41.5578 12.8895 41.8495 13.6368 42.4328 14.2348C43.0234 14.8254 43.7453 15.1207 44.5984 15.1207C45.3786 15.1207 46.0276 14.902 46.5453 14.4645C47.063 14.027 47.362 13.4254 47.4422 12.6598H44.5984V11.7191H48.3938C48.4302 11.9233 48.4484 12.1202 48.4484 12.3098ZM54.2429 8.07695V9.03945H50.6773V11.5223H53.8929V12.4629H50.6773V14.9457H54.2429V15.9082H49.671V8.07695H54.2429ZM58.2678 9.03945V15.9082H57.2616V9.03945H55.0741V8.07695H60.4553V9.03945H58.2678ZM64.9153 15.9082H63.909V8.07695H64.9153V15.9082ZM69.1626 9.03945V15.9082H68.1564V9.03945H65.9689V8.07695H71.3501V9.03945H69.1626ZM82.2574 11.9926C82.2574 13.152 81.8709 14.1217 81.098 14.902C80.3178 15.6895 79.3626 16.0832 78.2324 16.0832C77.0949 16.0832 76.1397 15.6895 75.3667 14.902C74.5938 14.1217 74.2074 13.152 74.2074 11.9926C74.2074 10.8332 74.5938 9.86341 75.3667 9.0832C76.1397 8.2957 77.0949 7.90195 78.2324 7.90195C79.3699 7.90195 80.3251 8.29935 81.098 9.09414C81.8709 9.87435 82.2574 10.8405 82.2574 11.9926ZM75.2355 11.9926C75.2355 12.8967 75.5199 13.6441 76.0886 14.2348C76.6647 14.8254 77.3792 15.1207 78.2324 15.1207C79.0855 15.1207 79.7964 14.8254 80.3652 14.2348C80.9412 13.6514 81.2292 12.904 81.2292 11.9926C81.2292 11.0811 80.9412 10.3337 80.3652 9.75039C79.7964 9.15977 79.0855 8.86445 78.2324 8.86445C77.3792 8.86445 76.6647 9.15977 76.0886 9.75039C75.5199 10.341 75.2355 11.0884 75.2355 11.9926ZM84.4511 15.9082H83.4448V8.07695H84.6698L88.4761 14.1691H88.5198L88.4761 12.6598V8.07695H89.4823V15.9082H88.4323L84.4511 9.5207H84.4073L84.4511 11.0301V15.9082Z" fill="#0B051D"/>
<path d="M103.035 33.6688H104.817V21.6249H103.035V33.6688ZM119.081 25.9632L117.039 31.185H116.978L114.859 25.9632H112.94L116.118 33.2612L114.307 37.3211H116.164L121.062 25.9632H119.081ZM108.979 32.3007C108.394 32.3007 107.581 32.0068 107.581 31.2775C107.581 30.3488 108.594 29.9923 109.469 29.9923C110.252 29.9923 110.622 30.1628 111.097 30.395C110.959 31.5107 110.007 32.3007 108.979 32.3007ZM109.193 25.7002C107.904 25.7002 106.567 26.2735 106.015 27.5442L107.596 28.21C107.934 27.5442 108.563 27.3265 109.224 27.3265C110.145 27.3265 111.082 27.8843 111.097 28.8767V29C110.774 28.814 110.084 28.5356 109.239 28.5356C107.535 28.5356 105.799 29.4807 105.799 31.2467C105.799 32.8585 107.197 33.8971 108.763 33.8971C109.961 33.8971 110.622 33.3547 111.036 32.7188H111.097V33.6485H112.817V29.0308C112.817 26.893 111.236 25.7002 109.193 25.7002M98.1835 27.4296H95.6497V23.3013H98.1835C99.5154 23.3013 100.272 24.4141 100.272 25.365C100.272 26.2985 99.5154 27.4296 98.1835 27.4296ZM98.1377 21.6249H93.8692V33.6688H95.6497V29.106H98.1377C100.112 29.106 102.053 27.6627 102.053 25.365C102.053 23.0672 100.112 21.6249 98.1377 21.6249M74.8607 32.3026C73.63 32.3026 72.5999 31.2631 72.5999 29.8353C72.5999 28.3921 73.63 27.3361 74.8607 27.3361C76.076 27.3361 77.0288 28.3921 77.0288 29.8353C77.0288 31.2631 76.076 32.3026 74.8607 32.3026ZM76.9066 26.6376H76.8446C76.4445 26.1569 75.676 25.7224 74.7069 25.7224C72.6762 25.7224 70.8155 27.5221 70.8155 29.8353C70.8155 32.1321 72.6762 33.9173 74.7069 33.9173C75.676 33.9173 76.4445 33.4828 76.8446 32.9857H76.9066V33.5763C76.9066 35.1438 76.076 35.982 74.7375 35.982C73.6453 35.982 72.9684 35.19 72.6915 34.5224L71.1382 35.1746C71.584 36.2614 72.7689 37.5957 74.7375 37.5957C76.8293 37.5957 78.5984 36.3538 78.5984 33.3277V25.97H76.9066V26.6376ZM79.829 33.6688H81.6134V21.624H79.829V33.6688ZM84.2427 29.6956C84.1969 28.1127 85.4581 27.3053 86.365 27.3053C87.0734 27.3053 87.673 27.6618 87.8726 28.1743L84.2427 29.6956ZM89.7801 28.3294C89.4421 27.4142 88.411 25.7224 86.3039 25.7224C84.2122 25.7224 82.4746 27.3824 82.4746 29.8199C82.4746 32.1167 84.1969 33.9173 86.5035 33.9173C88.3652 33.9173 89.4421 32.7689 89.888 32.1013L88.5036 31.1696C88.0425 31.8527 87.4114 32.3026 86.5035 32.3026C85.5965 32.3026 84.9501 31.8835 84.5348 31.0617L89.9644 28.7948L89.7801 28.3294ZM46.5235 26.9797V28.7177H50.6451C50.5219 29.6956 50.1992 30.4095 49.7075 30.9056C49.107 31.5116 48.1685 32.1793 46.5235 32.1793C43.9849 32.1793 42.001 30.1147 42.001 27.5539C42.001 24.9921 43.9849 22.9284 46.5235 22.9284C47.8926 22.9284 48.8922 23.4718 49.6302 24.1703L50.8456 22.9439C49.8145 21.9506 48.4464 21.1895 46.5235 21.1895C43.0474 21.1895 40.125 24.046 40.125 27.5539C40.125 31.0617 43.0474 33.9173 46.5235 33.9173C48.3996 33.9173 49.8145 33.2959 50.922 32.1321C52.0609 30.9837 52.4142 29.3699 52.4142 28.0655C52.4142 27.6618 52.3836 27.2899 52.3216 26.9797H46.5235ZM57.1009 32.3026C55.8703 32.3026 54.8086 31.2785 54.8086 29.8199C54.8086 28.3448 55.8703 27.3361 57.1009 27.3361C58.3306 27.3361 59.3922 28.3448 59.3922 29.8199C59.3922 31.2785 58.3306 32.3026 57.1009 32.3026ZM57.1009 25.7224C54.8544 25.7224 53.0242 27.445 53.0242 29.8199C53.0242 32.1793 54.8544 33.9173 57.1009 33.9173C59.3464 33.9173 61.1766 32.1793 61.1766 29.8199C61.1766 27.445 59.3464 25.7224 57.1009 25.7224ZM65.9922 32.3026C64.7616 32.3026 63.6999 31.2785 63.6999 29.8199C63.6999 28.3448 64.7616 27.3361 65.9922 27.3361C67.2229 27.3361 68.2836 28.3448 68.2836 29.8199C68.2836 31.2785 67.2229 32.3026 65.9922 32.3026ZM65.9922 25.7224C63.7467 25.7224 61.9165 27.445 61.9165 29.8199C61.9165 32.1793 63.7467 33.9173 65.9922 33.9173C68.2377 33.9173 70.0679 32.1793 70.0679 29.8199C70.0679 27.445 68.2377 25.7224 65.9922 25.7224Z" fill="#0B051D"/>
</svg>
