<svg width="195" height="195" viewBox="0 0 195 195" fill="none" xmlns="http://www.w3.org/2000/svg">
<g filter="url(#filter0_d_401_15659)">
<rect x="50" y="45" width="95" height="95" rx="18" fill="#F9F8F8" shape-rendering="crispEdges"/>
<path d="M105.755 93.8189C105.282 97.7606 102.7 99.3356 101.585 100.479C100.469 101.626 100.669 101.854 100.744 103.536C100.756 103.744 100.726 103.952 100.655 104.148C100.584 104.344 100.473 104.523 100.33 104.675C100.187 104.826 100.015 104.947 99.8233 105.03C99.6318 105.112 99.4255 105.154 99.217 105.154H94.787C94.5786 105.154 94.3723 105.112 94.1809 105.029C93.9895 104.947 93.8169 104.826 93.6738 104.674C93.5307 104.523 93.42 104.344 93.3487 104.148C93.2773 103.952 93.2467 103.744 93.2587 103.536C93.2587 101.886 93.412 101.502 92.4187 100.479C91.152 99.2122 88.172 97.4239 88.172 92.5056C88.1644 91.2839 88.41 90.0739 88.8932 88.9518C89.3765 87.8298 90.0869 86.82 90.9798 85.9861C91.8727 85.1523 92.9286 84.5124 94.081 84.1069C95.2335 83.7014 96.4574 83.539 97.6757 83.63C98.894 83.721 100.08 84.0634 101.16 84.6356C102.239 85.2078 103.188 85.9975 103.947 86.9547C104.706 87.9119 105.259 89.0161 105.57 90.1975C105.881 91.3789 105.944 92.6119 105.755 93.8189Z" fill="#F85252" stroke="#F85252" stroke-width="1.66667" stroke-linecap="round" stroke-linejoin="round"/>
<path d="M94.4349 105.061V107.581C94.4349 108.27 94.8182 108.835 95.2899 108.835H98.7116C99.1866 108.835 99.5682 108.268 99.5682 107.581V105.061M95.7016 87.4946C94.7175 87.495 93.7738 87.8862 93.0781 88.5823C92.3824 89.2783 91.9916 90.2221 91.9916 91.2062M109.222 92.8412H112.278M106.145 82.8212L108.313 80.6529M107.812 101.335L109.98 103.501M97.0016 76.9629V79.4346M85.7349 80.6512L87.8882 82.8212M84.0682 103.501L86.2216 101.335M84.7816 92.8412H81.7266" stroke="#F85252" stroke-width="1.66667" stroke-linecap="round" stroke-linejoin="round"/>
<path d="M95.71 87.002C94.7259 87.0024 93.7822 87.3936 93.0865 88.0897C92.3908 88.7857 92 89.7295 92 90.7136" stroke="white" stroke-width="1.66667" stroke-linecap="round" stroke-linejoin="round"/>
</g>
<defs>
<filter id="filter0_d_401_15659" x="0" y="0" width="195" height="195" filterUnits="userSpaceOnUse" color-interpolation-filters="sRGB">
<feFlood flood-opacity="0" result="BackgroundImageFix"/>
<feColorMatrix in="SourceAlpha" type="matrix" values="0 0 0 0 0 0 0 0 0 0 0 0 0 0 0 0 0 0 127 0" result="hardAlpha"/>
<feOffset dy="5"/>
<feGaussianBlur stdDeviation="25"/>
<feComposite in2="hardAlpha" operator="out"/>
<feColorMatrix type="matrix" values="0 0 0 0 0 0 0 0 0 0 0 0 0 0 0 0 0 0 0.08 0"/>
<feBlend mode="normal" in2="BackgroundImageFix" result="effect1_dropShadow_401_15659"/>
<feBlend mode="normal" in="SourceGraphic" in2="effect1_dropShadow_401_15659" result="shape"/>
</filter>
</defs>
</svg>
