<svg width="196" height="311" viewBox="0 0 196 311" fill="none" xmlns="http://www.w3.org/2000/svg">
<path d="M22.875 207.633L19.1094 218H17.5703L21.9062 206.625H22.8984L22.875 207.633ZM26.0312 218L22.2578 207.633L22.2344 206.625H23.2266L27.5781 218H26.0312ZM25.8359 213.789V215.023H19.4453V213.789H25.8359ZM30.4531 206V218H29V206H30.4531ZM34.9141 216.5L37.0859 209.547H38.0391L37.8516 210.93L35.6406 218H34.7109L34.9141 216.5ZM33.4531 209.547L35.3047 216.578L35.4375 218H34.4609L32.0078 209.547H33.4531ZM40.1172 216.523L41.8828 209.547H43.3203L40.8672 218H39.8984L40.1172 216.523ZM38.25 209.547L40.375 216.383L40.6172 218H39.6953L37.4219 210.914L37.2344 209.547H38.25ZM49.7891 216.555V212.203C49.7891 211.87 49.7214 211.581 49.5859 211.336C49.4557 211.086 49.2578 210.893 48.9922 210.758C48.7266 210.622 48.3984 210.555 48.0078 210.555C47.6432 210.555 47.3229 210.617 47.0469 210.742C46.776 210.867 46.5625 211.031 46.4062 211.234C46.2552 211.438 46.1797 211.656 46.1797 211.891H44.7344C44.7344 211.589 44.8125 211.289 44.9688 210.992C45.125 210.695 45.349 210.427 45.6406 210.188C45.9375 209.943 46.2917 209.75 46.7031 209.609C47.1198 209.464 47.5833 209.391 48.0938 209.391C48.7083 209.391 49.25 209.495 49.7188 209.703C50.1927 209.911 50.5625 210.227 50.8281 210.648C51.099 211.065 51.2344 211.589 51.2344 212.219V216.156C51.2344 216.438 51.2578 216.737 51.3047 217.055C51.3568 217.372 51.4323 217.646 51.5312 217.875V218H50.0234C49.9505 217.833 49.8932 217.612 49.8516 217.336C49.8099 217.055 49.7891 216.794 49.7891 216.555ZM50.0391 212.875L50.0547 213.891H48.5938C48.1823 213.891 47.8151 213.924 47.4922 213.992C47.1693 214.055 46.8984 214.151 46.6797 214.281C46.4609 214.411 46.2943 214.576 46.1797 214.773C46.0651 214.966 46.0078 215.193 46.0078 215.453C46.0078 215.719 46.0677 215.961 46.1875 216.18C46.3073 216.398 46.487 216.573 46.7266 216.703C46.9714 216.828 47.2708 216.891 47.625 216.891C48.0677 216.891 48.4583 216.797 48.7969 216.609C49.1354 216.422 49.4036 216.193 49.6016 215.922C49.8047 215.651 49.9141 215.388 49.9297 215.133L50.5469 215.828C50.5104 216.047 50.4115 216.289 50.25 216.555C50.0885 216.82 49.8724 217.076 49.6016 217.32C49.3359 217.56 49.0182 217.76 48.6484 217.922C48.2839 218.078 47.8724 218.156 47.4141 218.156C46.8411 218.156 46.3385 218.044 45.9062 217.82C45.4792 217.596 45.1458 217.297 44.9062 216.922C44.6719 216.542 44.5547 216.117 44.5547 215.648C44.5547 215.195 44.6432 214.797 44.8203 214.453C44.9974 214.104 45.2526 213.815 45.5859 213.586C45.9193 213.352 46.3203 213.174 46.7891 213.055C47.2578 212.935 47.7812 212.875 48.3594 212.875H50.0391ZM55.7578 217.125L58.1094 209.547H59.6562L56.2656 219.305C56.1875 219.513 56.0833 219.737 55.9531 219.977C55.8281 220.221 55.6667 220.453 55.4688 220.672C55.2708 220.891 55.0312 221.068 54.75 221.203C54.474 221.344 54.1432 221.414 53.7578 221.414C53.6432 221.414 53.4974 221.398 53.3203 221.367C53.1432 221.336 53.0182 221.31 52.9453 221.289L52.9375 220.117C52.9792 220.122 53.0443 220.128 53.1328 220.133C53.2266 220.143 53.2917 220.148 53.3281 220.148C53.6562 220.148 53.9349 220.104 54.1641 220.016C54.3932 219.932 54.5859 219.789 54.7422 219.586C54.9036 219.388 55.0417 219.115 55.1562 218.766L55.7578 217.125ZM54.0312 209.547L56.2266 216.109L56.6016 217.633L55.5625 218.164L52.4531 209.547H54.0312ZM65.8828 215.758C65.8828 215.549 65.8359 215.357 65.7422 215.18C65.6536 214.997 65.4688 214.833 65.1875 214.688C64.9115 214.536 64.4948 214.406 63.9375 214.297C63.4688 214.198 63.0443 214.081 62.6641 213.945C62.2891 213.81 61.9688 213.646 61.7031 213.453C61.4427 213.26 61.2422 213.034 61.1016 212.773C60.9609 212.513 60.8906 212.208 60.8906 211.859C60.8906 211.526 60.9635 211.211 61.1094 210.914C61.2604 210.617 61.4714 210.354 61.7422 210.125C62.0182 209.896 62.349 209.716 62.7344 209.586C63.1198 209.456 63.5495 209.391 64.0234 209.391C64.7005 209.391 65.2786 209.51 65.7578 209.75C66.237 209.99 66.6042 210.31 66.8594 210.711C67.1146 211.107 67.2422 211.547 67.2422 212.031H65.7969C65.7969 211.797 65.7266 211.57 65.5859 211.352C65.4505 211.128 65.25 210.943 64.9844 210.797C64.724 210.651 64.4036 210.578 64.0234 210.578C63.6224 210.578 63.2969 210.641 63.0469 210.766C62.8021 210.885 62.6224 211.039 62.5078 211.227C62.3984 211.414 62.3438 211.612 62.3438 211.82C62.3438 211.977 62.3698 212.117 62.4219 212.242C62.4792 212.362 62.5781 212.474 62.7188 212.578C62.8594 212.677 63.0573 212.771 63.3125 212.859C63.5677 212.948 63.8932 213.036 64.2891 213.125C64.9818 213.281 65.5521 213.469 66 213.688C66.4479 213.906 66.7812 214.174 67 214.492C67.2188 214.81 67.3281 215.195 67.3281 215.648C67.3281 216.018 67.25 216.357 67.0938 216.664C66.9427 216.971 66.7214 217.237 66.4297 217.461C66.1432 217.68 65.7995 217.852 65.3984 217.977C65.0026 218.096 64.5573 218.156 64.0625 218.156C63.3177 218.156 62.6875 218.023 62.1719 217.758C61.6562 217.492 61.2656 217.148 61 216.727C60.7344 216.305 60.6016 215.859 60.6016 215.391H62.0547C62.0755 215.786 62.1901 216.102 62.3984 216.336C62.6068 216.565 62.862 216.729 63.1641 216.828C63.4661 216.922 63.7656 216.969 64.0625 216.969C64.4583 216.969 64.7891 216.917 65.0547 216.812C65.3255 216.708 65.5312 216.565 65.6719 216.383C65.8125 216.201 65.8828 215.992 65.8828 215.758ZM76.7344 209.547V210.656H72.1641V209.547H76.7344ZM73.7109 207.492H75.1562V215.906C75.1562 216.193 75.2005 216.409 75.2891 216.555C75.3776 216.701 75.4922 216.797 75.6328 216.844C75.7734 216.891 75.9245 216.914 76.0859 216.914C76.2057 216.914 76.3307 216.904 76.4609 216.883C76.5964 216.857 76.6979 216.836 76.7656 216.82L76.7734 218C76.6589 218.036 76.5078 218.07 76.3203 218.102C76.138 218.138 75.9167 218.156 75.6562 218.156C75.3021 218.156 74.9766 218.086 74.6797 217.945C74.3828 217.805 74.1458 217.57 73.9688 217.242C73.7969 216.909 73.7109 216.461 73.7109 215.898V207.492ZM79.875 210.875V218H78.4297V209.547H79.8359L79.875 210.875ZM82.5156 209.5L82.5078 210.844C82.388 210.818 82.2734 210.802 82.1641 210.797C82.0599 210.786 81.9401 210.781 81.8047 210.781C81.4714 210.781 81.1771 210.833 80.9219 210.938C80.6667 211.042 80.4505 211.188 80.2734 211.375C80.0964 211.562 79.9557 211.786 79.8516 212.047C79.7526 212.302 79.6875 212.583 79.6562 212.891L79.25 213.125C79.25 212.615 79.2995 212.135 79.3984 211.688C79.5026 211.24 79.6615 210.844 79.875 210.5C80.0885 210.151 80.3594 209.88 80.6875 209.688C81.0208 209.49 81.4167 209.391 81.875 209.391C81.9792 209.391 82.099 209.404 82.2344 209.43C82.3698 209.451 82.4635 209.474 82.5156 209.5ZM86.3672 217.125L88.7188 209.547H90.2656L86.875 219.305C86.7969 219.513 86.6927 219.737 86.5625 219.977C86.4375 220.221 86.276 220.453 86.0781 220.672C85.8802 220.891 85.6406 221.068 85.3594 221.203C85.0833 221.344 84.7526 221.414 84.3672 221.414C84.2526 221.414 84.1068 221.398 83.9297 221.367C83.7526 221.336 83.6276 221.31 83.5547 221.289L83.5469 220.117C83.5885 220.122 83.6536 220.128 83.7422 220.133C83.8359 220.143 83.901 220.148 83.9375 220.148C84.2656 220.148 84.5443 220.104 84.7734 220.016C85.0026 219.932 85.1953 219.789 85.3516 219.586C85.513 219.388 85.651 219.115 85.7656 218.766L86.3672 217.125ZM84.6406 209.547L86.8359 216.109L87.2109 217.633L86.1719 218.164L83.0625 209.547H84.6406ZM93.1406 209.547V218H91.6875V209.547H93.1406ZM91.5781 207.305C91.5781 207.07 91.6484 206.872 91.7891 206.711C91.9349 206.549 92.1484 206.469 92.4297 206.469C92.7057 206.469 92.9167 206.549 93.0625 206.711C93.2135 206.872 93.2891 207.07 93.2891 207.305C93.2891 207.529 93.2135 207.721 93.0625 207.883C92.9167 208.039 92.7057 208.117 92.4297 208.117C92.1484 208.117 91.9349 208.039 91.7891 207.883C91.6484 207.721 91.5781 207.529 91.5781 207.305ZM96.9062 211.352V218H95.4609V209.547H96.8281L96.9062 211.352ZM96.5625 213.453L95.9609 213.43C95.9661 212.852 96.0521 212.318 96.2188 211.828C96.3854 211.333 96.6198 210.904 96.9219 210.539C97.224 210.174 97.5833 209.893 98 209.695C98.4219 209.492 98.888 209.391 99.3984 209.391C99.8151 209.391 100.19 209.448 100.523 209.562C100.857 209.672 101.141 209.849 101.375 210.094C101.615 210.339 101.797 210.656 101.922 211.047C102.047 211.432 102.109 211.904 102.109 212.461V218H100.656V212.445C100.656 212.003 100.591 211.648 100.461 211.383C100.331 211.112 100.141 210.917 99.8906 210.797C99.6406 210.672 99.3333 210.609 98.9688 210.609C98.6094 210.609 98.2812 210.685 97.9844 210.836C97.6927 210.987 97.4401 211.195 97.2266 211.461C97.0182 211.727 96.8542 212.031 96.7344 212.375C96.6198 212.714 96.5625 213.073 96.5625 213.453ZM109.781 209.547H111.094V217.82C111.094 218.565 110.943 219.201 110.641 219.727C110.339 220.253 109.917 220.651 109.375 220.922C108.839 221.198 108.219 221.336 107.516 221.336C107.224 221.336 106.88 221.289 106.484 221.195C106.094 221.107 105.708 220.953 105.328 220.734C104.953 220.521 104.638 220.232 104.383 219.867L105.141 219.008C105.495 219.435 105.865 219.732 106.25 219.898C106.641 220.065 107.026 220.148 107.406 220.148C107.865 220.148 108.26 220.062 108.594 219.891C108.927 219.719 109.185 219.464 109.367 219.125C109.555 218.792 109.648 218.38 109.648 217.891V211.406L109.781 209.547ZM103.961 213.867V213.703C103.961 213.057 104.036 212.471 104.188 211.945C104.344 211.414 104.565 210.958 104.852 210.578C105.143 210.198 105.495 209.906 105.906 209.703C106.318 209.495 106.781 209.391 107.297 209.391C107.828 209.391 108.292 209.484 108.688 209.672C109.089 209.854 109.427 210.122 109.703 210.477C109.984 210.826 110.206 211.247 110.367 211.742C110.529 212.237 110.641 212.797 110.703 213.422V214.141C110.646 214.76 110.534 215.318 110.367 215.812C110.206 216.307 109.984 216.729 109.703 217.078C109.427 217.427 109.089 217.695 108.688 217.883C108.286 218.065 107.818 218.156 107.281 218.156C106.776 218.156 106.318 218.049 105.906 217.836C105.5 217.622 105.151 217.323 104.859 216.938C104.568 216.552 104.344 216.099 104.188 215.578C104.036 215.052 103.961 214.482 103.961 213.867ZM105.406 213.703V213.867C105.406 214.289 105.448 214.685 105.531 215.055C105.62 215.424 105.753 215.75 105.93 216.031C106.112 216.312 106.344 216.534 106.625 216.695C106.906 216.852 107.242 216.93 107.633 216.93C108.112 216.93 108.508 216.828 108.82 216.625C109.133 216.422 109.38 216.154 109.562 215.82C109.75 215.487 109.896 215.125 110 214.734V212.852C109.943 212.565 109.854 212.289 109.734 212.023C109.62 211.753 109.469 211.513 109.281 211.305C109.099 211.091 108.872 210.922 108.602 210.797C108.331 210.672 108.013 210.609 107.648 210.609C107.253 210.609 106.911 210.693 106.625 210.859C106.344 211.021 106.112 211.245 105.93 211.531C105.753 211.812 105.62 212.141 105.531 212.516C105.448 212.885 105.406 213.281 105.406 213.703ZM120.797 209.547V210.656H116.227V209.547H120.797ZM117.773 207.492H119.219V215.906C119.219 216.193 119.263 216.409 119.352 216.555C119.44 216.701 119.555 216.797 119.695 216.844C119.836 216.891 119.987 216.914 120.148 216.914C120.268 216.914 120.393 216.904 120.523 216.883C120.659 216.857 120.76 216.836 120.828 216.82L120.836 218C120.721 218.036 120.57 218.07 120.383 218.102C120.201 218.138 119.979 218.156 119.719 218.156C119.365 218.156 119.039 218.086 118.742 217.945C118.445 217.805 118.208 217.57 118.031 217.242C117.859 216.909 117.773 216.461 117.773 215.898V207.492ZM121.953 213.867V213.688C121.953 213.078 122.042 212.513 122.219 211.992C122.396 211.466 122.651 211.01 122.984 210.625C123.318 210.234 123.721 209.932 124.195 209.719C124.669 209.5 125.201 209.391 125.789 209.391C126.383 209.391 126.917 209.5 127.391 209.719C127.87 209.932 128.276 210.234 128.609 210.625C128.948 211.01 129.206 211.466 129.383 211.992C129.56 212.513 129.648 213.078 129.648 213.688V213.867C129.648 214.477 129.56 215.042 129.383 215.562C129.206 216.083 128.948 216.539 128.609 216.93C128.276 217.315 127.872 217.617 127.398 217.836C126.93 218.049 126.398 218.156 125.805 218.156C125.211 218.156 124.677 218.049 124.203 217.836C123.729 217.617 123.323 217.315 122.984 216.93C122.651 216.539 122.396 216.083 122.219 215.562C122.042 215.042 121.953 214.477 121.953 213.867ZM123.398 213.688V213.867C123.398 214.289 123.448 214.688 123.547 215.062C123.646 215.432 123.794 215.76 123.992 216.047C124.195 216.333 124.448 216.56 124.75 216.727C125.052 216.888 125.404 216.969 125.805 216.969C126.201 216.969 126.547 216.888 126.844 216.727C127.146 216.56 127.396 216.333 127.594 216.047C127.792 215.76 127.94 215.432 128.039 215.062C128.143 214.688 128.195 214.289 128.195 213.867V213.688C128.195 213.271 128.143 212.878 128.039 212.508C127.94 212.133 127.789 211.802 127.586 211.516C127.388 211.224 127.138 210.995 126.836 210.828C126.539 210.661 126.19 210.578 125.789 210.578C125.393 210.578 125.044 210.661 124.742 210.828C124.445 210.995 124.195 211.224 123.992 211.516C123.794 211.802 123.646 212.133 123.547 212.508C123.448 212.878 123.398 213.271 123.398 213.688ZM137 209.547V218H135.547V209.547H137ZM135.438 207.305C135.438 207.07 135.508 206.872 135.648 206.711C135.794 206.549 136.008 206.469 136.289 206.469C136.565 206.469 136.776 206.549 136.922 206.711C137.073 206.872 137.148 207.07 137.148 207.305C137.148 207.529 137.073 207.721 136.922 207.883C136.776 208.039 136.565 208.117 136.289 208.117C136.008 208.117 135.794 208.039 135.648 207.883C135.508 207.721 135.438 207.529 135.438 207.305ZM140.758 211.227V218H139.305V209.547H140.68L140.758 211.227ZM140.461 213.453L139.789 213.43C139.794 212.852 139.87 212.318 140.016 211.828C140.161 211.333 140.378 210.904 140.664 210.539C140.951 210.174 141.307 209.893 141.734 209.695C142.161 209.492 142.656 209.391 143.219 209.391C143.615 209.391 143.979 209.448 144.312 209.562C144.646 209.672 144.935 209.846 145.18 210.086C145.424 210.326 145.615 210.633 145.75 211.008C145.885 211.383 145.953 211.836 145.953 212.367V218H144.508V212.438C144.508 211.995 144.432 211.641 144.281 211.375C144.135 211.109 143.927 210.917 143.656 210.797C143.385 210.672 143.068 210.609 142.703 210.609C142.276 210.609 141.919 210.685 141.633 210.836C141.346 210.987 141.117 211.195 140.945 211.461C140.773 211.727 140.648 212.031 140.57 212.375C140.497 212.714 140.461 213.073 140.461 213.453ZM145.938 212.656L144.969 212.953C144.974 212.49 145.049 212.044 145.195 211.617C145.346 211.19 145.562 210.81 145.844 210.477C146.13 210.143 146.482 209.88 146.898 209.688C147.315 209.49 147.792 209.391 148.328 209.391C148.781 209.391 149.182 209.451 149.531 209.57C149.885 209.69 150.182 209.875 150.422 210.125C150.667 210.37 150.852 210.685 150.977 211.07C151.102 211.456 151.164 211.914 151.164 212.445V218H149.711V212.43C149.711 211.956 149.635 211.589 149.484 211.328C149.339 211.062 149.13 210.878 148.859 210.773C148.594 210.664 148.276 210.609 147.906 210.609C147.589 210.609 147.307 210.664 147.062 210.773C146.818 210.883 146.612 211.034 146.445 211.227C146.279 211.414 146.151 211.63 146.062 211.875C145.979 212.12 145.938 212.38 145.938 212.656ZM154.797 211.172V221.25H153.344V209.547H154.672L154.797 211.172ZM160.492 213.703V213.867C160.492 214.482 160.419 215.052 160.273 215.578C160.128 216.099 159.914 216.552 159.633 216.938C159.357 217.323 159.016 217.622 158.609 217.836C158.203 218.049 157.737 218.156 157.211 218.156C156.674 218.156 156.201 218.068 155.789 217.891C155.378 217.714 155.029 217.456 154.742 217.117C154.456 216.779 154.227 216.372 154.055 215.898C153.888 215.424 153.773 214.891 153.711 214.297V213.422C153.773 212.797 153.891 212.237 154.062 211.742C154.234 211.247 154.461 210.826 154.742 210.477C155.029 210.122 155.375 209.854 155.781 209.672C156.188 209.484 156.656 209.391 157.188 209.391C157.719 209.391 158.19 209.495 158.602 209.703C159.013 209.906 159.359 210.198 159.641 210.578C159.922 210.958 160.133 211.414 160.273 211.945C160.419 212.471 160.492 213.057 160.492 213.703ZM159.039 213.867V213.703C159.039 213.281 158.995 212.885 158.906 212.516C158.818 212.141 158.68 211.812 158.492 211.531C158.31 211.245 158.076 211.021 157.789 210.859C157.503 210.693 157.161 210.609 156.766 210.609C156.401 210.609 156.083 210.672 155.812 210.797C155.547 210.922 155.32 211.091 155.133 211.305C154.945 211.513 154.792 211.753 154.672 212.023C154.557 212.289 154.471 212.565 154.414 212.852V214.875C154.518 215.24 154.664 215.583 154.852 215.906C155.039 216.224 155.289 216.482 155.602 216.68C155.914 216.872 156.307 216.969 156.781 216.969C157.172 216.969 157.508 216.888 157.789 216.727C158.076 216.56 158.31 216.333 158.492 216.047C158.68 215.76 158.818 215.432 158.906 215.062C158.995 214.688 159.039 214.289 159.039 213.867ZM163.781 210.875V218H162.336V209.547H163.742L163.781 210.875ZM166.422 209.5L166.414 210.844C166.294 210.818 166.18 210.802 166.07 210.797C165.966 210.786 165.846 210.781 165.711 210.781C165.378 210.781 165.083 210.833 164.828 210.938C164.573 211.042 164.357 211.188 164.18 211.375C164.003 211.562 163.862 211.786 163.758 212.047C163.659 212.302 163.594 212.583 163.562 212.891L163.156 213.125C163.156 212.615 163.206 212.135 163.305 211.688C163.409 211.24 163.568 210.844 163.781 210.5C163.995 210.151 164.266 209.88 164.594 209.688C164.927 209.49 165.323 209.391 165.781 209.391C165.885 209.391 166.005 209.404 166.141 209.43C166.276 209.451 166.37 209.474 166.422 209.5ZM167.219 213.867V213.688C167.219 213.078 167.307 212.513 167.484 211.992C167.661 211.466 167.917 211.01 168.25 210.625C168.583 210.234 168.987 209.932 169.461 209.719C169.935 209.5 170.466 209.391 171.055 209.391C171.648 209.391 172.182 209.5 172.656 209.719C173.135 209.932 173.542 210.234 173.875 210.625C174.214 211.01 174.471 211.466 174.648 211.992C174.826 212.513 174.914 213.078 174.914 213.688V213.867C174.914 214.477 174.826 215.042 174.648 215.562C174.471 216.083 174.214 216.539 173.875 216.93C173.542 217.315 173.138 217.617 172.664 217.836C172.195 218.049 171.664 218.156 171.07 218.156C170.477 218.156 169.943 218.049 169.469 217.836C168.995 217.617 168.589 217.315 168.25 216.93C167.917 216.539 167.661 216.083 167.484 215.562C167.307 215.042 167.219 214.477 167.219 213.867ZM168.664 213.688V213.867C168.664 214.289 168.714 214.688 168.812 215.062C168.911 215.432 169.06 215.76 169.258 216.047C169.461 216.333 169.714 216.56 170.016 216.727C170.318 216.888 170.669 216.969 171.07 216.969C171.466 216.969 171.812 216.888 172.109 216.727C172.411 216.56 172.661 216.333 172.859 216.047C173.057 215.76 173.206 215.432 173.305 215.062C173.409 214.688 173.461 214.289 173.461 213.867V213.688C173.461 213.271 173.409 212.878 173.305 212.508C173.206 212.133 173.055 211.802 172.852 211.516C172.654 211.224 172.404 210.995 172.102 210.828C171.805 210.661 171.456 210.578 171.055 210.578C170.659 210.578 170.31 210.661 170.008 210.828C169.711 210.995 169.461 211.224 169.258 211.516C169.06 211.802 168.911 212.133 168.812 212.508C168.714 212.878 168.664 213.271 168.664 213.688ZM179.172 216.695L181.484 209.547H182.961L179.922 218H178.953L179.172 216.695ZM177.242 209.547L179.625 216.734L179.789 218H178.82L175.758 209.547H177.242ZM187.75 218.156C187.161 218.156 186.628 218.057 186.148 217.859C185.674 217.656 185.266 217.372 184.922 217.008C184.583 216.643 184.323 216.211 184.141 215.711C183.958 215.211 183.867 214.664 183.867 214.07V213.742C183.867 213.055 183.969 212.443 184.172 211.906C184.375 211.365 184.651 210.906 185 210.531C185.349 210.156 185.745 209.872 186.188 209.68C186.63 209.487 187.089 209.391 187.562 209.391C188.167 209.391 188.688 209.495 189.125 209.703C189.568 209.911 189.93 210.203 190.211 210.578C190.492 210.948 190.701 211.385 190.836 211.891C190.971 212.391 191.039 212.938 191.039 213.531V214.18H184.727V213H189.594V212.891C189.573 212.516 189.495 212.151 189.359 211.797C189.229 211.443 189.021 211.151 188.734 210.922C188.448 210.693 188.057 210.578 187.562 210.578C187.234 210.578 186.932 210.648 186.656 210.789C186.38 210.924 186.143 211.128 185.945 211.398C185.747 211.669 185.594 212 185.484 212.391C185.375 212.781 185.32 213.232 185.32 213.742V214.07C185.32 214.471 185.375 214.849 185.484 215.203C185.599 215.552 185.763 215.859 185.977 216.125C186.195 216.391 186.458 216.599 186.766 216.75C187.078 216.901 187.432 216.977 187.828 216.977C188.339 216.977 188.771 216.872 189.125 216.664C189.479 216.456 189.789 216.177 190.055 215.828L190.93 216.523C190.747 216.799 190.516 217.062 190.234 217.312C189.953 217.562 189.607 217.766 189.195 217.922C188.789 218.078 188.307 218.156 187.75 218.156ZM31.7031 240.555V236.203C31.7031 235.87 31.6354 235.581 31.5 235.336C31.3698 235.086 31.1719 234.893 30.9062 234.758C30.6406 234.622 30.3125 234.555 29.9219 234.555C29.5573 234.555 29.237 234.617 28.9609 234.742C28.6901 234.867 28.4766 235.031 28.3203 235.234C28.1693 235.438 28.0938 235.656 28.0938 235.891H26.6484C26.6484 235.589 26.7266 235.289 26.8828 234.992C27.0391 234.695 27.263 234.427 27.5547 234.188C27.8516 233.943 28.2057 233.75 28.6172 233.609C29.0339 233.464 29.4974 233.391 30.0078 233.391C30.6224 233.391 31.1641 233.495 31.6328 233.703C32.1068 233.911 32.4766 234.227 32.7422 234.648C33.013 235.065 33.1484 235.589 33.1484 236.219V240.156C33.1484 240.438 33.1719 240.737 33.2188 241.055C33.2708 241.372 33.3464 241.646 33.4453 241.875V242H31.9375C31.8646 241.833 31.8073 241.612 31.7656 241.336C31.724 241.055 31.7031 240.794 31.7031 240.555ZM31.9531 236.875L31.9688 237.891H30.5078C30.0964 237.891 29.7292 237.924 29.4062 237.992C29.0833 238.055 28.8125 238.151 28.5938 238.281C28.375 238.411 28.2083 238.576 28.0938 238.773C27.9792 238.966 27.9219 239.193 27.9219 239.453C27.9219 239.719 27.9818 239.961 28.1016 240.18C28.2214 240.398 28.401 240.573 28.6406 240.703C28.8854 240.828 29.1849 240.891 29.5391 240.891C29.9818 240.891 30.3724 240.797 30.7109 240.609C31.0495 240.422 31.3177 240.193 31.5156 239.922C31.7188 239.651 31.8281 239.388 31.8438 239.133L32.4609 239.828C32.4245 240.047 32.3255 240.289 32.1641 240.555C32.0026 240.82 31.7865 241.076 31.5156 241.32C31.25 241.56 30.9323 241.76 30.5625 241.922C30.1979 242.078 29.7865 242.156 29.3281 242.156C28.7552 242.156 28.2526 242.044 27.8203 241.82C27.3932 241.596 27.0599 241.297 26.8203 240.922C26.5859 240.542 26.4688 240.117 26.4688 239.648C26.4688 239.195 26.5573 238.797 26.7344 238.453C26.9115 238.104 27.1667 237.815 27.5 237.586C27.8333 237.352 28.2344 237.174 28.7031 237.055C29.1719 236.935 29.6953 236.875 30.2734 236.875H31.9531ZM36.8672 235.352V242H35.4219V233.547H36.7891L36.8672 235.352ZM36.5234 237.453L35.9219 237.43C35.9271 236.852 36.013 236.318 36.1797 235.828C36.3464 235.333 36.5807 234.904 36.8828 234.539C37.1849 234.174 37.5443 233.893 37.9609 233.695C38.3828 233.492 38.849 233.391 39.3594 233.391C39.776 233.391 40.151 233.448 40.4844 233.562C40.8177 233.672 41.1016 233.849 41.3359 234.094C41.5755 234.339 41.7578 234.656 41.8828 235.047C42.0078 235.432 42.0703 235.904 42.0703 236.461V242H40.6172V236.445C40.6172 236.003 40.5521 235.648 40.4219 235.383C40.2917 235.112 40.1016 234.917 39.8516 234.797C39.6016 234.672 39.2943 234.609 38.9297 234.609C38.5703 234.609 38.2422 234.685 37.9453 234.836C37.6536 234.987 37.401 235.195 37.1875 235.461C36.9792 235.727 36.8151 236.031 36.6953 236.375C36.5807 236.714 36.5234 237.073 36.5234 237.453ZM49.5938 240.359V230H51.0469V242H49.7188L49.5938 240.359ZM43.9062 237.867V237.703C43.9062 237.057 43.9844 236.471 44.1406 235.945C44.3021 235.414 44.5286 234.958 44.8203 234.578C45.1172 234.198 45.4688 233.906 45.875 233.703C46.2865 233.495 46.7448 233.391 47.25 233.391C47.7812 233.391 48.2448 233.484 48.6406 233.672C49.0417 233.854 49.3802 234.122 49.6562 234.477C49.9375 234.826 50.1589 235.247 50.3203 235.742C50.4818 236.237 50.5938 236.797 50.6562 237.422V238.141C50.599 238.76 50.487 239.318 50.3203 239.812C50.1589 240.307 49.9375 240.729 49.6562 241.078C49.3802 241.427 49.0417 241.695 48.6406 241.883C48.2396 242.065 47.7708 242.156 47.2344 242.156C46.7396 242.156 46.2865 242.049 45.875 241.836C45.4688 241.622 45.1172 241.323 44.8203 240.938C44.5286 240.552 44.3021 240.099 44.1406 239.578C43.9844 239.052 43.9062 238.482 43.9062 237.867ZM45.3594 237.703V237.867C45.3594 238.289 45.401 238.685 45.4844 239.055C45.5729 239.424 45.7083 239.75 45.8906 240.031C46.0729 240.312 46.3047 240.534 46.5859 240.695C46.8672 240.852 47.2031 240.93 47.5938 240.93C48.0729 240.93 48.4661 240.828 48.7734 240.625C49.0859 240.422 49.3359 240.154 49.5234 239.82C49.7109 239.487 49.8568 239.125 49.9609 238.734V236.852C49.8984 236.565 49.8073 236.289 49.6875 236.023C49.5729 235.753 49.4219 235.513 49.2344 235.305C49.0521 235.091 48.8255 234.922 48.5547 234.797C48.2891 234.672 47.974 234.609 47.6094 234.609C47.2135 234.609 46.8724 234.693 46.5859 234.859C46.3047 235.021 46.0729 235.245 45.8906 235.531C45.7083 235.812 45.5729 236.141 45.4844 236.516C45.401 236.885 45.3594 237.281 45.3594 237.703ZM58.7031 235.227V242H57.25V233.547H58.625L58.7031 235.227ZM58.4062 237.453L57.7344 237.43C57.7396 236.852 57.8151 236.318 57.9609 235.828C58.1068 235.333 58.3229 234.904 58.6094 234.539C58.8958 234.174 59.2526 233.893 59.6797 233.695C60.1068 233.492 60.6016 233.391 61.1641 233.391C61.5599 233.391 61.9245 233.448 62.2578 233.562C62.5911 233.672 62.8802 233.846 63.125 234.086C63.3698 234.326 63.5599 234.633 63.6953 235.008C63.8307 235.383 63.8984 235.836 63.8984 236.367V242H62.4531V236.438C62.4531 235.995 62.3776 235.641 62.2266 235.375C62.0807 235.109 61.8724 234.917 61.6016 234.797C61.3307 234.672 61.013 234.609 60.6484 234.609C60.2214 234.609 59.8646 234.685 59.5781 234.836C59.2917 234.987 59.0625 235.195 58.8906 235.461C58.7188 235.727 58.5938 236.031 58.5156 236.375C58.4427 236.714 58.4062 237.073 58.4062 237.453ZM63.8828 236.656L62.9141 236.953C62.9193 236.49 62.9948 236.044 63.1406 235.617C63.2917 235.19 63.5078 234.81 63.7891 234.477C64.0755 234.143 64.4271 233.88 64.8438 233.688C65.2604 233.49 65.737 233.391 66.2734 233.391C66.7266 233.391 67.1276 233.451 67.4766 233.57C67.8307 233.69 68.1276 233.875 68.3672 234.125C68.612 234.37 68.7969 234.685 68.9219 235.07C69.0469 235.456 69.1094 235.914 69.1094 236.445V242H67.6562V236.43C67.6562 235.956 67.5807 235.589 67.4297 235.328C67.2839 235.062 67.0755 234.878 66.8047 234.773C66.5391 234.664 66.2214 234.609 65.8516 234.609C65.5339 234.609 65.2526 234.664 65.0078 234.773C64.763 234.883 64.5573 235.034 64.3906 235.227C64.224 235.414 64.0964 235.63 64.0078 235.875C63.9245 236.12 63.8828 236.38 63.8828 236.656ZM76.2812 240.555V236.203C76.2812 235.87 76.2135 235.581 76.0781 235.336C75.9479 235.086 75.75 234.893 75.4844 234.758C75.2188 234.622 74.8906 234.555 74.5 234.555C74.1354 234.555 73.8151 234.617 73.5391 234.742C73.2682 234.867 73.0547 235.031 72.8984 235.234C72.7474 235.438 72.6719 235.656 72.6719 235.891H71.2266C71.2266 235.589 71.3047 235.289 71.4609 234.992C71.6172 234.695 71.8411 234.427 72.1328 234.188C72.4297 233.943 72.7839 233.75 73.1953 233.609C73.612 233.464 74.0755 233.391 74.5859 233.391C75.2005 233.391 75.7422 233.495 76.2109 233.703C76.6849 233.911 77.0547 234.227 77.3203 234.648C77.5911 235.065 77.7266 235.589 77.7266 236.219V240.156C77.7266 240.438 77.75 240.737 77.7969 241.055C77.849 241.372 77.9245 241.646 78.0234 241.875V242H76.5156C76.4427 241.833 76.3854 241.612 76.3438 241.336C76.3021 241.055 76.2812 240.794 76.2812 240.555ZM76.5312 236.875L76.5469 237.891H75.0859C74.6745 237.891 74.3073 237.924 73.9844 237.992C73.6615 238.055 73.3906 238.151 73.1719 238.281C72.9531 238.411 72.7865 238.576 72.6719 238.773C72.5573 238.966 72.5 239.193 72.5 239.453C72.5 239.719 72.5599 239.961 72.6797 240.18C72.7995 240.398 72.9792 240.573 73.2188 240.703C73.4635 240.828 73.763 240.891 74.1172 240.891C74.5599 240.891 74.9505 240.797 75.2891 240.609C75.6276 240.422 75.8958 240.193 76.0938 239.922C76.2969 239.651 76.4062 239.388 76.4219 239.133L77.0391 239.828C77.0026 240.047 76.9036 240.289 76.7422 240.555C76.5807 240.82 76.3646 241.076 76.0938 241.32C75.8281 241.56 75.5104 241.76 75.1406 241.922C74.776 242.078 74.3646 242.156 73.9062 242.156C73.3333 242.156 72.8307 242.044 72.3984 241.82C71.9714 241.596 71.638 241.297 71.3984 240.922C71.1641 240.542 71.0469 240.117 71.0469 239.648C71.0469 239.195 71.1354 238.797 71.3125 238.453C71.4896 238.104 71.7448 237.815 72.0781 237.586C72.4115 237.352 72.8125 237.174 73.2812 237.055C73.75 236.935 74.2734 236.875 74.8516 236.875H76.5312ZM81.4531 230V242H80V230H81.4531ZM86.6172 233.547L82.9297 237.492L80.8672 239.633L80.75 238.094L82.2266 236.328L84.8516 233.547H86.6172ZM85.2969 242L82.2812 237.969L83.0312 236.68L87 242H85.2969ZM89.6797 233.547V242H88.2266V233.547H89.6797ZM88.1172 231.305C88.1172 231.07 88.1875 230.872 88.3281 230.711C88.474 230.549 88.6875 230.469 88.9688 230.469C89.2448 230.469 89.4557 230.549 89.6016 230.711C89.7526 230.872 89.8281 231.07 89.8281 231.305C89.8281 231.529 89.7526 231.721 89.6016 231.883C89.4557 232.039 89.2448 232.117 88.9688 232.117C88.6875 232.117 88.474 232.039 88.3281 231.883C88.1875 231.721 88.1172 231.529 88.1172 231.305ZM93.4453 235.352V242H92V233.547H93.3672L93.4453 235.352ZM93.1016 237.453L92.5 237.43C92.5052 236.852 92.5911 236.318 92.7578 235.828C92.9245 235.333 93.1589 234.904 93.4609 234.539C93.763 234.174 94.1224 233.893 94.5391 233.695C94.9609 233.492 95.4271 233.391 95.9375 233.391C96.3542 233.391 96.7292 233.448 97.0625 233.562C97.3958 233.672 97.6797 233.849 97.9141 234.094C98.1536 234.339 98.3359 234.656 98.4609 235.047C98.5859 235.432 98.6484 235.904 98.6484 236.461V242H97.1953V236.445C97.1953 236.003 97.1302 235.648 97 235.383C96.8698 235.112 96.6797 234.917 96.4297 234.797C96.1797 234.672 95.8724 234.609 95.5078 234.609C95.1484 234.609 94.8203 234.685 94.5234 234.836C94.2318 234.987 93.9792 235.195 93.7656 235.461C93.5573 235.727 93.3932 236.031 93.2734 236.375C93.1589 236.714 93.1016 237.073 93.1016 237.453ZM106.32 233.547H107.633V241.82C107.633 242.565 107.482 243.201 107.18 243.727C106.878 244.253 106.456 244.651 105.914 244.922C105.378 245.198 104.758 245.336 104.055 245.336C103.763 245.336 103.419 245.289 103.023 245.195C102.633 245.107 102.247 244.953 101.867 244.734C101.492 244.521 101.177 244.232 100.922 243.867L101.68 243.008C102.034 243.435 102.404 243.732 102.789 243.898C103.18 244.065 103.565 244.148 103.945 244.148C104.404 244.148 104.799 244.062 105.133 243.891C105.466 243.719 105.724 243.464 105.906 243.125C106.094 242.792 106.188 242.38 106.188 241.891V235.406L106.32 233.547ZM100.5 237.867V237.703C100.5 237.057 100.576 236.471 100.727 235.945C100.883 235.414 101.104 234.958 101.391 234.578C101.682 234.198 102.034 233.906 102.445 233.703C102.857 233.495 103.32 233.391 103.836 233.391C104.367 233.391 104.831 233.484 105.227 233.672C105.628 233.854 105.966 234.122 106.242 234.477C106.523 234.826 106.745 235.247 106.906 235.742C107.068 236.237 107.18 236.797 107.242 237.422V238.141C107.185 238.76 107.073 239.318 106.906 239.812C106.745 240.307 106.523 240.729 106.242 241.078C105.966 241.427 105.628 241.695 105.227 241.883C104.826 242.065 104.357 242.156 103.82 242.156C103.315 242.156 102.857 242.049 102.445 241.836C102.039 241.622 101.69 241.323 101.398 240.938C101.107 240.552 100.883 240.099 100.727 239.578C100.576 239.052 100.5 238.482 100.5 237.867ZM101.945 237.703V237.867C101.945 238.289 101.987 238.685 102.07 239.055C102.159 239.424 102.292 239.75 102.469 240.031C102.651 240.312 102.883 240.534 103.164 240.695C103.445 240.852 103.781 240.93 104.172 240.93C104.651 240.93 105.047 240.828 105.359 240.625C105.672 240.422 105.919 240.154 106.102 239.82C106.289 239.487 106.435 239.125 106.539 238.734V236.852C106.482 236.565 106.393 236.289 106.273 236.023C106.159 235.753 106.008 235.513 105.82 235.305C105.638 235.091 105.411 234.922 105.141 234.797C104.87 234.672 104.552 234.609 104.188 234.609C103.792 234.609 103.451 234.693 103.164 234.859C102.883 235.021 102.651 235.245 102.469 235.531C102.292 235.812 102.159 236.141 102.07 236.516C101.987 236.885 101.945 237.281 101.945 237.703ZM113.414 237.867V237.688C113.414 237.078 113.503 236.513 113.68 235.992C113.857 235.466 114.112 235.01 114.445 234.625C114.779 234.234 115.182 233.932 115.656 233.719C116.13 233.5 116.661 233.391 117.25 233.391C117.844 233.391 118.378 233.5 118.852 233.719C119.331 233.932 119.737 234.234 120.07 234.625C120.409 235.01 120.667 235.466 120.844 235.992C121.021 236.513 121.109 237.078 121.109 237.688V237.867C121.109 238.477 121.021 239.042 120.844 239.562C120.667 240.083 120.409 240.539 120.07 240.93C119.737 241.315 119.333 241.617 118.859 241.836C118.391 242.049 117.859 242.156 117.266 242.156C116.672 242.156 116.138 242.049 115.664 241.836C115.19 241.617 114.784 241.315 114.445 240.93C114.112 240.539 113.857 240.083 113.68 239.562C113.503 239.042 113.414 238.477 113.414 237.867ZM114.859 237.688V237.867C114.859 238.289 114.909 238.688 115.008 239.062C115.107 239.432 115.255 239.76 115.453 240.047C115.656 240.333 115.909 240.56 116.211 240.727C116.513 240.888 116.865 240.969 117.266 240.969C117.661 240.969 118.008 240.888 118.305 240.727C118.607 240.56 118.857 240.333 119.055 240.047C119.253 239.76 119.401 239.432 119.5 239.062C119.604 238.688 119.656 238.289 119.656 237.867V237.688C119.656 237.271 119.604 236.878 119.5 236.508C119.401 236.133 119.25 235.802 119.047 235.516C118.849 235.224 118.599 234.995 118.297 234.828C118 234.661 117.651 234.578 117.25 234.578C116.854 234.578 116.505 234.661 116.203 234.828C115.906 234.995 115.656 235.224 115.453 235.516C115.255 235.802 115.107 236.133 115.008 236.508C114.909 236.878 114.859 237.271 114.859 237.688ZM128.094 240.047V233.547H129.547V242H128.164L128.094 240.047ZM128.367 238.266L128.969 238.25C128.969 238.812 128.909 239.333 128.789 239.812C128.674 240.286 128.487 240.698 128.227 241.047C127.966 241.396 127.625 241.669 127.203 241.867C126.781 242.06 126.268 242.156 125.664 242.156C125.253 242.156 124.875 242.096 124.531 241.977C124.193 241.857 123.901 241.672 123.656 241.422C123.411 241.172 123.221 240.846 123.086 240.445C122.956 240.044 122.891 239.562 122.891 239V233.547H124.336V239.016C124.336 239.396 124.378 239.711 124.461 239.961C124.549 240.206 124.667 240.401 124.812 240.547C124.964 240.688 125.13 240.786 125.312 240.844C125.5 240.901 125.693 240.93 125.891 240.93C126.505 240.93 126.992 240.812 127.352 240.578C127.711 240.339 127.969 240.018 128.125 239.617C128.286 239.211 128.367 238.76 128.367 238.266ZM133.195 234.875V242H131.75V233.547H133.156L133.195 234.875ZM135.836 233.5L135.828 234.844C135.708 234.818 135.594 234.802 135.484 234.797C135.38 234.786 135.26 234.781 135.125 234.781C134.792 234.781 134.497 234.833 134.242 234.938C133.987 235.042 133.771 235.188 133.594 235.375C133.417 235.562 133.276 235.786 133.172 236.047C133.073 236.302 133.008 236.583 132.977 236.891L132.57 237.125C132.57 236.615 132.62 236.135 132.719 235.688C132.823 235.24 132.982 234.844 133.195 234.5C133.409 234.151 133.68 233.88 134.008 233.688C134.341 233.49 134.737 233.391 135.195 233.391C135.299 233.391 135.419 233.404 135.555 233.43C135.69 233.451 135.784 233.474 135.836 233.5ZM146.125 240.555V236.203C146.125 235.87 146.057 235.581 145.922 235.336C145.792 235.086 145.594 234.893 145.328 234.758C145.062 234.622 144.734 234.555 144.344 234.555C143.979 234.555 143.659 234.617 143.383 234.742C143.112 234.867 142.898 235.031 142.742 235.234C142.591 235.438 142.516 235.656 142.516 235.891H141.07C141.07 235.589 141.148 235.289 141.305 234.992C141.461 234.695 141.685 234.427 141.977 234.188C142.273 233.943 142.628 233.75 143.039 233.609C143.456 233.464 143.919 233.391 144.43 233.391C145.044 233.391 145.586 233.495 146.055 233.703C146.529 233.911 146.898 234.227 147.164 234.648C147.435 235.065 147.57 235.589 147.57 236.219V240.156C147.57 240.438 147.594 240.737 147.641 241.055C147.693 241.372 147.768 241.646 147.867 241.875V242H146.359C146.286 241.833 146.229 241.612 146.188 241.336C146.146 241.055 146.125 240.794 146.125 240.555ZM146.375 236.875L146.391 237.891H144.93C144.518 237.891 144.151 237.924 143.828 237.992C143.505 238.055 143.234 238.151 143.016 238.281C142.797 238.411 142.63 238.576 142.516 238.773C142.401 238.966 142.344 239.193 142.344 239.453C142.344 239.719 142.404 239.961 142.523 240.18C142.643 240.398 142.823 240.573 143.062 240.703C143.307 240.828 143.607 240.891 143.961 240.891C144.404 240.891 144.794 240.797 145.133 240.609C145.471 240.422 145.74 240.193 145.938 239.922C146.141 239.651 146.25 239.388 146.266 239.133L146.883 239.828C146.846 240.047 146.747 240.289 146.586 240.555C146.424 240.82 146.208 241.076 145.938 241.32C145.672 241.56 145.354 241.76 144.984 241.922C144.62 242.078 144.208 242.156 143.75 242.156C143.177 242.156 142.674 242.044 142.242 241.82C141.815 241.596 141.482 241.297 141.242 240.922C141.008 240.542 140.891 240.117 140.891 239.648C140.891 239.195 140.979 238.797 141.156 238.453C141.333 238.104 141.589 237.815 141.922 237.586C142.255 237.352 142.656 237.174 143.125 237.055C143.594 236.935 144.117 236.875 144.695 236.875H146.375ZM151.289 235.172V245.25H149.836V233.547H151.164L151.289 235.172ZM156.984 237.703V237.867C156.984 238.482 156.911 239.052 156.766 239.578C156.62 240.099 156.406 240.552 156.125 240.938C155.849 241.323 155.508 241.622 155.102 241.836C154.695 242.049 154.229 242.156 153.703 242.156C153.167 242.156 152.693 242.068 152.281 241.891C151.87 241.714 151.521 241.456 151.234 241.117C150.948 240.779 150.719 240.372 150.547 239.898C150.38 239.424 150.266 238.891 150.203 238.297V237.422C150.266 236.797 150.383 236.237 150.555 235.742C150.727 235.247 150.953 234.826 151.234 234.477C151.521 234.122 151.867 233.854 152.273 233.672C152.68 233.484 153.148 233.391 153.68 233.391C154.211 233.391 154.682 233.495 155.094 233.703C155.505 233.906 155.852 234.198 156.133 234.578C156.414 234.958 156.625 235.414 156.766 235.945C156.911 236.471 156.984 237.057 156.984 237.703ZM155.531 237.867V237.703C155.531 237.281 155.487 236.885 155.398 236.516C155.31 236.141 155.172 235.812 154.984 235.531C154.802 235.245 154.568 235.021 154.281 234.859C153.995 234.693 153.654 234.609 153.258 234.609C152.893 234.609 152.576 234.672 152.305 234.797C152.039 234.922 151.812 235.091 151.625 235.305C151.438 235.513 151.284 235.753 151.164 236.023C151.049 236.289 150.964 236.565 150.906 236.852V238.875C151.01 239.24 151.156 239.583 151.344 239.906C151.531 240.224 151.781 240.482 152.094 240.68C152.406 240.872 152.799 240.969 153.273 240.969C153.664 240.969 154 240.888 154.281 240.727C154.568 240.56 154.802 240.333 154.984 240.047C155.172 239.76 155.31 239.432 155.398 239.062C155.487 238.688 155.531 238.289 155.531 237.867ZM160.273 235.172V245.25H158.82V233.547H160.148L160.273 235.172ZM165.969 237.703V237.867C165.969 238.482 165.896 239.052 165.75 239.578C165.604 240.099 165.391 240.552 165.109 240.938C164.833 241.323 164.492 241.622 164.086 241.836C163.68 242.049 163.214 242.156 162.688 242.156C162.151 242.156 161.677 242.068 161.266 241.891C160.854 241.714 160.505 241.456 160.219 241.117C159.932 240.779 159.703 240.372 159.531 239.898C159.365 239.424 159.25 238.891 159.188 238.297V237.422C159.25 236.797 159.367 236.237 159.539 235.742C159.711 235.247 159.938 234.826 160.219 234.477C160.505 234.122 160.852 233.854 161.258 233.672C161.664 233.484 162.133 233.391 162.664 233.391C163.195 233.391 163.667 233.495 164.078 233.703C164.49 233.906 164.836 234.198 165.117 234.578C165.398 234.958 165.609 235.414 165.75 235.945C165.896 236.471 165.969 237.057 165.969 237.703ZM164.516 237.867V237.703C164.516 237.281 164.471 236.885 164.383 236.516C164.294 236.141 164.156 235.812 163.969 235.531C163.786 235.245 163.552 235.021 163.266 234.859C162.979 234.693 162.638 234.609 162.242 234.609C161.878 234.609 161.56 234.672 161.289 234.797C161.023 234.922 160.797 235.091 160.609 235.305C160.422 235.513 160.268 235.753 160.148 236.023C160.034 236.289 159.948 236.565 159.891 236.852V238.875C159.995 239.24 160.141 239.583 160.328 239.906C160.516 240.224 160.766 240.482 161.078 240.68C161.391 240.872 161.784 240.969 162.258 240.969C162.648 240.969 162.984 240.888 163.266 240.727C163.552 240.56 163.786 240.333 163.969 240.047C164.156 239.76 164.294 239.432 164.383 239.062C164.471 238.688 164.516 238.289 164.516 237.867ZM176.766 240.555V236.203C176.766 235.87 176.698 235.581 176.562 235.336C176.432 235.086 176.234 234.893 175.969 234.758C175.703 234.622 175.375 234.555 174.984 234.555C174.62 234.555 174.299 234.617 174.023 234.742C173.753 234.867 173.539 235.031 173.383 235.234C173.232 235.438 173.156 235.656 173.156 235.891H171.711C171.711 235.589 171.789 235.289 171.945 234.992C172.102 234.695 172.326 234.427 172.617 234.188C172.914 233.943 173.268 233.75 173.68 233.609C174.096 233.464 174.56 233.391 175.07 233.391C175.685 233.391 176.227 233.495 176.695 233.703C177.169 233.911 177.539 234.227 177.805 234.648C178.076 235.065 178.211 235.589 178.211 236.219V240.156C178.211 240.438 178.234 240.737 178.281 241.055C178.333 241.372 178.409 241.646 178.508 241.875V242H177C176.927 241.833 176.87 241.612 176.828 241.336C176.786 241.055 176.766 240.794 176.766 240.555ZM177.016 236.875L177.031 237.891H175.57C175.159 237.891 174.792 237.924 174.469 237.992C174.146 238.055 173.875 238.151 173.656 238.281C173.438 238.411 173.271 238.576 173.156 238.773C173.042 238.966 172.984 239.193 172.984 239.453C172.984 239.719 173.044 239.961 173.164 240.18C173.284 240.398 173.464 240.573 173.703 240.703C173.948 240.828 174.247 240.891 174.602 240.891C175.044 240.891 175.435 240.797 175.773 240.609C176.112 240.422 176.38 240.193 176.578 239.922C176.781 239.651 176.891 239.388 176.906 239.133L177.523 239.828C177.487 240.047 177.388 240.289 177.227 240.555C177.065 240.82 176.849 241.076 176.578 241.32C176.312 241.56 175.995 241.76 175.625 241.922C175.26 242.078 174.849 242.156 174.391 242.156C173.818 242.156 173.315 242.044 172.883 241.82C172.456 241.596 172.122 241.297 171.883 240.922C171.648 240.542 171.531 240.117 171.531 239.648C171.531 239.195 171.62 238.797 171.797 238.453C171.974 238.104 172.229 237.815 172.562 237.586C172.896 237.352 173.297 237.174 173.766 237.055C174.234 236.935 174.758 236.875 175.336 236.875H177.016ZM44.8984 254V266H43.4453V254H44.8984ZM50.7266 266.156C50.138 266.156 49.6042 266.057 49.125 265.859C48.651 265.656 48.2422 265.372 47.8984 265.008C47.5599 264.643 47.2995 264.211 47.1172 263.711C46.9349 263.211 46.8438 262.664 46.8438 262.07V261.742C46.8438 261.055 46.9453 260.443 47.1484 259.906C47.3516 259.365 47.6276 258.906 47.9766 258.531C48.3255 258.156 48.7214 257.872 49.1641 257.68C49.6068 257.487 50.0651 257.391 50.5391 257.391C51.1432 257.391 51.6641 257.495 52.1016 257.703C52.5443 257.911 52.9062 258.203 53.1875 258.578C53.4688 258.948 53.6771 259.385 53.8125 259.891C53.9479 260.391 54.0156 260.938 54.0156 261.531V262.18H47.7031V261H52.5703V260.891C52.5495 260.516 52.4714 260.151 52.3359 259.797C52.2057 259.443 51.9974 259.151 51.7109 258.922C51.4245 258.693 51.0339 258.578 50.5391 258.578C50.2109 258.578 49.9089 258.648 49.6328 258.789C49.3568 258.924 49.1198 259.128 48.9219 259.398C48.724 259.669 48.5703 260 48.4609 260.391C48.3516 260.781 48.2969 261.232 48.2969 261.742V262.07C48.2969 262.471 48.3516 262.849 48.4609 263.203C48.5755 263.552 48.7396 263.859 48.9531 264.125C49.1719 264.391 49.4349 264.599 49.7422 264.75C50.0547 264.901 50.4089 264.977 50.8047 264.977C51.3151 264.977 51.7474 264.872 52.1016 264.664C52.4557 264.456 52.7656 264.177 53.0312 263.828L53.9062 264.523C53.724 264.799 53.4922 265.062 53.2109 265.312C52.9297 265.562 52.5833 265.766 52.1719 265.922C51.7656 266.078 51.2839 266.156 50.7266 266.156ZM60.6875 264.555V260.203C60.6875 259.87 60.6198 259.581 60.4844 259.336C60.3542 259.086 60.1562 258.893 59.8906 258.758C59.625 258.622 59.2969 258.555 58.9062 258.555C58.5417 258.555 58.2214 258.617 57.9453 258.742C57.6745 258.867 57.4609 259.031 57.3047 259.234C57.1536 259.438 57.0781 259.656 57.0781 259.891H55.6328C55.6328 259.589 55.7109 259.289 55.8672 258.992C56.0234 258.695 56.2474 258.427 56.5391 258.188C56.8359 257.943 57.1901 257.75 57.6016 257.609C58.0182 257.464 58.4818 257.391 58.9922 257.391C59.6068 257.391 60.1484 257.495 60.6172 257.703C61.0911 257.911 61.4609 258.227 61.7266 258.648C61.9974 259.065 62.1328 259.589 62.1328 260.219V264.156C62.1328 264.438 62.1562 264.737 62.2031 265.055C62.2552 265.372 62.3307 265.646 62.4297 265.875V266H60.9219C60.849 265.833 60.7917 265.612 60.75 265.336C60.7083 265.055 60.6875 264.794 60.6875 264.555ZM60.9375 260.875L60.9531 261.891H59.4922C59.0807 261.891 58.7135 261.924 58.3906 261.992C58.0677 262.055 57.7969 262.151 57.5781 262.281C57.3594 262.411 57.1927 262.576 57.0781 262.773C56.9635 262.966 56.9062 263.193 56.9062 263.453C56.9062 263.719 56.9661 263.961 57.0859 264.18C57.2057 264.398 57.3854 264.573 57.625 264.703C57.8698 264.828 58.1693 264.891 58.5234 264.891C58.9661 264.891 59.3568 264.797 59.6953 264.609C60.0339 264.422 60.3021 264.193 60.5 263.922C60.7031 263.651 60.8125 263.388 60.8281 263.133L61.4453 263.828C61.4089 264.047 61.3099 264.289 61.1484 264.555C60.987 264.82 60.7708 265.076 60.5 265.32C60.2344 265.56 59.9167 265.76 59.5469 265.922C59.1823 266.078 58.7708 266.156 58.3125 266.156C57.7396 266.156 57.237 266.044 56.8047 265.82C56.3776 265.596 56.0443 265.297 55.8047 264.922C55.5703 264.542 55.4531 264.117 55.4531 263.648C55.4531 263.195 55.5417 262.797 55.7188 262.453C55.8958 262.104 56.151 261.815 56.4844 261.586C56.8177 261.352 57.2188 261.174 57.6875 261.055C58.1562 260.935 58.6797 260.875 59.2578 260.875H60.9375ZM69.7344 264.359V254H71.1875V266H69.8594L69.7344 264.359ZM64.0469 261.867V261.703C64.0469 261.057 64.125 260.471 64.2812 259.945C64.4427 259.414 64.6693 258.958 64.9609 258.578C65.2578 258.198 65.6094 257.906 66.0156 257.703C66.4271 257.495 66.8854 257.391 67.3906 257.391C67.9219 257.391 68.3854 257.484 68.7812 257.672C69.1823 257.854 69.5208 258.122 69.7969 258.477C70.0781 258.826 70.2995 259.247 70.4609 259.742C70.6224 260.237 70.7344 260.797 70.7969 261.422V262.141C70.7396 262.76 70.6276 263.318 70.4609 263.812C70.2995 264.307 70.0781 264.729 69.7969 265.078C69.5208 265.427 69.1823 265.695 68.7812 265.883C68.3802 266.065 67.9115 266.156 67.375 266.156C66.8802 266.156 66.4271 266.049 66.0156 265.836C65.6094 265.622 65.2578 265.323 64.9609 264.938C64.6693 264.552 64.4427 264.099 64.2812 263.578C64.125 263.052 64.0469 262.482 64.0469 261.867ZM65.5 261.703V261.867C65.5 262.289 65.5417 262.685 65.625 263.055C65.7135 263.424 65.849 263.75 66.0312 264.031C66.2135 264.312 66.4453 264.534 66.7266 264.695C67.0078 264.852 67.3438 264.93 67.7344 264.93C68.2135 264.93 68.6068 264.828 68.9141 264.625C69.2266 264.422 69.4766 264.154 69.6641 263.82C69.8516 263.487 69.9974 263.125 70.1016 262.734V260.852C70.0391 260.565 69.9479 260.289 69.8281 260.023C69.7135 259.753 69.5625 259.513 69.375 259.305C69.1927 259.091 68.9661 258.922 68.6953 258.797C68.4297 258.672 68.1146 258.609 67.75 258.609C67.3542 258.609 67.013 258.693 66.7266 258.859C66.4453 259.021 66.2135 259.245 66.0312 259.531C65.849 259.812 65.7135 260.141 65.625 260.516C65.5417 260.885 65.5 261.281 65.5 261.703ZM76.9453 266.156C76.3568 266.156 75.8229 266.057 75.3438 265.859C74.8698 265.656 74.4609 265.372 74.1172 265.008C73.7786 264.643 73.5182 264.211 73.3359 263.711C73.1536 263.211 73.0625 262.664 73.0625 262.07V261.742C73.0625 261.055 73.1641 260.443 73.3672 259.906C73.5703 259.365 73.8464 258.906 74.1953 258.531C74.5443 258.156 74.9401 257.872 75.3828 257.68C75.8255 257.487 76.2839 257.391 76.7578 257.391C77.362 257.391 77.8828 257.495 78.3203 257.703C78.763 257.911 79.125 258.203 79.4062 258.578C79.6875 258.948 79.8958 259.385 80.0312 259.891C80.1667 260.391 80.2344 260.938 80.2344 261.531V262.18H73.9219V261H78.7891V260.891C78.7682 260.516 78.6901 260.151 78.5547 259.797C78.4245 259.443 78.2161 259.151 77.9297 258.922C77.6432 258.693 77.2526 258.578 76.7578 258.578C76.4297 258.578 76.1276 258.648 75.8516 258.789C75.5755 258.924 75.3385 259.128 75.1406 259.398C74.9427 259.669 74.7891 260 74.6797 260.391C74.5703 260.781 74.5156 261.232 74.5156 261.742V262.07C74.5156 262.471 74.5703 262.849 74.6797 263.203C74.7943 263.552 74.9583 263.859 75.1719 264.125C75.3906 264.391 75.6536 264.599 75.9609 264.75C76.2734 264.901 76.6276 264.977 77.0234 264.977C77.5339 264.977 77.9661 264.872 78.3203 264.664C78.6745 264.456 78.9844 264.177 79.25 263.828L80.125 264.523C79.9427 264.799 79.7109 265.062 79.4297 265.312C79.1484 265.562 78.8021 265.766 78.3906 265.922C77.9844 266.078 77.5026 266.156 76.9453 266.156ZM83.3672 258.875V266H81.9219V257.547H83.3281L83.3672 258.875ZM86.0078 257.5L86 258.844C85.8802 258.818 85.7656 258.802 85.6562 258.797C85.5521 258.786 85.4323 258.781 85.2969 258.781C84.9635 258.781 84.6693 258.833 84.4141 258.938C84.1589 259.042 83.9427 259.188 83.7656 259.375C83.5885 259.562 83.4479 259.786 83.3438 260.047C83.2448 260.302 83.1797 260.583 83.1484 260.891L82.7422 261.125C82.7422 260.615 82.7917 260.135 82.8906 259.688C82.9948 259.24 83.1536 258.844 83.3672 258.5C83.5807 258.151 83.8516 257.88 84.1797 257.688C84.513 257.49 84.9089 257.391 85.3672 257.391C85.4714 257.391 85.5911 257.404 85.7266 257.43C85.862 257.451 85.9557 257.474 86.0078 257.5ZM92.8828 257.547V266H91.4297V257.547H92.8828ZM91.3203 255.305C91.3203 255.07 91.3906 254.872 91.5312 254.711C91.6771 254.549 91.8906 254.469 92.1719 254.469C92.4479 254.469 92.6589 254.549 92.8047 254.711C92.9557 254.872 93.0312 255.07 93.0312 255.305C93.0312 255.529 92.9557 255.721 92.8047 255.883C92.6589 256.039 92.4479 256.117 92.1719 256.117C91.8906 256.117 91.6771 256.039 91.5312 255.883C91.3906 255.721 91.3203 255.529 91.3203 255.305ZM96.6484 259.352V266H95.2031V257.547H96.5703L96.6484 259.352ZM96.3047 261.453L95.7031 261.43C95.7083 260.852 95.7943 260.318 95.9609 259.828C96.1276 259.333 96.362 258.904 96.6641 258.539C96.9661 258.174 97.3255 257.893 97.7422 257.695C98.1641 257.492 98.6302 257.391 99.1406 257.391C99.5573 257.391 99.9323 257.448 100.266 257.562C100.599 257.672 100.883 257.849 101.117 258.094C101.357 258.339 101.539 258.656 101.664 259.047C101.789 259.432 101.852 259.904 101.852 260.461V266H100.398V260.445C100.398 260.003 100.333 259.648 100.203 259.383C100.073 259.112 99.8828 258.917 99.6328 258.797C99.3828 258.672 99.0755 258.609 98.7109 258.609C98.3516 258.609 98.0234 258.685 97.7266 258.836C97.4349 258.987 97.1823 259.195 96.9688 259.461C96.7604 259.727 96.5964 260.031 96.4766 260.375C96.362 260.714 96.3047 261.073 96.3047 261.453ZM109.586 257.547V266H108.133V257.547H109.586ZM108.023 255.305C108.023 255.07 108.094 254.872 108.234 254.711C108.38 254.549 108.594 254.469 108.875 254.469C109.151 254.469 109.362 254.549 109.508 254.711C109.659 254.872 109.734 255.07 109.734 255.305C109.734 255.529 109.659 255.721 109.508 255.883C109.362 256.039 109.151 256.117 108.875 256.117C108.594 256.117 108.38 256.039 108.234 255.883C108.094 255.721 108.023 255.529 108.023 255.305ZM115.445 257.547V258.656H110.875V257.547H115.445ZM112.422 255.492H113.867V263.906C113.867 264.193 113.911 264.409 114 264.555C114.089 264.701 114.203 264.797 114.344 264.844C114.484 264.891 114.635 264.914 114.797 264.914C114.917 264.914 115.042 264.904 115.172 264.883C115.307 264.857 115.409 264.836 115.477 264.82L115.484 266C115.37 266.036 115.219 266.07 115.031 266.102C114.849 266.138 114.628 266.156 114.367 266.156C114.013 266.156 113.688 266.086 113.391 265.945C113.094 265.805 112.857 265.57 112.68 265.242C112.508 264.909 112.422 264.461 112.422 263.898V255.492ZM122.062 263.758C122.062 263.549 122.016 263.357 121.922 263.18C121.833 262.997 121.648 262.833 121.367 262.688C121.091 262.536 120.674 262.406 120.117 262.297C119.648 262.198 119.224 262.081 118.844 261.945C118.469 261.81 118.148 261.646 117.883 261.453C117.622 261.26 117.422 261.034 117.281 260.773C117.141 260.513 117.07 260.208 117.07 259.859C117.07 259.526 117.143 259.211 117.289 258.914C117.44 258.617 117.651 258.354 117.922 258.125C118.198 257.896 118.529 257.716 118.914 257.586C119.299 257.456 119.729 257.391 120.203 257.391C120.88 257.391 121.458 257.51 121.938 257.75C122.417 257.99 122.784 258.31 123.039 258.711C123.294 259.107 123.422 259.547 123.422 260.031H121.977C121.977 259.797 121.906 259.57 121.766 259.352C121.63 259.128 121.43 258.943 121.164 258.797C120.904 258.651 120.583 258.578 120.203 258.578C119.802 258.578 119.477 258.641 119.227 258.766C118.982 258.885 118.802 259.039 118.688 259.227C118.578 259.414 118.523 259.612 118.523 259.82C118.523 259.977 118.549 260.117 118.602 260.242C118.659 260.362 118.758 260.474 118.898 260.578C119.039 260.677 119.237 260.771 119.492 260.859C119.747 260.948 120.073 261.036 120.469 261.125C121.161 261.281 121.732 261.469 122.18 261.688C122.628 261.906 122.961 262.174 123.18 262.492C123.398 262.81 123.508 263.195 123.508 263.648C123.508 264.018 123.43 264.357 123.273 264.664C123.122 264.971 122.901 265.237 122.609 265.461C122.323 265.68 121.979 265.852 121.578 265.977C121.182 266.096 120.737 266.156 120.242 266.156C119.497 266.156 118.867 266.023 118.352 265.758C117.836 265.492 117.445 265.148 117.18 264.727C116.914 264.305 116.781 263.859 116.781 263.391H118.234C118.255 263.786 118.37 264.102 118.578 264.336C118.786 264.565 119.042 264.729 119.344 264.828C119.646 264.922 119.945 264.969 120.242 264.969C120.638 264.969 120.969 264.917 121.234 264.812C121.505 264.708 121.711 264.565 121.852 264.383C121.992 264.201 122.062 263.992 122.062 263.758ZM131.305 266H129.859V256.812C129.859 256.172 129.984 255.63 130.234 255.188C130.484 254.745 130.841 254.409 131.305 254.18C131.768 253.951 132.318 253.836 132.953 253.836C133.328 253.836 133.695 253.883 134.055 253.977C134.414 254.065 134.784 254.177 135.164 254.312L134.922 255.531C134.682 255.438 134.404 255.349 134.086 255.266C133.773 255.177 133.43 255.133 133.055 255.133C132.435 255.133 131.987 255.273 131.711 255.555C131.44 255.831 131.305 256.25 131.305 256.812V266ZM133.031 257.547V258.656H128.523V257.547H133.031ZM135.875 257.547V266H134.43V257.547H135.875ZM141.758 266.156C141.169 266.156 140.635 266.057 140.156 265.859C139.682 265.656 139.273 265.372 138.93 265.008C138.591 264.643 138.331 264.211 138.148 263.711C137.966 263.211 137.875 262.664 137.875 262.07V261.742C137.875 261.055 137.977 260.443 138.18 259.906C138.383 259.365 138.659 258.906 139.008 258.531C139.357 258.156 139.753 257.872 140.195 257.68C140.638 257.487 141.096 257.391 141.57 257.391C142.174 257.391 142.695 257.495 143.133 257.703C143.576 257.911 143.938 258.203 144.219 258.578C144.5 258.948 144.708 259.385 144.844 259.891C144.979 260.391 145.047 260.938 145.047 261.531V262.18H138.734V261H143.602V260.891C143.581 260.516 143.503 260.151 143.367 259.797C143.237 259.443 143.029 259.151 142.742 258.922C142.456 258.693 142.065 258.578 141.57 258.578C141.242 258.578 140.94 258.648 140.664 258.789C140.388 258.924 140.151 259.128 139.953 259.398C139.755 259.669 139.602 260 139.492 260.391C139.383 260.781 139.328 261.232 139.328 261.742V262.07C139.328 262.471 139.383 262.849 139.492 263.203C139.607 263.552 139.771 263.859 139.984 264.125C140.203 264.391 140.466 264.599 140.773 264.75C141.086 264.901 141.44 264.977 141.836 264.977C142.346 264.977 142.779 264.872 143.133 264.664C143.487 264.456 143.797 264.177 144.062 263.828L144.938 264.523C144.755 264.799 144.523 265.062 144.242 265.312C143.961 265.562 143.615 265.766 143.203 265.922C142.797 266.078 142.315 266.156 141.758 266.156ZM148.305 254V266H146.852V254H148.305ZM155.953 264.359V254H157.406V266H156.078L155.953 264.359ZM150.266 261.867V261.703C150.266 261.057 150.344 260.471 150.5 259.945C150.661 259.414 150.888 258.958 151.18 258.578C151.477 258.198 151.828 257.906 152.234 257.703C152.646 257.495 153.104 257.391 153.609 257.391C154.141 257.391 154.604 257.484 155 257.672C155.401 257.854 155.74 258.122 156.016 258.477C156.297 258.826 156.518 259.247 156.68 259.742C156.841 260.237 156.953 260.797 157.016 261.422V262.141C156.958 262.76 156.846 263.318 156.68 263.812C156.518 264.307 156.297 264.729 156.016 265.078C155.74 265.427 155.401 265.695 155 265.883C154.599 266.065 154.13 266.156 153.594 266.156C153.099 266.156 152.646 266.049 152.234 265.836C151.828 265.622 151.477 265.323 151.18 264.938C150.888 264.552 150.661 264.099 150.5 263.578C150.344 263.052 150.266 262.482 150.266 261.867ZM151.719 261.703V261.867C151.719 262.289 151.76 262.685 151.844 263.055C151.932 263.424 152.068 263.75 152.25 264.031C152.432 264.312 152.664 264.534 152.945 264.695C153.227 264.852 153.562 264.93 153.953 264.93C154.432 264.93 154.826 264.828 155.133 264.625C155.445 264.422 155.695 264.154 155.883 263.82C156.07 263.487 156.216 263.125 156.32 262.734V260.852C156.258 260.565 156.167 260.289 156.047 260.023C155.932 259.753 155.781 259.513 155.594 259.305C155.411 259.091 155.185 258.922 154.914 258.797C154.648 258.672 154.333 258.609 153.969 258.609C153.573 258.609 153.232 258.693 152.945 258.859C152.664 259.021 152.432 259.245 152.25 259.531C152.068 259.812 151.932 260.141 151.844 260.516C151.76 260.885 151.719 261.281 151.719 261.703ZM159.68 265.234C159.68 264.99 159.755 264.784 159.906 264.617C160.062 264.445 160.286 264.359 160.578 264.359C160.87 264.359 161.091 264.445 161.242 264.617C161.398 264.784 161.477 264.99 161.477 265.234C161.477 265.474 161.398 265.677 161.242 265.844C161.091 266.01 160.87 266.094 160.578 266.094C160.286 266.094 160.062 266.01 159.906 265.844C159.755 265.677 159.68 265.474 159.68 265.234Z" fill="#2A394E"/>
<path d="M47.8673 188H44.6273V170.648H47.8673V188ZM53.8688 177.2C54.1168 176.952 54.3768 176.724 54.6488 176.516C54.9288 176.3 55.2208 176.12 55.5248 175.976C55.8368 175.824 56.1688 175.708 56.5208 175.628C56.8728 175.54 57.2568 175.496 57.6728 175.496C58.3448 175.496 58.9408 175.612 59.4608 175.844C59.9808 176.068 60.4128 176.388 60.7568 176.804C61.1088 177.212 61.3728 177.704 61.5488 178.28C61.7328 178.848 61.8248 179.476 61.8248 180.164V188H58.8608V180.164C58.8608 179.412 58.6888 178.832 58.3448 178.424C58.0008 178.008 57.4768 177.8 56.7728 177.8C56.2608 177.8 55.7808 177.916 55.3328 178.148C54.8848 178.38 54.4608 178.696 54.0608 179.096V188H51.0968V175.688H52.9088C53.2928 175.688 53.5448 175.868 53.6648 176.228L53.8688 177.2ZM67.4157 177.2C67.6637 176.952 67.9237 176.724 68.1957 176.516C68.4757 176.3 68.7677 176.12 69.0717 175.976C69.3837 175.824 69.7157 175.708 70.0677 175.628C70.4197 175.54 70.8037 175.496 71.2197 175.496C71.8917 175.496 72.4877 175.612 73.0077 175.844C73.5277 176.068 73.9597 176.388 74.3037 176.804C74.6557 177.212 74.9197 177.704 75.0957 178.28C75.2797 178.848 75.3717 179.476 75.3717 180.164V188H72.4077V180.164C72.4077 179.412 72.2357 178.832 71.8917 178.424C71.5477 178.008 71.0237 177.8 70.3197 177.8C69.8077 177.8 69.3277 177.916 68.8797 178.148C68.4317 178.38 68.0077 178.696 67.6077 179.096V188H64.6437V175.688H66.4557C66.8397 175.688 67.0917 175.868 67.2117 176.228L67.4157 177.2ZM83.6386 175.496C84.5506 175.496 85.3786 175.644 86.1226 175.94C86.8746 176.236 87.5146 176.656 88.0426 177.2C88.5786 177.744 88.9906 178.408 89.2786 179.192C89.5666 179.976 89.7106 180.852 89.7106 181.82C89.7106 182.796 89.5666 183.676 89.2786 184.46C88.9906 185.244 88.5786 185.912 88.0426 186.464C87.5146 187.016 86.8746 187.44 86.1226 187.736C85.3786 188.032 84.5506 188.18 83.6386 188.18C82.7186 188.18 81.8826 188.032 81.1306 187.736C80.3786 187.44 79.7346 187.016 79.1986 186.464C78.6706 185.912 78.2586 185.244 77.9626 184.46C77.6746 183.676 77.5306 182.796 77.5306 181.82C77.5306 180.852 77.6746 179.976 77.9626 179.192C78.2586 178.408 78.6706 177.744 79.1986 177.2C79.7346 176.656 80.3786 176.236 81.1306 175.94C81.8826 175.644 82.7186 175.496 83.6386 175.496ZM83.6386 185.9C84.6626 185.9 85.4186 185.556 85.9066 184.868C86.4026 184.18 86.6506 183.172 86.6506 181.844C86.6506 180.516 86.4026 179.504 85.9066 178.808C85.4186 178.112 84.6626 177.764 83.6386 177.764C82.5986 177.764 81.8266 178.116 81.3226 178.82C80.8266 179.516 80.5786 180.524 80.5786 181.844C80.5786 183.164 80.8266 184.172 81.3226 184.868C81.8266 185.556 82.5986 185.9 83.6386 185.9ZM102.697 175.688L97.8128 188H95.1248L90.2408 175.688H92.6888C92.9128 175.688 93.0968 175.74 93.2408 175.844C93.3928 175.948 93.4928 176.08 93.5408 176.24L95.9168 182.816C96.0448 183.2 96.1568 183.576 96.2528 183.944C96.3488 184.312 96.4328 184.68 96.5048 185.048C96.5848 184.68 96.6728 184.312 96.7688 183.944C96.8648 183.576 96.9808 183.2 97.1168 182.816L99.5408 176.24C99.5968 176.08 99.6968 175.948 99.8408 175.844C99.9848 175.74 100.157 175.688 100.357 175.688H102.697ZM110.476 182.744C109.62 182.784 108.9 182.86 108.316 182.972C107.732 183.076 107.264 183.212 106.912 183.38C106.56 183.548 106.308 183.744 106.156 183.968C106.004 184.192 105.928 184.436 105.928 184.7C105.928 185.22 106.08 185.592 106.384 185.816C106.696 186.04 107.1 186.152 107.596 186.152C108.204 186.152 108.728 186.044 109.168 185.828C109.616 185.604 110.052 185.268 110.476 184.82V182.744ZM103.684 177.404C105.1 176.108 106.804 175.46 108.796 175.46C109.516 175.46 110.16 175.58 110.728 175.82C111.296 176.052 111.776 176.38 112.168 176.804C112.56 177.22 112.856 177.72 113.056 178.304C113.264 178.888 113.368 179.528 113.368 180.224V188H112.024C111.744 188 111.528 187.96 111.376 187.88C111.224 187.792 111.104 187.62 111.016 187.364L110.752 186.476C110.44 186.756 110.136 187.004 109.84 187.22C109.544 187.428 109.236 187.604 108.916 187.748C108.596 187.892 108.252 188 107.884 188.072C107.524 188.152 107.124 188.192 106.684 188.192C106.164 188.192 105.684 188.124 105.244 187.988C104.804 187.844 104.424 187.632 104.104 187.352C103.784 187.072 103.536 186.724 103.36 186.308C103.184 185.892 103.096 185.408 103.096 184.856C103.096 184.544 103.148 184.236 103.252 183.932C103.356 183.62 103.524 183.324 103.756 183.044C103.996 182.764 104.304 182.5 104.68 182.252C105.056 182.004 105.516 181.788 106.06 181.604C106.612 181.42 107.252 181.272 107.98 181.16C108.708 181.04 109.54 180.968 110.476 180.944V180.224C110.476 179.4 110.3 178.792 109.948 178.4C109.596 178 109.088 177.8 108.424 177.8C107.944 177.8 107.544 177.856 107.224 177.968C106.912 178.08 106.636 178.208 106.396 178.352C106.156 178.488 105.936 178.612 105.736 178.724C105.544 178.836 105.328 178.892 105.088 178.892C104.88 178.892 104.704 178.84 104.56 178.736C104.416 178.624 104.3 178.496 104.212 178.352L103.684 177.404ZM128.415 188H125.451V177.908H119.739V184.58C119.739 184.964 119.831 185.264 120.015 185.48C120.207 185.696 120.467 185.804 120.795 185.804C120.979 185.804 121.131 185.784 121.251 185.744C121.379 185.696 121.487 185.648 121.575 185.6C121.671 185.552 121.755 185.508 121.827 185.468C121.899 185.42 121.971 185.396 122.043 185.396C122.131 185.396 122.203 185.42 122.259 185.468C122.315 185.508 122.375 185.572 122.439 185.66L123.327 187.1C122.895 187.46 122.399 187.732 121.839 187.916C121.279 188.1 120.699 188.192 120.099 188.192C119.027 188.192 118.203 187.892 117.627 187.292C117.059 186.684 116.775 185.848 116.775 184.784V177.908H115.515C115.355 177.908 115.219 177.856 115.107 177.752C114.995 177.648 114.939 177.492 114.939 177.284V176.108L116.919 175.772L117.543 172.424C117.583 172.264 117.659 172.14 117.771 172.052C117.883 171.964 118.027 171.92 118.203 171.92H119.739V175.796H128.415V188ZM128.931 172.052C128.931 172.308 128.879 172.552 128.775 172.784C128.671 173.008 128.531 173.204 128.355 173.372C128.187 173.54 127.983 173.676 127.743 173.78C127.511 173.876 127.263 173.924 126.999 173.924C126.743 173.924 126.503 173.876 126.279 173.78C126.055 173.676 125.859 173.54 125.691 173.372C125.523 173.204 125.387 173.008 125.283 172.784C125.187 172.552 125.139 172.308 125.139 172.052C125.139 171.788 125.187 171.544 125.283 171.32C125.387 171.088 125.523 170.888 125.691 170.72C125.859 170.544 126.055 170.408 126.279 170.312C126.503 170.208 126.743 170.156 126.999 170.156C127.263 170.156 127.511 170.208 127.743 170.312C127.983 170.408 128.187 170.544 128.355 170.72C128.531 170.888 128.671 171.088 128.775 171.32C128.879 171.544 128.931 171.788 128.931 172.052ZM136.889 175.496C137.801 175.496 138.629 175.644 139.373 175.94C140.125 176.236 140.765 176.656 141.293 177.2C141.829 177.744 142.241 178.408 142.529 179.192C142.817 179.976 142.961 180.852 142.961 181.82C142.961 182.796 142.817 183.676 142.529 184.46C142.241 185.244 141.829 185.912 141.293 186.464C140.765 187.016 140.125 187.44 139.373 187.736C138.629 188.032 137.801 188.18 136.889 188.18C135.969 188.18 135.133 188.032 134.381 187.736C133.629 187.44 132.985 187.016 132.449 186.464C131.921 185.912 131.509 185.244 131.213 184.46C130.925 183.676 130.781 182.796 130.781 181.82C130.781 180.852 130.925 179.976 131.213 179.192C131.509 178.408 131.921 177.744 132.449 177.2C132.985 176.656 133.629 176.236 134.381 175.94C135.133 175.644 135.969 175.496 136.889 175.496ZM136.889 185.9C137.913 185.9 138.669 185.556 139.157 184.868C139.653 184.18 139.901 183.172 139.901 181.844C139.901 180.516 139.653 179.504 139.157 178.808C138.669 178.112 137.913 177.764 136.889 177.764C135.849 177.764 135.077 178.116 134.573 178.82C134.077 179.516 133.829 180.524 133.829 181.844C133.829 183.164 134.077 184.172 134.573 184.868C135.077 185.556 135.849 185.9 136.889 185.9ZM147.994 177.2C148.242 176.952 148.502 176.724 148.774 176.516C149.054 176.3 149.346 176.12 149.65 175.976C149.962 175.824 150.294 175.708 150.646 175.628C150.998 175.54 151.382 175.496 151.798 175.496C152.47 175.496 153.066 175.612 153.586 175.844C154.106 176.068 154.538 176.388 154.882 176.804C155.234 177.212 155.498 177.704 155.674 178.28C155.858 178.848 155.95 179.476 155.95 180.164V188H152.986V180.164C152.986 179.412 152.814 178.832 152.47 178.424C152.126 178.008 151.602 177.8 150.898 177.8C150.386 177.8 149.906 177.916 149.458 178.148C149.01 178.38 148.586 178.696 148.186 179.096V188H145.222V175.688H147.034C147.418 175.688 147.67 175.868 147.79 176.228L147.994 177.2Z" fill="#0B051D"/>
<g filter="url(#filter0_d_401_15656)">
<rect x="50" y="45" width="95" height="95" rx="18" fill="#F9F8F8" shape-rendering="crispEdges"/>
<path d="M105.755 93.8189C105.282 97.7606 102.7 99.3356 101.585 100.479C100.469 101.626 100.669 101.854 100.744 103.536C100.756 103.744 100.726 103.952 100.655 104.148C100.584 104.344 100.473 104.523 100.33 104.675C100.187 104.826 100.015 104.947 99.8233 105.03C99.6318 105.112 99.4255 105.154 99.217 105.154H94.787C94.5786 105.154 94.3723 105.112 94.1809 105.029C93.9895 104.947 93.8169 104.826 93.6738 104.674C93.5307 104.523 93.42 104.344 93.3487 104.148C93.2773 103.952 93.2467 103.744 93.2587 103.536C93.2587 101.886 93.412 101.502 92.4187 100.479C91.152 99.2122 88.172 97.4239 88.172 92.5056C88.1644 91.2839 88.41 90.0739 88.8932 88.9518C89.3765 87.8298 90.0869 86.82 90.9798 85.9861C91.8727 85.1523 92.9286 84.5124 94.081 84.1069C95.2335 83.7014 96.4574 83.539 97.6757 83.63C98.894 83.721 100.08 84.0634 101.16 84.6356C102.239 85.2078 103.188 85.9975 103.947 86.9547C104.706 87.9119 105.259 89.0161 105.57 90.1975C105.881 91.3789 105.944 92.6119 105.755 93.8189Z" fill="#F85252" stroke="#F85252" stroke-width="1.66667" stroke-linecap="round" stroke-linejoin="round"/>
<path d="M94.4349 105.061V107.581C94.4349 108.27 94.8182 108.835 95.2899 108.835H98.7116C99.1866 108.835 99.5682 108.268 99.5682 107.581V105.061M95.7016 87.4946C94.7175 87.495 93.7738 87.8862 93.0781 88.5823C92.3824 89.2783 91.9916 90.2221 91.9916 91.2062M109.222 92.8412H112.278M106.145 82.8212L108.313 80.6529M107.812 101.335L109.98 103.501M97.0016 76.9629V79.4346M85.7349 80.6512L87.8882 82.8212M84.0682 103.501L86.2216 101.335M84.7816 92.8412H81.7266" stroke="#F85252" stroke-width="1.66667" stroke-linecap="round" stroke-linejoin="round"/>
<path d="M95.71 87.002C94.7259 87.0024 93.7822 87.3936 93.0865 88.0897C92.3908 88.7857 92 89.7295 92 90.7136" stroke="white" stroke-width="1.66667" stroke-linecap="round" stroke-linejoin="round"/>
</g>
<defs>
<filter id="filter0_d_401_15656" x="0" y="0" width="195" height="195" filterUnits="userSpaceOnUse" color-interpolation-filters="sRGB">
<feFlood flood-opacity="0" result="BackgroundImageFix"/>
<feColorMatrix in="SourceAlpha" type="matrix" values="0 0 0 0 0 0 0 0 0 0 0 0 0 0 0 0 0 0 127 0" result="hardAlpha"/>
<feOffset dy="5"/>
<feGaussianBlur stdDeviation="25"/>
<feComposite in2="hardAlpha" operator="out"/>
<feColorMatrix type="matrix" values="0 0 0 0 0 0 0 0 0 0 0 0 0 0 0 0 0 0 0.08 0"/>
<feBlend mode="normal" in2="BackgroundImageFix" result="effect1_dropShadow_401_15656"/>
<feBlend mode="normal" in="SourceGraphic" in2="effect1_dropShadow_401_15656" result="shape"/>
</filter>
</defs>
</svg>
