<svg width="50" height="50" viewBox="0 0 50 50" fill="none" xmlns="http://www.w3.org/2000/svg">
<g clip-path="url(#clip0_401_17287)">
<path d="M25.0596 0.613281C24.6576 0.613281 24.2556 0.623132 23.8535 0.642832C23.4521 0.662533 23.0507 0.692083 22.6506 0.731485C22.2504 0.770886 21.8515 0.820137 21.4538 0.879239C21.0561 0.93834 20.6596 1.00729 20.265 1.08548C19.8709 1.16428 19.4782 1.25232 19.0885 1.35021C18.6982 1.44748 18.3103 1.5546 17.9255 1.67157C17.5407 1.78854 17.159 1.91475 16.7804 2.05019C16.4018 2.18563 16.0263 2.33031 15.655 2.48422C15.2832 2.63813 14.9156 2.80127 14.5524 2.97304C14.1886 3.1448 13.8297 3.3258 13.475 3.51542C13.1198 3.70504 12.7701 3.90327 12.4254 4.10951C12.08 4.31637 11.7408 4.53184 11.4065 4.75532C11.0716 4.9788 10.7428 5.21028 10.4202 5.44977C10.097 5.68925 9.77996 5.93674 9.46906 6.19162C9.15816 6.44711 8.85403 6.70937 8.55544 6.97964C8.25747 7.2499 7.96628 7.52694 7.68185 7.81137C7.39742 8.0958 7.12038 8.387 6.85012 8.68497C6.58046 8.98294 6.31758 9.28768 6.06271 9.59858C5.80722 9.90948 5.55973 10.2265 5.32024 10.5491C5.08076 10.8723 4.84928 11.2011 4.6258 11.5354C4.40232 11.8697 4.18746 12.2095 3.98061 12.5543C3.77375 12.8997 3.57551 13.2493 3.3859 13.6039C3.19628 13.9586 3.0159 14.3181 2.84352 14.6813C2.67175 15.0452 2.50861 15.4127 2.3547 15.7846C2.20079 16.1558 2.05611 16.5307 1.92067 16.9099C1.78523 17.2886 1.65902 17.6703 1.54205 18.055C1.42569 18.4398 1.31857 18.8277 1.22068 19.2174C1.1228 19.6077 1.03476 19.9999 0.956573 20.3945C0.87777 20.7891 0.809434 21.185 0.750332 21.5827C0.691231 21.981 0.641979 22.3799 0.602578 22.7801C0.563177 23.1803 0.533626 23.581 0.513926 23.9831C0.494225 24.3845 0.484375 24.7865 0.484375 25.1891C0.484375 25.5911 0.494225 25.9931 0.513926 26.3945C0.533626 26.7965 0.563177 27.1973 0.602578 27.5975C0.641979 27.9977 0.691231 28.3972 0.750332 28.7949C0.809434 29.1926 0.87777 29.5891 0.956573 29.9831C1.03476 30.3777 1.1228 30.7699 1.22068 31.1602C1.31857 31.5505 1.42569 31.9378 1.54205 32.3225C1.65902 32.7073 1.78523 33.0896 1.92067 33.4683C2.05611 33.8469 2.20079 34.2218 2.3547 34.5937C2.50861 34.9649 2.67175 35.3324 2.84352 35.6963C3.0159 36.0595 3.19628 36.419 3.3859 36.7736C3.57551 37.1283 3.77375 37.4779 3.98061 37.8233C4.18746 38.1681 4.40232 38.5079 4.6258 38.8422C4.84928 39.1765 5.08076 39.5052 5.32024 39.8285C5.55973 40.1517 5.80722 40.4687 6.06271 40.7796C6.31758 41.0905 6.58046 41.3947 6.85012 41.6926C7.12038 41.9906 7.39742 42.2818 7.68185 42.5662C7.96628 42.8506 8.25747 43.1277 8.55544 43.398C8.85403 43.6682 9.15816 43.9305 9.46906 44.186C9.77996 44.4409 10.097 44.6883 10.4202 44.9278C10.7428 45.1679 11.0716 45.3994 11.4065 45.6229C11.7408 45.8457 12.08 46.0612 12.4254 46.2681C12.7701 46.4749 13.1198 46.6732 13.475 46.8622C13.8297 47.0518 14.1886 47.2328 14.5524 47.4046C14.9156 47.5769 15.2832 47.7395 15.655 47.8934C16.0263 48.0473 16.4018 48.192 16.7804 48.328C17.159 48.4635 17.5407 48.5891 17.9255 48.706C18.3103 48.823 18.6982 48.9301 19.0885 49.028C19.4782 49.1253 19.8709 49.2139 20.265 49.2921C20.6596 49.3703 21.0561 49.4393 21.4538 49.4984C21.8515 49.5575 22.2504 49.6067 22.6506 49.6461C23.0507 49.6855 23.4521 49.7151 23.8535 49.7348C24.2556 49.7545 24.6576 49.7643 25.0596 49.7643C25.4616 49.7643 25.8636 49.7545 26.2656 49.7348C26.667 49.7151 27.0684 49.6855 27.4686 49.6461C27.8688 49.6067 28.2677 49.5575 28.6654 49.4984C29.0631 49.4393 29.4596 49.3703 29.8542 49.2921C30.2482 49.2139 30.641 49.1253 31.0307 49.028C31.421 48.9301 31.8089 48.823 32.1936 48.706C32.5784 48.5891 32.9601 48.4635 33.3387 48.328C33.7174 48.192 34.0929 48.0473 34.4641 47.8934C34.836 47.7395 35.2035 47.5769 35.5667 47.4046C35.9306 47.2328 36.2895 47.0518 36.6441 46.8622C36.9993 46.6732 37.349 46.4749 37.6938 46.2681C38.0386 46.0612 38.3784 45.8457 38.7127 45.6229C39.0476 45.3994 39.3763 45.1679 39.6989 44.9278C40.0222 44.6883 40.3392 44.4409 40.6501 44.186C40.961 43.9305 41.2651 43.6682 41.5637 43.398C41.8617 43.1277 42.1529 42.8506 42.4373 42.5662C42.7211 42.2818 42.9988 41.9906 43.269 41.6926C43.5387 41.3947 43.8016 41.0905 44.0565 40.7796C44.3119 40.4687 44.5594 40.1517 44.7989 39.8285C45.0384 39.5052 45.2699 39.1765 45.4934 38.8422C45.7168 38.5079 45.9317 38.1681 46.1386 37.8233C46.3454 37.4779 46.5436 37.1283 46.7333 36.7736C46.9229 36.419 47.1033 36.0595 47.2756 35.6963C47.4474 35.3324 47.6106 34.9649 47.7645 34.5937C47.9184 34.2218 48.0631 33.8469 48.1985 33.4683C48.3339 33.0896 48.4601 32.7073 48.5765 32.3225C48.6935 31.9378 48.8006 31.5505 48.8985 31.1602C48.9964 30.7699 49.0844 30.3777 49.1626 29.9831C49.2414 29.5891 49.3097 29.1926 49.3688 28.7949C49.4279 28.3972 49.4772 27.9977 49.5166 27.5975C49.556 27.1973 49.5855 26.7965 49.6052 26.3945C49.6249 25.9931 49.6348 25.5911 49.6348 25.1891C49.6348 24.7865 49.6249 24.3845 49.6052 23.9831C49.5855 23.581 49.556 23.1803 49.5166 22.7801C49.4772 22.3799 49.4279 21.981 49.3688 21.5827C49.3097 21.185 49.2414 20.7891 49.1626 20.3945C49.0844 19.9999 48.9964 19.6077 48.8985 19.2174C48.8006 18.8277 48.6935 18.4398 48.5765 18.055C48.4601 17.6703 48.3339 17.2886 48.1985 16.9099C48.0631 16.5307 47.9184 16.1558 47.7645 15.7846C47.6106 15.4127 47.4474 15.0452 47.2756 14.6813C47.1033 14.3181 46.9229 13.9586 46.7333 13.6039C46.5436 13.2493 46.3454 12.8997 46.1386 12.5543C45.9317 12.2095 45.7168 11.8697 45.4934 11.5354C45.2699 11.2011 45.0384 10.8723 44.7989 10.5491C44.5594 10.2265 44.3119 9.90948 44.0565 9.59858C43.8016 9.28768 43.5387 8.98294 43.269 8.68497C42.9988 8.387 42.7211 8.0958 42.4373 7.81137C42.1529 7.52694 41.8617 7.2499 41.5637 6.97964C41.2651 6.70937 40.961 6.44711 40.6501 6.19162C40.3392 5.93674 40.0222 5.68925 39.6989 5.44977C39.3763 5.21028 39.0476 4.9788 38.7127 4.75532C38.3784 4.53184 38.0386 4.31637 37.6938 4.10951C37.349 3.90327 36.9993 3.70504 36.6441 3.51542C36.2895 3.3258 35.9306 3.1448 35.5667 2.97304C35.2035 2.80127 34.836 2.63813 34.4641 2.48422C34.0929 2.33031 33.7174 2.18563 33.3387 2.05019C32.9601 1.91475 32.5784 1.78854 32.1936 1.67157C31.8089 1.5546 31.421 1.44748 31.0307 1.35021C30.641 1.25232 30.2482 1.16428 29.8542 1.08548C29.4596 1.00729 29.0631 0.93834 28.6654 0.879239C28.2677 0.820137 27.8688 0.770886 27.4686 0.731485C27.0684 0.692083 26.667 0.662533 26.2656 0.642832C25.8636 0.623132 25.4616 0.613281 25.0596 0.613281Z" fill="#63D285"/>
<mask id="mask0_401_17287" style="mask-type:luminance" maskUnits="userSpaceOnUse" x="1" y="1" width="48" height="48">
<path d="M1.42188 1.71094H48.7032V48.9923H1.42188V1.71094Z" fill="white"/>
</mask>
<g mask="url(#mask0_401_17287)">
<path d="M25.0625 48.9923C12.0017 48.9923 1.42188 38.3398 1.42188 25.3516C1.42188 12.364 12.0017 1.71094 25.0625 1.71094C38.1234 1.71094 48.7032 12.2914 48.7032 25.3516C48.7032 38.4124 38.0501 48.9923 25.0625 48.9923ZM25.0625 3.17063C12.8045 3.17063 2.88095 13.0935 2.88095 25.3516C2.88095 37.6103 12.8045 47.5332 25.0625 47.5332C37.3206 47.5332 47.2441 37.6103 47.2441 25.3516C47.2441 13.0935 37.2479 3.17063 25.0625 3.17063Z" fill="white"/>
</g>
<path d="M35.0561 20.786C35.0561 23.4523 34.2693 25.5116 32.6969 26.9646C31.124 28.4175 28.8904 29.1439 25.9963 29.1439H24.1838V37.0635H17.7344V13.1914H25.9963C29.0105 13.1914 31.2736 13.8508 32.7856 15.1688C34.2988 16.4857 35.0561 18.3579 35.0561 20.786ZM24.1838 23.8863H25.3585C26.3269 23.8863 27.0971 23.6148 27.6684 23.0712C28.2397 22.5264 28.5254 21.7753 28.5254 20.818C28.5254 19.2062 27.6327 18.3997 25.8485 18.3997H24.1838V23.8863Z" fill="white"/>
<path d="M24.6953 5.35811V2.66406H25.4267V5.35811H24.6953Z" fill="white"/>
<path d="M45 25.6484H47.731V26.3897H45V25.6484Z" fill="white"/>
<path d="M25.4444 45.2969V48.0279H24.7031V45.2969H25.4444Z" fill="white"/>
<path d="M2.24219 24.8164H4.97318V25.5576H2.24219V24.8164Z" fill="white"/>
<path d="M40.6797 12.8661L42.7753 11.1152L43.2506 11.6841L41.155 13.435L40.6797 12.8661Z" fill="white"/>
<path d="M7.8125 39.5907L9.90815 37.8398L10.3834 38.4087L8.28778 40.1596L7.8125 39.5907Z" fill="white"/>
<path d="M41.0473 37.8652L43.2316 39.5053L42.7859 40.0988L40.6016 38.4587L41.0473 37.8652Z" fill="white"/>
<path d="M7.21916 11.1426L9.40346 12.7826L8.95774 13.3761L6.77344 11.7361L7.21916 11.1426Z" fill="white"/>
</g>
<defs>
<clipPath id="clip0_401_17287">
<rect width="50" height="50" fill="white"/>
</clipPath>
</defs>
</svg>
