<svg width="36" height="45" viewBox="0 0 36 45" fill="none" xmlns="http://www.w3.org/2000/svg">
<path d="M18 3.99609C14.287 3.99609 10.726 5.47109 8.1005 8.0966C5.475 10.7221 4 14.2831 4 17.9961C4 23.7201 7.564 29.2421 11.476 33.5201C13.4774 35.6983 15.6598 37.7028 18 39.5121C20.3401 37.7042 22.5226 35.701 24.524 33.5241C28.436 29.2421 32 23.7221 32 17.9961C32 14.2831 30.525 10.7221 27.8995 8.0966C25.274 5.47109 21.713 3.99609 18 3.99609ZM18 44.4241L16.866 43.6441L16.86 43.6401L16.848 43.6301L16.808 43.6021L16.658 43.4961C15.8299 42.8941 15.0202 42.2671 14.23 41.6161C12.2047 39.9524 10.2981 38.1493 8.524 36.2201C4.436 31.7481 0 25.2701 0 17.9961C7.11366e-08 13.2222 1.89642 8.64383 5.27208 5.26817C8.64773 1.89252 13.2261 -0.00390625 18 -0.00390625C22.7739 -0.00390625 27.3523 1.89252 30.7279 5.26817C34.1036 8.64383 36 13.2222 36 17.9961C36 25.2701 31.564 31.7501 27.476 36.2201C25.1597 38.7394 22.6185 41.0423 19.884 43.1001C19.6561 43.2703 19.4261 43.4377 19.194 43.6021L19.152 43.6301L19.14 43.6401L19.136 43.6421L18 44.4241ZM12 11.9961H21.272C22.16 11.9961 23.316 12.3161 24.282 13.1441C25.322 14.0381 26 15.4061 26 17.1961C26 18.9861 25.32 20.3541 24.28 21.2481C23.4422 21.9703 22.378 22.3764 21.272 22.3961H16V27.9961H12V11.9961ZM16 18.3961H21.272C21.4195 18.3733 21.5579 18.3104 21.672 18.2141C21.7588 18.1385 21.8272 18.0441 21.872 17.9381C21.9658 17.7024 22.0094 17.4496 22 17.1961C22.0098 16.9434 21.9669 16.6914 21.874 16.4561C21.8232 16.3335 21.741 16.2264 21.6356 16.1457C21.5303 16.065 21.4056 16.0134 21.274 15.9961H16V18.3961Z" fill="#FF514A"/>
</svg>
