<svg width="46" height="33" viewBox="0 0 46 33" fill="none" xmlns="http://www.w3.org/2000/svg">
<path d="M9.89609 29.9984C6.56276 29.8318 4.07943 29.1318 2.44609 27.8984C0.81276 26.6651 -0.00390625 24.8818 -0.00390625 22.5484C-0.00390625 20.3818 0.888094 18.6238 2.67209 17.2744C4.45609 15.9251 6.93076 15.1164 10.0961 14.8484C11.3961 14.7484 12.3714 14.5404 13.0221 14.2244C13.6728 13.9084 13.9974 13.4664 13.9961 12.8984C13.9961 12.0318 13.5048 11.3818 12.5221 10.9484C11.5394 10.5151 9.91409 10.1984 7.64609 9.99844L7.99609 5.99844C11.4294 6.26511 13.9548 6.95711 15.5721 8.07444C17.1894 9.19177 17.9974 10.7998 17.9961 12.8984C17.9961 14.6651 17.3548 16.0484 16.0721 17.0484C14.7894 18.0484 12.8974 18.6484 10.3961 18.8484C8.26276 19.0151 6.66276 19.4071 5.59609 20.0244C4.52943 20.6418 3.99609 21.4831 3.99609 22.5484C3.99609 23.7151 4.46276 24.5571 5.39609 25.0744C6.32943 25.5918 7.89609 25.8998 10.0961 25.9984L9.89609 29.9984ZM25.7461 28.4984L17.4961 20.2484L37.0961 0.648438L45.3961 8.89844L25.7461 28.4984ZM23.4461 30.3984L13.5461 32.4984L15.5461 22.4984L23.4461 30.3984Z" fill="#FF514A"/>
</svg>
