<svg width="24" height="24" viewBox="0 0 24 24" fill="none" xmlns="http://www.w3.org/2000/svg">
<path d="M12.0011 2C8.0071 2 4.75781 5.2493 4.75781 9.2432C4.75781 14.1998 11.2398 21.4763 11.5158 21.7836C11.775 22.0723 12.2276 22.0718 12.4864 21.7836C12.7623 21.4763 19.2443 14.1998 19.2443 9.2432C19.2442 5.2493 15.995 2 12.0011 2ZM12.0011 12.8875C9.99159 12.8875 8.35683 11.2527 8.35683 9.2432C8.35683 7.23375 9.99163 5.59898 12.0011 5.59898C14.0105 5.59898 15.6453 7.23379 15.6453 9.24324C15.6453 11.2527 14.0105 12.8875 12.0011 12.8875Z" fill="#14243C"/>
</svg>
