<svg width="80" height="80" viewBox="0 0 80 80" fill="none" xmlns="http://www.w3.org/2000/svg">
<g clip-path="url(#clip0_1209_1786)">
<path d="M40.0938 0.980469C39.4505 0.980469 38.8073 0.996229 38.1641 1.02775C37.5219 1.05927 36.8796 1.10655 36.2394 1.16959C35.5991 1.23264 34.9608 1.31144 34.3245 1.406C33.6881 1.50056 33.0538 1.61089 32.4224 1.73598C31.792 1.86207 31.1635 2.00293 30.54 2.15955C29.9155 2.31518 29.2949 2.48658 28.6793 2.67373C28.0636 2.86089 27.4529 3.06282 26.8471 3.27952C26.2413 3.49623 25.6405 3.72771 25.0465 3.97397C24.4515 4.22022 23.8635 4.48126 23.2823 4.75608C22.7002 5.0309 22.1259 5.3205 21.5585 5.62389C20.9901 5.92728 20.4306 6.24446 19.879 6.57444C19.3264 6.90541 18.7837 7.25017 18.2488 7.60773C17.713 7.9653 17.187 8.33567 16.6708 8.71885C16.1537 9.10202 15.6464 9.498 15.1489 9.9058C14.6515 10.3146 14.1649 10.7342 13.6872 11.1666C13.2104 11.5991 12.7445 12.0423 12.2894 12.4974C11.8343 12.9525 11.3911 13.4184 10.9586 13.8952C10.5272 14.3719 10.1066 14.8595 9.69877 15.3569C9.28999 15.8544 8.89401 16.3617 8.51083 16.8778C8.12765 17.395 7.75728 17.921 7.39972 18.4558C7.04215 18.9907 6.69838 19.5344 6.36741 20.0861C6.03644 20.6387 5.71926 21.1982 5.41587 21.7655C5.11248 22.3329 4.82387 22.9082 4.54806 23.4893C4.27324 24.0715 4.01221 24.6595 3.76595 25.2545C3.51969 25.8485 3.28821 26.4484 3.07151 27.0551C2.8548 27.6609 2.65287 28.2716 2.46571 28.8873C2.27954 29.5029 2.10815 30.1235 1.95153 30.747C1.79491 31.3715 1.65405 31.999 1.52895 32.6304C1.40287 33.2618 1.29353 33.8952 1.19897 34.5315C1.10441 35.1688 1.0256 35.8071 0.962563 36.4474C0.899521 37.0876 0.85224 37.7289 0.820719 38.3721C0.789198 39.0144 0.773438 39.6576 0.773438 40.3018C0.773438 40.945 0.789198 41.5882 0.820719 42.2305C0.85224 42.8737 0.899521 43.5149 0.962563 44.1552C1.0256 44.7955 1.10441 45.4348 1.19897 46.0711C1.29353 46.7074 1.40287 47.3418 1.52895 47.9722C1.65405 48.6036 1.79491 49.2311 1.95153 49.8556C2.10815 50.4801 2.27954 51.0997 2.46571 51.7153C2.65287 52.3309 2.8548 52.9426 3.07151 53.5484C3.28821 54.1542 3.51969 54.7541 3.76595 55.3491C4.01221 55.943 4.27324 56.5311 4.54806 57.1133C4.82387 57.6944 5.11248 58.2697 5.41587 58.8371C5.71926 59.4044 6.03644 59.9639 6.36741 60.5165C6.69838 61.0681 7.04215 61.6119 7.39972 62.1467C7.75728 62.6816 8.12765 63.2076 8.51083 63.7248C8.89401 64.2419 9.28999 64.7492 9.69877 65.2466C10.1066 65.7441 10.5272 66.2307 10.9586 66.7074C11.3911 67.1842 11.8343 67.6501 12.2894 68.1052C12.7445 68.5603 13.2104 69.0035 13.6872 69.436C14.1649 69.8684 14.6515 70.288 15.1489 70.6968C15.6464 71.1046 16.1537 71.5006 16.6708 71.8837C17.187 72.2679 17.713 72.6383 18.2488 72.9958C18.7837 73.3524 19.3264 73.6972 19.879 74.0281C20.4306 74.3591 20.9901 74.6763 21.5585 74.9787C22.1259 75.2821 22.7002 75.5717 23.2823 75.8465C23.8635 76.1223 24.4515 76.3824 25.0465 76.6286C25.6405 76.8749 26.2413 77.1064 26.8471 77.3241C27.4529 77.5408 28.0636 77.7417 28.6793 77.9289C29.2949 78.116 29.9155 78.2874 30.54 78.444C31.1635 78.5997 31.792 78.7415 32.4224 78.8666C33.0538 78.9917 33.6881 79.102 34.3245 79.1966C34.9608 79.2912 35.5991 79.37 36.2394 79.433C36.8796 79.496 37.5219 79.5433 38.1641 79.5748C38.8073 79.6064 39.4505 79.6221 40.0938 79.6221C40.737 79.6221 41.3802 79.6064 42.0234 79.5748C42.6657 79.5433 43.3079 79.496 43.9482 79.433C44.5885 79.37 45.2267 79.2912 45.8631 79.1966C46.4994 79.102 47.1338 78.9917 47.7652 78.8666C48.3956 78.7415 49.024 78.5997 49.6476 78.444C50.2721 78.2874 50.8926 78.116 51.5083 77.9289C52.1239 77.7417 52.7346 77.5408 53.3404 77.3241C53.9462 77.1064 54.5471 76.8749 55.1411 76.6286C55.736 76.3824 56.3241 76.1223 56.9052 75.8465C57.4874 75.5717 58.0617 75.2821 58.629 74.9787C59.1974 74.6763 59.7569 74.3591 60.3085 74.0281C60.8601 73.6972 61.4039 73.3524 61.9387 72.9958C62.4746 72.6383 63.0006 72.2679 63.5167 71.8837C64.0339 71.5006 64.5412 71.1046 65.0386 70.6968C65.536 70.288 66.0227 69.8684 66.5004 69.436C66.9771 69.0035 67.4431 68.5603 67.8981 68.1052C68.3522 67.6501 68.7965 67.1842 69.2289 66.7074C69.6604 66.2307 70.081 65.7441 70.4888 65.2466C70.8976 64.7492 71.2935 64.2419 71.6767 63.7248C72.0599 63.2076 72.4303 62.6816 72.7878 62.1467C73.1454 61.6119 73.4892 61.0681 73.8201 60.5165C74.1511 59.9639 74.4683 59.4044 74.7717 58.8371C75.0751 58.2697 75.3637 57.6944 75.6395 57.1133C75.9143 56.5311 76.1753 55.943 76.4216 55.3491C76.6678 54.7541 76.8993 54.1542 77.116 53.5484C77.3327 52.9426 77.5347 52.3309 77.7208 51.7153C77.908 51.0997 78.0794 50.4801 78.236 49.8556C78.3926 49.2311 78.5335 48.6036 78.6586 47.9722C78.7847 47.3418 78.894 46.7074 78.9886 46.0711C79.0831 45.4348 79.1619 44.7955 79.225 44.1552C79.288 43.5149 79.3353 42.8737 79.3668 42.2305C79.3983 41.5882 79.4141 40.945 79.4141 40.3018C79.4141 39.6576 79.3983 39.0144 79.3668 38.3721C79.3353 37.7289 79.288 37.0876 79.225 36.4474C79.1619 35.8071 79.0831 35.1688 78.9886 34.5315C78.894 33.8952 78.7847 33.2618 78.6586 32.6304C78.5335 31.999 78.3926 31.3715 78.236 30.747C78.0794 30.1235 77.908 29.5029 77.7208 28.8873C77.5347 28.2716 77.3327 27.6609 77.116 27.0551C76.8993 26.4484 76.6678 25.8485 76.4216 25.2545C76.1753 24.6595 75.9143 24.0715 75.6395 23.4893C75.3637 22.9082 75.0751 22.3329 74.7717 21.7655C74.4683 21.1982 74.1511 20.6387 73.8201 20.0861C73.4892 19.5344 73.1454 18.9907 72.7878 18.4558C72.4303 17.921 72.0599 17.395 71.6767 16.8778C71.2935 16.3617 70.8976 15.8544 70.4888 15.3569C70.081 14.8595 69.6604 14.3719 69.2289 13.8952C68.7965 13.4184 68.3522 12.9525 67.8981 12.4974C67.4431 12.0423 66.9771 11.5991 66.5004 11.1666C66.0227 10.7342 65.536 10.3146 65.0386 9.9058C64.5412 9.498 64.0339 9.10202 63.5167 8.71885C63.0006 8.33567 62.4746 7.9653 61.9387 7.60773C61.4039 7.25017 60.8601 6.90541 60.3085 6.57444C59.7569 6.24446 59.1974 5.92728 58.629 5.62389C58.0617 5.3205 57.4874 5.0309 56.9052 4.75608C56.3241 4.48126 55.736 4.22022 55.1411 3.97397C54.5471 3.72771 53.9462 3.49623 53.3404 3.27952C52.7346 3.06282 52.1239 2.86089 51.5083 2.67373C50.8926 2.48658 50.2721 2.31518 49.6476 2.15955C49.024 2.00293 48.3956 1.86207 47.7652 1.73598C47.1338 1.61089 46.4994 1.50056 45.8631 1.406C45.2267 1.31144 44.5885 1.23264 43.9482 1.16959C43.3079 1.10655 42.6657 1.05927 42.0234 1.02775C41.3802 0.996229 40.737 0.980469 40.0938 0.980469Z" fill="#63D285"/>
<mask id="mask0_1209_1786" style="mask-type:luminance" maskUnits="userSpaceOnUse" x="2" y="2" width="76" height="77">
<path d="M2.26562 2.73828H77.9157V78.3884H2.26562V2.73828Z" fill="white"/>
</mask>
<g mask="url(#mask0_1209_1786)">
<path d="M40.0907 78.3884C19.1933 78.3884 2.26562 61.3445 2.26562 40.5633C2.26562 19.7832 19.1933 2.73828 40.0907 2.73828C60.988 2.73828 77.9157 19.667 77.9157 40.5633C77.9157 61.4607 60.8708 78.3884 40.0907 78.3884ZM40.0907 5.07378C20.4778 5.07378 4.60014 20.9505 4.60014 40.5633C4.60014 60.1772 20.4778 76.0539 40.0907 76.0539C59.7036 76.0539 75.5812 60.1772 75.5812 40.5633C75.5812 20.9505 59.5873 5.07378 40.0907 5.07378Z" fill="white"/>
</g>
<path d="M56.0819 33.2587C56.0819 37.5249 54.8231 40.8198 52.3073 43.1445C49.7906 45.4691 46.2169 46.6315 41.5863 46.6315H38.6863V59.3029H28.3672V21.1074H41.5863C46.409 21.1074 50.0299 22.1624 52.4491 24.2713C54.8703 26.3783 56.0819 29.3738 56.0819 33.2587ZM38.6863 38.2193H40.5658C42.1152 38.2193 43.3475 37.7849 44.2616 36.9151C45.1757 36.0434 45.6327 34.8417 45.6327 33.3099C45.6327 30.7311 44.2045 29.4408 41.3499 29.4408H38.6863V38.2193Z" fill="white"/>
<path d="M39.5078 8.5722V4.26172H40.678V8.5722H39.5078Z" fill="white"/>
<path d="M72.0078 41.0352H76.3774V42.2211H72.0078V41.0352Z" fill="white"/>
<path d="M40.7172 72.4727V76.8422H39.5312V72.4727H40.7172Z" fill="white"/>
<path d="M3.58594 39.707H7.95552V40.893H3.58594V39.707Z" fill="white"/>
<path d="M65.0859 20.5866L68.439 17.7852L69.1994 18.6953L65.8464 21.4967L65.0859 20.5866Z" fill="white"/>
<path d="M12.5 63.3405L15.853 60.5391L16.6135 61.4492L13.2604 64.2506L12.5 63.3405Z" fill="white"/>
<path d="M65.6741 60.584L69.169 63.2081L68.4558 64.1577L64.9609 61.5336L65.6741 60.584Z" fill="white"/>
<path d="M11.5569 17.8262L15.0518 20.4503L14.3386 21.3999L10.8438 18.7757L11.5569 17.8262Z" fill="white"/>
</g>
<defs>
<clipPath id="clip0_1209_1786">
<rect width="80" height="80" fill="white"/>
</clipPath>
</defs>
</svg>
