<svg width="196" height="311" viewBox="0 0 196 311" fill="none" xmlns="http://www.w3.org/2000/svg">
<path d="M16.9141 214.562L19.1719 206.625H20.2656L19.6328 209.711L17.2031 218H16.1172L16.9141 214.562ZM14.5781 206.625L16.375 214.406L16.9141 218H15.8359L13.0781 206.625H14.5781ZM23.1875 214.398L24.9453 206.625H26.4531L23.7031 218H22.625L23.1875 214.398ZM20.4297 206.625L22.625 214.562L23.4219 218H22.3359L19.9922 209.711L19.3516 206.625H20.4297ZM31.1641 218.156C30.5755 218.156 30.0417 218.057 29.5625 217.859C29.0885 217.656 28.6797 217.372 28.3359 217.008C27.9974 216.643 27.737 216.211 27.5547 215.711C27.3724 215.211 27.2812 214.664 27.2812 214.07V213.742C27.2812 213.055 27.3828 212.443 27.5859 211.906C27.7891 211.365 28.0651 210.906 28.4141 210.531C28.763 210.156 29.1589 209.872 29.6016 209.68C30.0443 209.487 30.5026 209.391 30.9766 209.391C31.5807 209.391 32.1016 209.495 32.5391 209.703C32.9818 209.911 33.3438 210.203 33.625 210.578C33.9062 210.948 34.1146 211.385 34.25 211.891C34.3854 212.391 34.4531 212.938 34.4531 213.531V214.18H28.1406V213H33.0078V212.891C32.987 212.516 32.9089 212.151 32.7734 211.797C32.6432 211.443 32.4349 211.151 32.1484 210.922C31.862 210.693 31.4714 210.578 30.9766 210.578C30.6484 210.578 30.3464 210.648 30.0703 210.789C29.7943 210.924 29.5573 211.128 29.3594 211.398C29.1615 211.669 29.0078 212 28.8984 212.391C28.7891 212.781 28.7344 213.232 28.7344 213.742V214.07C28.7344 214.471 28.7891 214.849 28.8984 215.203C29.013 215.552 29.1771 215.859 29.3906 216.125C29.6094 216.391 29.8724 216.599 30.1797 216.75C30.4922 216.901 30.8464 216.977 31.2422 216.977C31.7526 216.977 32.1849 216.872 32.5391 216.664C32.8932 216.456 33.2031 216.177 33.4688 215.828L34.3438 216.523C34.1615 216.799 33.9297 217.062 33.6484 217.312C33.3672 217.562 33.0208 217.766 32.6094 217.922C32.2031 218.078 31.7214 218.156 31.1641 218.156ZM45.0938 216.555V212.203C45.0938 211.87 45.026 211.581 44.8906 211.336C44.7604 211.086 44.5625 210.893 44.2969 210.758C44.0312 210.622 43.7031 210.555 43.3125 210.555C42.9479 210.555 42.6276 210.617 42.3516 210.742C42.0807 210.867 41.8672 211.031 41.7109 211.234C41.5599 211.438 41.4844 211.656 41.4844 211.891H40.0391C40.0391 211.589 40.1172 211.289 40.2734 210.992C40.4297 210.695 40.6536 210.427 40.9453 210.188C41.2422 209.943 41.5964 209.75 42.0078 209.609C42.4245 209.464 42.888 209.391 43.3984 209.391C44.013 209.391 44.5547 209.495 45.0234 209.703C45.4974 209.911 45.8672 210.227 46.1328 210.648C46.4036 211.065 46.5391 211.589 46.5391 212.219V216.156C46.5391 216.438 46.5625 216.737 46.6094 217.055C46.6615 217.372 46.737 217.646 46.8359 217.875V218H45.3281C45.2552 217.833 45.1979 217.612 45.1562 217.336C45.1146 217.055 45.0938 216.794 45.0938 216.555ZM45.3438 212.875L45.3594 213.891H43.8984C43.487 213.891 43.1198 213.924 42.7969 213.992C42.474 214.055 42.2031 214.151 41.9844 214.281C41.7656 214.411 41.599 214.576 41.4844 214.773C41.3698 214.966 41.3125 215.193 41.3125 215.453C41.3125 215.719 41.3724 215.961 41.4922 216.18C41.612 216.398 41.7917 216.573 42.0312 216.703C42.276 216.828 42.5755 216.891 42.9297 216.891C43.3724 216.891 43.763 216.797 44.1016 216.609C44.4401 216.422 44.7083 216.193 44.9062 215.922C45.1094 215.651 45.2188 215.388 45.2344 215.133L45.8516 215.828C45.8151 216.047 45.7161 216.289 45.5547 216.555C45.3932 216.82 45.1771 217.076 44.9062 217.32C44.6406 217.56 44.3229 217.76 43.9531 217.922C43.5885 218.078 43.1771 218.156 42.7188 218.156C42.1458 218.156 41.6432 218.044 41.2109 217.82C40.7839 217.596 40.4505 217.297 40.2109 216.922C39.9766 216.542 39.8594 216.117 39.8594 215.648C39.8594 215.195 39.9479 214.797 40.125 214.453C40.3021 214.104 40.5573 213.815 40.8906 213.586C41.224 213.352 41.625 213.174 42.0938 213.055C42.5625 212.935 43.0859 212.875 43.6641 212.875H45.3438ZM50.2578 210.875V218H48.8125V209.547H50.2188L50.2578 210.875ZM52.8984 209.5L52.8906 210.844C52.7708 210.818 52.6562 210.802 52.5469 210.797C52.4427 210.786 52.3229 210.781 52.1875 210.781C51.8542 210.781 51.5599 210.833 51.3047 210.938C51.0495 211.042 50.8333 211.188 50.6562 211.375C50.4792 211.562 50.3385 211.786 50.2344 212.047C50.1354 212.302 50.0703 212.583 50.0391 212.891L49.6328 213.125C49.6328 212.615 49.6823 212.135 49.7812 211.688C49.8854 211.24 50.0443 210.844 50.2578 210.5C50.4714 210.151 50.7422 209.88 51.0703 209.688C51.4036 209.49 51.7995 209.391 52.2578 209.391C52.362 209.391 52.4818 209.404 52.6172 209.43C52.7526 209.451 52.8464 209.474 52.8984 209.5ZM57.5859 218.156C56.9974 218.156 56.4635 218.057 55.9844 217.859C55.5104 217.656 55.1016 217.372 54.7578 217.008C54.4193 216.643 54.1589 216.211 53.9766 215.711C53.7943 215.211 53.7031 214.664 53.7031 214.07V213.742C53.7031 213.055 53.8047 212.443 54.0078 211.906C54.2109 211.365 54.487 210.906 54.8359 210.531C55.1849 210.156 55.5807 209.872 56.0234 209.68C56.4661 209.487 56.9245 209.391 57.3984 209.391C58.0026 209.391 58.5234 209.495 58.9609 209.703C59.4036 209.911 59.7656 210.203 60.0469 210.578C60.3281 210.948 60.5365 211.385 60.6719 211.891C60.8073 212.391 60.875 212.938 60.875 213.531V214.18H54.5625V213H59.4297V212.891C59.4089 212.516 59.3307 212.151 59.1953 211.797C59.0651 211.443 58.8568 211.151 58.5703 210.922C58.2839 210.693 57.8932 210.578 57.3984 210.578C57.0703 210.578 56.7682 210.648 56.4922 210.789C56.2161 210.924 55.9792 211.128 55.7812 211.398C55.5833 211.669 55.4297 212 55.3203 212.391C55.2109 212.781 55.1562 213.232 55.1562 213.742V214.07C55.1562 214.471 55.2109 214.849 55.3203 215.203C55.4349 215.552 55.599 215.859 55.8125 216.125C56.0312 216.391 56.2943 216.599 56.6016 216.75C56.9141 216.901 57.2682 216.977 57.6641 216.977C58.1745 216.977 58.6068 216.872 58.9609 216.664C59.3151 216.456 59.625 216.177 59.8906 215.828L60.7656 216.523C60.5833 216.799 60.3516 217.062 60.0703 217.312C59.7891 217.562 59.4427 217.766 59.0312 217.922C58.625 218.078 58.1432 218.156 57.5859 218.156ZM71.4531 215.758C71.4531 215.549 71.4062 215.357 71.3125 215.18C71.224 214.997 71.0391 214.833 70.7578 214.688C70.4818 214.536 70.0651 214.406 69.5078 214.297C69.0391 214.198 68.6146 214.081 68.2344 213.945C67.8594 213.81 67.5391 213.646 67.2734 213.453C67.013 213.26 66.8125 213.034 66.6719 212.773C66.5312 212.513 66.4609 212.208 66.4609 211.859C66.4609 211.526 66.5339 211.211 66.6797 210.914C66.8307 210.617 67.0417 210.354 67.3125 210.125C67.5885 209.896 67.9193 209.716 68.3047 209.586C68.6901 209.456 69.1198 209.391 69.5938 209.391C70.2708 209.391 70.849 209.51 71.3281 209.75C71.8073 209.99 72.1745 210.31 72.4297 210.711C72.6849 211.107 72.8125 211.547 72.8125 212.031H71.3672C71.3672 211.797 71.2969 211.57 71.1562 211.352C71.0208 211.128 70.8203 210.943 70.5547 210.797C70.2943 210.651 69.974 210.578 69.5938 210.578C69.1927 210.578 68.8672 210.641 68.6172 210.766C68.3724 210.885 68.1927 211.039 68.0781 211.227C67.9688 211.414 67.9141 211.612 67.9141 211.82C67.9141 211.977 67.9401 212.117 67.9922 212.242C68.0495 212.362 68.1484 212.474 68.2891 212.578C68.4297 212.677 68.6276 212.771 68.8828 212.859C69.138 212.948 69.4635 213.036 69.8594 213.125C70.5521 213.281 71.1224 213.469 71.5703 213.688C72.0182 213.906 72.3516 214.174 72.5703 214.492C72.7891 214.81 72.8984 215.195 72.8984 215.648C72.8984 216.018 72.8203 216.357 72.6641 216.664C72.513 216.971 72.2917 217.237 72 217.461C71.7135 217.68 71.3698 217.852 70.9688 217.977C70.5729 218.096 70.1276 218.156 69.6328 218.156C68.888 218.156 68.2578 218.023 67.7422 217.758C67.2266 217.492 66.8359 217.148 66.5703 216.727C66.3047 216.305 66.1719 215.859 66.1719 215.391H67.625C67.6458 215.786 67.7604 216.102 67.9688 216.336C68.1771 216.565 68.4323 216.729 68.7344 216.828C69.0365 216.922 69.3359 216.969 69.6328 216.969C70.0286 216.969 70.3594 216.917 70.625 216.812C70.8958 216.708 71.1016 216.565 71.2422 216.383C71.3828 216.201 71.4531 215.992 71.4531 215.758ZM78.3359 209.547V210.656H73.7656V209.547H78.3359ZM75.3125 207.492H76.7578V215.906C76.7578 216.193 76.8021 216.409 76.8906 216.555C76.9792 216.701 77.0938 216.797 77.2344 216.844C77.375 216.891 77.526 216.914 77.6875 216.914C77.8073 216.914 77.9323 216.904 78.0625 216.883C78.1979 216.857 78.2995 216.836 78.3672 216.82L78.375 218C78.2604 218.036 78.1094 218.07 77.9219 218.102C77.7396 218.138 77.5182 218.156 77.2578 218.156C76.9036 218.156 76.5781 218.086 76.2812 217.945C75.9844 217.805 75.7474 217.57 75.5703 217.242C75.3984 216.909 75.3125 216.461 75.3125 215.898V207.492ZM81.4766 210.875V218H80.0312V209.547H81.4375L81.4766 210.875ZM84.1172 209.5L84.1094 210.844C83.9896 210.818 83.875 210.802 83.7656 210.797C83.6615 210.786 83.5417 210.781 83.4062 210.781C83.0729 210.781 82.7786 210.833 82.5234 210.938C82.2682 211.042 82.0521 211.188 81.875 211.375C81.6979 211.562 81.5573 211.786 81.4531 212.047C81.3542 212.302 81.2891 212.583 81.2578 212.891L80.8516 213.125C80.8516 212.615 80.901 212.135 81 211.688C81.1042 211.24 81.263 210.844 81.4766 210.5C81.6901 210.151 81.9609 209.88 82.2891 209.688C82.6224 209.49 83.0182 209.391 83.4766 209.391C83.5807 209.391 83.7005 209.404 83.8359 209.43C83.9714 209.451 84.0651 209.474 84.1172 209.5ZM87.0234 209.547V218H85.5703V209.547H87.0234ZM85.4609 207.305C85.4609 207.07 85.5312 206.872 85.6719 206.711C85.8177 206.549 86.0312 206.469 86.3125 206.469C86.5885 206.469 86.7995 206.549 86.9453 206.711C87.0964 206.872 87.1719 207.07 87.1719 207.305C87.1719 207.529 87.0964 207.721 86.9453 207.883C86.7995 208.039 86.5885 208.117 86.3125 208.117C86.0312 208.117 85.8177 208.039 85.6719 207.883C85.5312 207.721 85.4609 207.529 85.4609 207.305ZM91.9141 216.695L94.2266 209.547H95.7031L92.6641 218H91.6953L91.9141 216.695ZM89.9844 209.547L92.3672 216.734L92.5312 218H91.5625L88.5 209.547H89.9844ZM98.6641 209.547V218H97.2109V209.547H98.6641ZM97.1016 207.305C97.1016 207.07 97.1719 206.872 97.3125 206.711C97.4583 206.549 97.6719 206.469 97.9531 206.469C98.2292 206.469 98.4401 206.549 98.5859 206.711C98.737 206.872 98.8125 207.07 98.8125 207.305C98.8125 207.529 98.737 207.721 98.5859 207.883C98.4401 208.039 98.2292 208.117 97.9531 208.117C97.6719 208.117 97.4583 208.039 97.3125 207.883C97.1719 207.721 97.1016 207.529 97.1016 207.305ZM102.43 211.352V218H100.984V209.547H102.352L102.43 211.352ZM102.086 213.453L101.484 213.43C101.49 212.852 101.576 212.318 101.742 211.828C101.909 211.333 102.143 210.904 102.445 210.539C102.747 210.174 103.107 209.893 103.523 209.695C103.945 209.492 104.411 209.391 104.922 209.391C105.339 209.391 105.714 209.448 106.047 209.562C106.38 209.672 106.664 209.849 106.898 210.094C107.138 210.339 107.32 210.656 107.445 211.047C107.57 211.432 107.633 211.904 107.633 212.461V218H106.18V212.445C106.18 212.003 106.115 211.648 105.984 211.383C105.854 211.112 105.664 210.917 105.414 210.797C105.164 210.672 104.857 210.609 104.492 210.609C104.133 210.609 103.805 210.685 103.508 210.836C103.216 210.987 102.964 211.195 102.75 211.461C102.542 211.727 102.378 212.031 102.258 212.375C102.143 212.714 102.086 213.073 102.086 213.453ZM115.305 209.547H116.617V217.82C116.617 218.565 116.466 219.201 116.164 219.727C115.862 220.253 115.44 220.651 114.898 220.922C114.362 221.198 113.742 221.336 113.039 221.336C112.747 221.336 112.404 221.289 112.008 221.195C111.617 221.107 111.232 220.953 110.852 220.734C110.477 220.521 110.161 220.232 109.906 219.867L110.664 219.008C111.018 219.435 111.388 219.732 111.773 219.898C112.164 220.065 112.549 220.148 112.93 220.148C113.388 220.148 113.784 220.062 114.117 219.891C114.451 219.719 114.708 219.464 114.891 219.125C115.078 218.792 115.172 218.38 115.172 217.891V211.406L115.305 209.547ZM109.484 213.867V213.703C109.484 213.057 109.56 212.471 109.711 211.945C109.867 211.414 110.089 210.958 110.375 210.578C110.667 210.198 111.018 209.906 111.43 209.703C111.841 209.495 112.305 209.391 112.82 209.391C113.352 209.391 113.815 209.484 114.211 209.672C114.612 209.854 114.951 210.122 115.227 210.477C115.508 210.826 115.729 211.247 115.891 211.742C116.052 212.237 116.164 212.797 116.227 213.422V214.141C116.169 214.76 116.057 215.318 115.891 215.812C115.729 216.307 115.508 216.729 115.227 217.078C114.951 217.427 114.612 217.695 114.211 217.883C113.81 218.065 113.341 218.156 112.805 218.156C112.299 218.156 111.841 218.049 111.43 217.836C111.023 217.622 110.674 217.323 110.383 216.938C110.091 216.552 109.867 216.099 109.711 215.578C109.56 215.052 109.484 214.482 109.484 213.867ZM110.93 213.703V213.867C110.93 214.289 110.971 214.685 111.055 215.055C111.143 215.424 111.276 215.75 111.453 216.031C111.635 216.312 111.867 216.534 112.148 216.695C112.43 216.852 112.766 216.93 113.156 216.93C113.635 216.93 114.031 216.828 114.344 216.625C114.656 216.422 114.904 216.154 115.086 215.82C115.273 215.487 115.419 215.125 115.523 214.734V212.852C115.466 212.565 115.378 212.289 115.258 212.023C115.143 211.753 114.992 211.513 114.805 211.305C114.622 211.091 114.396 210.922 114.125 210.797C113.854 210.672 113.536 210.609 113.172 210.609C112.776 210.609 112.435 210.693 112.148 210.859C111.867 211.021 111.635 211.245 111.453 211.531C111.276 211.812 111.143 212.141 111.055 212.516C110.971 212.885 110.93 213.281 110.93 213.703ZM126.32 209.547V210.656H121.75V209.547H126.32ZM123.297 207.492H124.742V215.906C124.742 216.193 124.786 216.409 124.875 216.555C124.964 216.701 125.078 216.797 125.219 216.844C125.359 216.891 125.51 216.914 125.672 216.914C125.792 216.914 125.917 216.904 126.047 216.883C126.182 216.857 126.284 216.836 126.352 216.82L126.359 218C126.245 218.036 126.094 218.07 125.906 218.102C125.724 218.138 125.503 218.156 125.242 218.156C124.888 218.156 124.562 218.086 124.266 217.945C123.969 217.805 123.732 217.57 123.555 217.242C123.383 216.909 123.297 216.461 123.297 215.898V207.492ZM127.477 213.867V213.688C127.477 213.078 127.565 212.513 127.742 211.992C127.919 211.466 128.174 211.01 128.508 210.625C128.841 210.234 129.245 209.932 129.719 209.719C130.193 209.5 130.724 209.391 131.312 209.391C131.906 209.391 132.44 209.5 132.914 209.719C133.393 209.932 133.799 210.234 134.133 210.625C134.471 211.01 134.729 211.466 134.906 211.992C135.083 212.513 135.172 213.078 135.172 213.688V213.867C135.172 214.477 135.083 215.042 134.906 215.562C134.729 216.083 134.471 216.539 134.133 216.93C133.799 217.315 133.396 217.617 132.922 217.836C132.453 218.049 131.922 218.156 131.328 218.156C130.734 218.156 130.201 218.049 129.727 217.836C129.253 217.617 128.846 217.315 128.508 216.93C128.174 216.539 127.919 216.083 127.742 215.562C127.565 215.042 127.477 214.477 127.477 213.867ZM128.922 213.688V213.867C128.922 214.289 128.971 214.688 129.07 215.062C129.169 215.432 129.318 215.76 129.516 216.047C129.719 216.333 129.971 216.56 130.273 216.727C130.576 216.888 130.927 216.969 131.328 216.969C131.724 216.969 132.07 216.888 132.367 216.727C132.669 216.56 132.919 216.333 133.117 216.047C133.315 215.76 133.464 215.432 133.562 215.062C133.667 214.688 133.719 214.289 133.719 213.867V213.688C133.719 213.271 133.667 212.878 133.562 212.508C133.464 212.133 133.312 211.802 133.109 211.516C132.911 211.224 132.661 210.995 132.359 210.828C132.062 210.661 131.714 210.578 131.312 210.578C130.917 210.578 130.568 210.661 130.266 210.828C129.969 210.995 129.719 211.224 129.516 211.516C129.318 211.802 129.169 212.133 129.07 212.508C128.971 212.878 128.922 213.271 128.922 213.688ZM144.336 216.969C144.68 216.969 144.997 216.898 145.289 216.758C145.581 216.617 145.82 216.424 146.008 216.18C146.195 215.93 146.302 215.646 146.328 215.328H147.703C147.677 215.828 147.508 216.294 147.195 216.727C146.888 217.154 146.484 217.5 145.984 217.766C145.484 218.026 144.935 218.156 144.336 218.156C143.701 218.156 143.146 218.044 142.672 217.82C142.203 217.596 141.812 217.289 141.5 216.898C141.193 216.508 140.961 216.06 140.805 215.555C140.654 215.044 140.578 214.505 140.578 213.938V213.609C140.578 213.042 140.654 212.505 140.805 212C140.961 211.49 141.193 211.039 141.5 210.648C141.812 210.258 142.203 209.951 142.672 209.727C143.146 209.503 143.701 209.391 144.336 209.391C144.997 209.391 145.576 209.526 146.07 209.797C146.565 210.062 146.953 210.427 147.234 210.891C147.521 211.349 147.677 211.87 147.703 212.453H146.328C146.302 212.104 146.203 211.789 146.031 211.508C145.865 211.227 145.635 211.003 145.344 210.836C145.057 210.664 144.721 210.578 144.336 210.578C143.893 210.578 143.521 210.667 143.219 210.844C142.922 211.016 142.685 211.25 142.508 211.547C142.336 211.839 142.211 212.164 142.133 212.523C142.06 212.878 142.023 213.24 142.023 213.609V213.938C142.023 214.307 142.06 214.672 142.133 215.031C142.206 215.391 142.328 215.716 142.5 216.008C142.677 216.299 142.914 216.534 143.211 216.711C143.513 216.883 143.888 216.969 144.336 216.969ZM150.773 210.875V218H149.328V209.547H150.734L150.773 210.875ZM153.414 209.5L153.406 210.844C153.286 210.818 153.172 210.802 153.062 210.797C152.958 210.786 152.839 210.781 152.703 210.781C152.37 210.781 152.076 210.833 151.82 210.938C151.565 211.042 151.349 211.188 151.172 211.375C150.995 211.562 150.854 211.786 150.75 212.047C150.651 212.302 150.586 212.583 150.555 212.891L150.148 213.125C150.148 212.615 150.198 212.135 150.297 211.688C150.401 211.24 150.56 210.844 150.773 210.5C150.987 210.151 151.258 209.88 151.586 209.688C151.919 209.49 152.315 209.391 152.773 209.391C152.878 209.391 152.997 209.404 153.133 209.43C153.268 209.451 153.362 209.474 153.414 209.5ZM158.102 218.156C157.513 218.156 156.979 218.057 156.5 217.859C156.026 217.656 155.617 217.372 155.273 217.008C154.935 216.643 154.674 216.211 154.492 215.711C154.31 215.211 154.219 214.664 154.219 214.07V213.742C154.219 213.055 154.32 212.443 154.523 211.906C154.727 211.365 155.003 210.906 155.352 210.531C155.701 210.156 156.096 209.872 156.539 209.68C156.982 209.487 157.44 209.391 157.914 209.391C158.518 209.391 159.039 209.495 159.477 209.703C159.919 209.911 160.281 210.203 160.562 210.578C160.844 210.948 161.052 211.385 161.188 211.891C161.323 212.391 161.391 212.938 161.391 213.531V214.18H155.078V213H159.945V212.891C159.924 212.516 159.846 212.151 159.711 211.797C159.581 211.443 159.372 211.151 159.086 210.922C158.799 210.693 158.409 210.578 157.914 210.578C157.586 210.578 157.284 210.648 157.008 210.789C156.732 210.924 156.495 211.128 156.297 211.398C156.099 211.669 155.945 212 155.836 212.391C155.727 212.781 155.672 213.232 155.672 213.742V214.07C155.672 214.471 155.727 214.849 155.836 215.203C155.951 215.552 156.115 215.859 156.328 216.125C156.547 216.391 156.81 216.599 157.117 216.75C157.43 216.901 157.784 216.977 158.18 216.977C158.69 216.977 159.122 216.872 159.477 216.664C159.831 216.456 160.141 216.177 160.406 215.828L161.281 216.523C161.099 216.799 160.867 217.062 160.586 217.312C160.305 217.562 159.958 217.766 159.547 217.922C159.141 218.078 158.659 218.156 158.102 218.156ZM168.062 216.555V212.203C168.062 211.87 167.995 211.581 167.859 211.336C167.729 211.086 167.531 210.893 167.266 210.758C167 210.622 166.672 210.555 166.281 210.555C165.917 210.555 165.596 210.617 165.32 210.742C165.049 210.867 164.836 211.031 164.68 211.234C164.529 211.438 164.453 211.656 164.453 211.891H163.008C163.008 211.589 163.086 211.289 163.242 210.992C163.398 210.695 163.622 210.427 163.914 210.188C164.211 209.943 164.565 209.75 164.977 209.609C165.393 209.464 165.857 209.391 166.367 209.391C166.982 209.391 167.523 209.495 167.992 209.703C168.466 209.911 168.836 210.227 169.102 210.648C169.372 211.065 169.508 211.589 169.508 212.219V216.156C169.508 216.438 169.531 216.737 169.578 217.055C169.63 217.372 169.706 217.646 169.805 217.875V218H168.297C168.224 217.833 168.167 217.612 168.125 217.336C168.083 217.055 168.062 216.794 168.062 216.555ZM168.312 212.875L168.328 213.891H166.867C166.456 213.891 166.089 213.924 165.766 213.992C165.443 214.055 165.172 214.151 164.953 214.281C164.734 214.411 164.568 214.576 164.453 214.773C164.339 214.966 164.281 215.193 164.281 215.453C164.281 215.719 164.341 215.961 164.461 216.18C164.581 216.398 164.76 216.573 165 216.703C165.245 216.828 165.544 216.891 165.898 216.891C166.341 216.891 166.732 216.797 167.07 216.609C167.409 216.422 167.677 216.193 167.875 215.922C168.078 215.651 168.188 215.388 168.203 215.133L168.82 215.828C168.784 216.047 168.685 216.289 168.523 216.555C168.362 216.82 168.146 217.076 167.875 217.32C167.609 217.56 167.292 217.76 166.922 217.922C166.557 218.078 166.146 218.156 165.688 218.156C165.115 218.156 164.612 218.044 164.18 217.82C163.753 217.596 163.419 217.297 163.18 216.922C162.945 216.542 162.828 216.117 162.828 215.648C162.828 215.195 162.917 214.797 163.094 214.453C163.271 214.104 163.526 213.815 163.859 213.586C164.193 213.352 164.594 213.174 165.062 213.055C165.531 212.935 166.055 212.875 166.633 212.875H168.312ZM175.32 209.547V210.656H170.75V209.547H175.32ZM172.297 207.492H173.742V215.906C173.742 216.193 173.786 216.409 173.875 216.555C173.964 216.701 174.078 216.797 174.219 216.844C174.359 216.891 174.51 216.914 174.672 216.914C174.792 216.914 174.917 216.904 175.047 216.883C175.182 216.857 175.284 216.836 175.352 216.82L175.359 218C175.245 218.036 175.094 218.07 174.906 218.102C174.724 218.138 174.503 218.156 174.242 218.156C173.888 218.156 173.562 218.086 173.266 217.945C172.969 217.805 172.732 217.57 172.555 217.242C172.383 216.909 172.297 216.461 172.297 215.898V207.492ZM180.523 218.156C179.935 218.156 179.401 218.057 178.922 217.859C178.448 217.656 178.039 217.372 177.695 217.008C177.357 216.643 177.096 216.211 176.914 215.711C176.732 215.211 176.641 214.664 176.641 214.07V213.742C176.641 213.055 176.742 212.443 176.945 211.906C177.148 211.365 177.424 210.906 177.773 210.531C178.122 210.156 178.518 209.872 178.961 209.68C179.404 209.487 179.862 209.391 180.336 209.391C180.94 209.391 181.461 209.495 181.898 209.703C182.341 209.911 182.703 210.203 182.984 210.578C183.266 210.948 183.474 211.385 183.609 211.891C183.745 212.391 183.812 212.938 183.812 213.531V214.18H177.5V213H182.367V212.891C182.346 212.516 182.268 212.151 182.133 211.797C182.003 211.443 181.794 211.151 181.508 210.922C181.221 210.693 180.831 210.578 180.336 210.578C180.008 210.578 179.706 210.648 179.43 210.789C179.154 210.924 178.917 211.128 178.719 211.398C178.521 211.669 178.367 212 178.258 212.391C178.148 212.781 178.094 213.232 178.094 213.742V214.07C178.094 214.471 178.148 214.849 178.258 215.203C178.372 215.552 178.536 215.859 178.75 216.125C178.969 216.391 179.232 216.599 179.539 216.75C179.852 216.901 180.206 216.977 180.602 216.977C181.112 216.977 181.544 216.872 181.898 216.664C182.253 216.456 182.562 216.177 182.828 215.828L183.703 216.523C183.521 216.799 183.289 217.062 183.008 217.312C182.727 217.562 182.38 217.766 181.969 217.922C181.562 218.078 181.081 218.156 180.523 218.156ZM36.1953 239.758C36.1953 239.549 36.1484 239.357 36.0547 239.18C35.9661 238.997 35.7812 238.833 35.5 238.688C35.224 238.536 34.8073 238.406 34.25 238.297C33.7812 238.198 33.3568 238.081 32.9766 237.945C32.6016 237.81 32.2812 237.646 32.0156 237.453C31.7552 237.26 31.5547 237.034 31.4141 236.773C31.2734 236.513 31.2031 236.208 31.2031 235.859C31.2031 235.526 31.276 235.211 31.4219 234.914C31.5729 234.617 31.7839 234.354 32.0547 234.125C32.3307 233.896 32.6615 233.716 33.0469 233.586C33.4323 233.456 33.862 233.391 34.3359 233.391C35.013 233.391 35.5911 233.51 36.0703 233.75C36.5495 233.99 36.9167 234.31 37.1719 234.711C37.4271 235.107 37.5547 235.547 37.5547 236.031H36.1094C36.1094 235.797 36.0391 235.57 35.8984 235.352C35.763 235.128 35.5625 234.943 35.2969 234.797C35.0365 234.651 34.7161 234.578 34.3359 234.578C33.9349 234.578 33.6094 234.641 33.3594 234.766C33.1146 234.885 32.9349 235.039 32.8203 235.227C32.7109 235.414 32.6562 235.612 32.6562 235.82C32.6562 235.977 32.6823 236.117 32.7344 236.242C32.7917 236.362 32.8906 236.474 33.0312 236.578C33.1719 236.677 33.3698 236.771 33.625 236.859C33.8802 236.948 34.2057 237.036 34.6016 237.125C35.2943 237.281 35.8646 237.469 36.3125 237.688C36.7604 237.906 37.0938 238.174 37.3125 238.492C37.5312 238.81 37.6406 239.195 37.6406 239.648C37.6406 240.018 37.5625 240.357 37.4062 240.664C37.2552 240.971 37.0339 241.237 36.7422 241.461C36.4557 241.68 36.112 241.852 35.7109 241.977C35.3151 242.096 34.8698 242.156 34.375 242.156C33.6302 242.156 33 242.023 32.4844 241.758C31.9688 241.492 31.5781 241.148 31.3125 240.727C31.0469 240.305 30.9141 239.859 30.9141 239.391H32.3672C32.388 239.786 32.5026 240.102 32.7109 240.336C32.9193 240.565 33.1745 240.729 33.4766 240.828C33.7786 240.922 34.0781 240.969 34.375 240.969C34.7708 240.969 35.1016 240.917 35.3672 240.812C35.638 240.708 35.8438 240.565 35.9844 240.383C36.125 240.201 36.1953 239.992 36.1953 239.758ZM41.1094 233.547V242H39.6562V233.547H41.1094ZM39.5469 231.305C39.5469 231.07 39.6172 230.872 39.7578 230.711C39.9036 230.549 40.1172 230.469 40.3984 230.469C40.6745 230.469 40.8854 230.549 41.0312 230.711C41.1823 230.872 41.2578 231.07 41.2578 231.305C41.2578 231.529 41.1823 231.721 41.0312 231.883C40.8854 232.039 40.6745 232.117 40.3984 232.117C40.1172 232.117 39.9036 232.039 39.7578 231.883C39.6172 231.721 39.5469 231.529 39.5469 231.305ZM44.8672 235.227V242H43.4141V233.547H44.7891L44.8672 235.227ZM44.5703 237.453L43.8984 237.43C43.9036 236.852 43.9792 236.318 44.125 235.828C44.2708 235.333 44.487 234.904 44.7734 234.539C45.0599 234.174 45.4167 233.893 45.8438 233.695C46.2708 233.492 46.7656 233.391 47.3281 233.391C47.724 233.391 48.0885 233.448 48.4219 233.562C48.7552 233.672 49.0443 233.846 49.2891 234.086C49.5339 234.326 49.724 234.633 49.8594 235.008C49.9948 235.383 50.0625 235.836 50.0625 236.367V242H48.6172V236.438C48.6172 235.995 48.5417 235.641 48.3906 235.375C48.2448 235.109 48.0365 234.917 47.7656 234.797C47.4948 234.672 47.1771 234.609 46.8125 234.609C46.3854 234.609 46.0286 234.685 45.7422 234.836C45.4557 234.987 45.2266 235.195 45.0547 235.461C44.8828 235.727 44.7578 236.031 44.6797 236.375C44.6068 236.714 44.5703 237.073 44.5703 237.453ZM50.0469 236.656L49.0781 236.953C49.0833 236.49 49.1589 236.044 49.3047 235.617C49.4557 235.19 49.6719 234.81 49.9531 234.477C50.2396 234.143 50.5911 233.88 51.0078 233.688C51.4245 233.49 51.901 233.391 52.4375 233.391C52.8906 233.391 53.2917 233.451 53.6406 233.57C53.9948 233.69 54.2917 233.875 54.5312 234.125C54.776 234.37 54.9609 234.685 55.0859 235.07C55.2109 235.456 55.2734 235.914 55.2734 236.445V242H53.8203V236.43C53.8203 235.956 53.7448 235.589 53.5938 235.328C53.4479 235.062 53.2396 234.878 52.9688 234.773C52.7031 234.664 52.3854 234.609 52.0156 234.609C51.6979 234.609 51.4167 234.664 51.1719 234.773C50.9271 234.883 50.7214 235.034 50.5547 235.227C50.388 235.414 50.2604 235.63 50.1719 235.875C50.0885 236.12 50.0469 236.38 50.0469 236.656ZM58.9062 235.172V245.25H57.4531V233.547H58.7812L58.9062 235.172ZM64.6016 237.703V237.867C64.6016 238.482 64.5286 239.052 64.3828 239.578C64.237 240.099 64.0234 240.552 63.7422 240.938C63.4661 241.323 63.125 241.622 62.7188 241.836C62.3125 242.049 61.8464 242.156 61.3203 242.156C60.7839 242.156 60.3099 242.068 59.8984 241.891C59.487 241.714 59.138 241.456 58.8516 241.117C58.5651 240.779 58.3359 240.372 58.1641 239.898C57.9974 239.424 57.8828 238.891 57.8203 238.297V237.422C57.8828 236.797 58 236.237 58.1719 235.742C58.3438 235.247 58.5703 234.826 58.8516 234.477C59.138 234.122 59.4844 233.854 59.8906 233.672C60.2969 233.484 60.7656 233.391 61.2969 233.391C61.8281 233.391 62.2995 233.495 62.7109 233.703C63.1224 233.906 63.4688 234.198 63.75 234.578C64.0312 234.958 64.2422 235.414 64.3828 235.945C64.5286 236.471 64.6016 237.057 64.6016 237.703ZM63.1484 237.867V237.703C63.1484 237.281 63.1042 236.885 63.0156 236.516C62.9271 236.141 62.7891 235.812 62.6016 235.531C62.4193 235.245 62.1849 235.021 61.8984 234.859C61.612 234.693 61.2708 234.609 60.875 234.609C60.5104 234.609 60.1927 234.672 59.9219 234.797C59.6562 234.922 59.4297 235.091 59.2422 235.305C59.0547 235.513 58.901 235.753 58.7812 236.023C58.6667 236.289 58.5807 236.565 58.5234 236.852V238.875C58.6276 239.24 58.7734 239.583 58.9609 239.906C59.1484 240.224 59.3984 240.482 59.7109 240.68C60.0234 240.872 60.4167 240.969 60.8906 240.969C61.2812 240.969 61.6172 240.888 61.8984 240.727C62.1849 240.56 62.4193 240.333 62.6016 240.047C62.7891 239.76 62.9271 239.432 63.0156 239.062C63.1042 238.688 63.1484 238.289 63.1484 237.867ZM68.0156 230V242H66.5625V230H68.0156ZM73.8438 242.156C73.2552 242.156 72.7214 242.057 72.2422 241.859C71.7682 241.656 71.3594 241.372 71.0156 241.008C70.6771 240.643 70.4167 240.211 70.2344 239.711C70.0521 239.211 69.9609 238.664 69.9609 238.07V237.742C69.9609 237.055 70.0625 236.443 70.2656 235.906C70.4688 235.365 70.7448 234.906 71.0938 234.531C71.4427 234.156 71.8385 233.872 72.2812 233.68C72.724 233.487 73.1823 233.391 73.6562 233.391C74.2604 233.391 74.7812 233.495 75.2188 233.703C75.6615 233.911 76.0234 234.203 76.3047 234.578C76.5859 234.948 76.7943 235.385 76.9297 235.891C77.0651 236.391 77.1328 236.938 77.1328 237.531V238.18H70.8203V237H75.6875V236.891C75.6667 236.516 75.5885 236.151 75.4531 235.797C75.3229 235.443 75.1146 235.151 74.8281 234.922C74.5417 234.693 74.151 234.578 73.6562 234.578C73.3281 234.578 73.026 234.648 72.75 234.789C72.474 234.924 72.237 235.128 72.0391 235.398C71.8411 235.669 71.6875 236 71.5781 236.391C71.4688 236.781 71.4141 237.232 71.4141 237.742V238.07C71.4141 238.471 71.4688 238.849 71.5781 239.203C71.6927 239.552 71.8568 239.859 72.0703 240.125C72.2891 240.391 72.5521 240.599 72.8594 240.75C73.1719 240.901 73.526 240.977 73.9219 240.977C74.4323 240.977 74.8646 240.872 75.2188 240.664C75.5729 240.456 75.8828 240.177 76.1484 239.828L77.0234 240.523C76.8411 240.799 76.6094 241.062 76.3281 241.312C76.0469 241.562 75.7005 241.766 75.2891 241.922C74.8828 242.078 74.401 242.156 73.8438 242.156ZM87.7734 240.555V236.203C87.7734 235.87 87.7057 235.581 87.5703 235.336C87.4401 235.086 87.2422 234.893 86.9766 234.758C86.7109 234.622 86.3828 234.555 85.9922 234.555C85.6276 234.555 85.3073 234.617 85.0312 234.742C84.7604 234.867 84.5469 235.031 84.3906 235.234C84.2396 235.438 84.1641 235.656 84.1641 235.891H82.7188C82.7188 235.589 82.7969 235.289 82.9531 234.992C83.1094 234.695 83.3333 234.427 83.625 234.188C83.9219 233.943 84.276 233.75 84.6875 233.609C85.1042 233.464 85.5677 233.391 86.0781 233.391C86.6927 233.391 87.2344 233.495 87.7031 233.703C88.1771 233.911 88.5469 234.227 88.8125 234.648C89.0833 235.065 89.2188 235.589 89.2188 236.219V240.156C89.2188 240.438 89.2422 240.737 89.2891 241.055C89.3411 241.372 89.4167 241.646 89.5156 241.875V242H88.0078C87.9349 241.833 87.8776 241.612 87.8359 241.336C87.7943 241.055 87.7734 240.794 87.7734 240.555ZM88.0234 236.875L88.0391 237.891H86.5781C86.1667 237.891 85.7995 237.924 85.4766 237.992C85.1536 238.055 84.8828 238.151 84.6641 238.281C84.4453 238.411 84.2786 238.576 84.1641 238.773C84.0495 238.966 83.9922 239.193 83.9922 239.453C83.9922 239.719 84.0521 239.961 84.1719 240.18C84.2917 240.398 84.4714 240.573 84.7109 240.703C84.9557 240.828 85.2552 240.891 85.6094 240.891C86.0521 240.891 86.4427 240.797 86.7812 240.609C87.1198 240.422 87.388 240.193 87.5859 239.922C87.7891 239.651 87.8984 239.388 87.9141 239.133L88.5312 239.828C88.4948 240.047 88.3958 240.289 88.2344 240.555C88.0729 240.82 87.8568 241.076 87.5859 241.32C87.3203 241.56 87.0026 241.76 86.6328 241.922C86.2682 242.078 85.8568 242.156 85.3984 242.156C84.8255 242.156 84.3229 242.044 83.8906 241.82C83.4635 241.596 83.1302 241.297 82.8906 240.922C82.6562 240.542 82.5391 240.117 82.5391 239.648C82.5391 239.195 82.6276 238.797 82.8047 238.453C82.9818 238.104 83.237 237.815 83.5703 237.586C83.9036 237.352 84.3047 237.174 84.7734 237.055C85.2422 236.935 85.7656 236.875 86.3438 236.875H88.0234ZM92.9375 235.352V242H91.4922V233.547H92.8594L92.9375 235.352ZM92.5938 237.453L91.9922 237.43C91.9974 236.852 92.0833 236.318 92.25 235.828C92.4167 235.333 92.651 234.904 92.9531 234.539C93.2552 234.174 93.6146 233.893 94.0312 233.695C94.4531 233.492 94.9193 233.391 95.4297 233.391C95.8464 233.391 96.2214 233.448 96.5547 233.562C96.888 233.672 97.1719 233.849 97.4062 234.094C97.6458 234.339 97.8281 234.656 97.9531 235.047C98.0781 235.432 98.1406 235.904 98.1406 236.461V242H96.6875V236.445C96.6875 236.003 96.6224 235.648 96.4922 235.383C96.362 235.112 96.1719 234.917 95.9219 234.797C95.6719 234.672 95.3646 234.609 95 234.609C94.6406 234.609 94.3125 234.685 94.0156 234.836C93.724 234.987 93.4714 235.195 93.2578 235.461C93.0495 235.727 92.8854 236.031 92.7656 236.375C92.651 236.714 92.5938 237.073 92.5938 237.453ZM105.664 240.359V230H107.117V242H105.789L105.664 240.359ZM99.9766 237.867V237.703C99.9766 237.057 100.055 236.471 100.211 235.945C100.372 235.414 100.599 234.958 100.891 234.578C101.188 234.198 101.539 233.906 101.945 233.703C102.357 233.495 102.815 233.391 103.32 233.391C103.852 233.391 104.315 233.484 104.711 233.672C105.112 233.854 105.451 234.122 105.727 234.477C106.008 234.826 106.229 235.247 106.391 235.742C106.552 236.237 106.664 236.797 106.727 237.422V238.141C106.669 238.76 106.557 239.318 106.391 239.812C106.229 240.307 106.008 240.729 105.727 241.078C105.451 241.427 105.112 241.695 104.711 241.883C104.31 242.065 103.841 242.156 103.305 242.156C102.81 242.156 102.357 242.049 101.945 241.836C101.539 241.622 101.188 241.323 100.891 240.938C100.599 240.552 100.372 240.099 100.211 239.578C100.055 239.052 99.9766 238.482 99.9766 237.867ZM101.43 237.703V237.867C101.43 238.289 101.471 238.685 101.555 239.055C101.643 239.424 101.779 239.75 101.961 240.031C102.143 240.312 102.375 240.534 102.656 240.695C102.938 240.852 103.273 240.93 103.664 240.93C104.143 240.93 104.536 240.828 104.844 240.625C105.156 240.422 105.406 240.154 105.594 239.82C105.781 239.487 105.927 239.125 106.031 238.734V236.852C105.969 236.565 105.878 236.289 105.758 236.023C105.643 235.753 105.492 235.513 105.305 235.305C105.122 235.091 104.896 234.922 104.625 234.797C104.359 234.672 104.044 234.609 103.68 234.609C103.284 234.609 102.943 234.693 102.656 234.859C102.375 235.021 102.143 235.245 101.961 235.531C101.779 235.812 101.643 236.141 101.555 236.516C101.471 236.885 101.43 237.281 101.43 237.703ZM118.258 239.758C118.258 239.549 118.211 239.357 118.117 239.18C118.029 238.997 117.844 238.833 117.562 238.688C117.286 238.536 116.87 238.406 116.312 238.297C115.844 238.198 115.419 238.081 115.039 237.945C114.664 237.81 114.344 237.646 114.078 237.453C113.818 237.26 113.617 237.034 113.477 236.773C113.336 236.513 113.266 236.208 113.266 235.859C113.266 235.526 113.339 235.211 113.484 234.914C113.635 234.617 113.846 234.354 114.117 234.125C114.393 233.896 114.724 233.716 115.109 233.586C115.495 233.456 115.924 233.391 116.398 233.391C117.076 233.391 117.654 233.51 118.133 233.75C118.612 233.99 118.979 234.31 119.234 234.711C119.49 235.107 119.617 235.547 119.617 236.031H118.172C118.172 235.797 118.102 235.57 117.961 235.352C117.826 235.128 117.625 234.943 117.359 234.797C117.099 234.651 116.779 234.578 116.398 234.578C115.997 234.578 115.672 234.641 115.422 234.766C115.177 234.885 114.997 235.039 114.883 235.227C114.773 235.414 114.719 235.612 114.719 235.82C114.719 235.977 114.745 236.117 114.797 236.242C114.854 236.362 114.953 236.474 115.094 236.578C115.234 236.677 115.432 236.771 115.688 236.859C115.943 236.948 116.268 237.036 116.664 237.125C117.357 237.281 117.927 237.469 118.375 237.688C118.823 237.906 119.156 238.174 119.375 238.492C119.594 238.81 119.703 239.195 119.703 239.648C119.703 240.018 119.625 240.357 119.469 240.664C119.318 240.971 119.096 241.237 118.805 241.461C118.518 241.68 118.174 241.852 117.773 241.977C117.378 242.096 116.932 242.156 116.438 242.156C115.693 242.156 115.062 242.023 114.547 241.758C114.031 241.492 113.641 241.148 113.375 240.727C113.109 240.305 112.977 239.859 112.977 239.391H114.43C114.451 239.786 114.565 240.102 114.773 240.336C114.982 240.565 115.237 240.729 115.539 240.828C115.841 240.922 116.141 240.969 116.438 240.969C116.833 240.969 117.164 240.917 117.43 240.812C117.701 240.708 117.906 240.565 118.047 240.383C118.188 240.201 118.258 239.992 118.258 239.758ZM123.039 235.227V242H121.586V233.547H122.961L123.039 235.227ZM122.742 237.453L122.07 237.43C122.076 236.852 122.151 236.318 122.297 235.828C122.443 235.333 122.659 234.904 122.945 234.539C123.232 234.174 123.589 233.893 124.016 233.695C124.443 233.492 124.938 233.391 125.5 233.391C125.896 233.391 126.26 233.448 126.594 233.562C126.927 233.672 127.216 233.846 127.461 234.086C127.706 234.326 127.896 234.633 128.031 235.008C128.167 235.383 128.234 235.836 128.234 236.367V242H126.789V236.438C126.789 235.995 126.714 235.641 126.562 235.375C126.417 235.109 126.208 234.917 125.938 234.797C125.667 234.672 125.349 234.609 124.984 234.609C124.557 234.609 124.201 234.685 123.914 234.836C123.628 234.987 123.398 235.195 123.227 235.461C123.055 235.727 122.93 236.031 122.852 236.375C122.779 236.714 122.742 237.073 122.742 237.453ZM128.219 236.656L127.25 236.953C127.255 236.49 127.331 236.044 127.477 235.617C127.628 235.19 127.844 234.81 128.125 234.477C128.411 234.143 128.763 233.88 129.18 233.688C129.596 233.49 130.073 233.391 130.609 233.391C131.062 233.391 131.464 233.451 131.812 233.57C132.167 233.69 132.464 233.875 132.703 234.125C132.948 234.37 133.133 234.685 133.258 235.07C133.383 235.456 133.445 235.914 133.445 236.445V242H131.992V236.43C131.992 235.956 131.917 235.589 131.766 235.328C131.62 235.062 131.411 234.878 131.141 234.773C130.875 234.664 130.557 234.609 130.188 234.609C129.87 234.609 129.589 234.664 129.344 234.773C129.099 234.883 128.893 235.034 128.727 235.227C128.56 235.414 128.432 235.63 128.344 235.875C128.26 236.12 128.219 236.38 128.219 236.656ZM135.25 237.867V237.688C135.25 237.078 135.339 236.513 135.516 235.992C135.693 235.466 135.948 235.01 136.281 234.625C136.615 234.234 137.018 233.932 137.492 233.719C137.966 233.5 138.497 233.391 139.086 233.391C139.68 233.391 140.214 233.5 140.688 233.719C141.167 233.932 141.573 234.234 141.906 234.625C142.245 235.01 142.503 235.466 142.68 235.992C142.857 236.513 142.945 237.078 142.945 237.688V237.867C142.945 238.477 142.857 239.042 142.68 239.562C142.503 240.083 142.245 240.539 141.906 240.93C141.573 241.315 141.169 241.617 140.695 241.836C140.227 242.049 139.695 242.156 139.102 242.156C138.508 242.156 137.974 242.049 137.5 241.836C137.026 241.617 136.62 241.315 136.281 240.93C135.948 240.539 135.693 240.083 135.516 239.562C135.339 239.042 135.25 238.477 135.25 237.867ZM136.695 237.688V237.867C136.695 238.289 136.745 238.688 136.844 239.062C136.943 239.432 137.091 239.76 137.289 240.047C137.492 240.333 137.745 240.56 138.047 240.727C138.349 240.888 138.701 240.969 139.102 240.969C139.497 240.969 139.844 240.888 140.141 240.727C140.443 240.56 140.693 240.333 140.891 240.047C141.089 239.76 141.237 239.432 141.336 239.062C141.44 238.688 141.492 238.289 141.492 237.867V237.688C141.492 237.271 141.44 236.878 141.336 236.508C141.237 236.133 141.086 235.802 140.883 235.516C140.685 235.224 140.435 234.995 140.133 234.828C139.836 234.661 139.487 234.578 139.086 234.578C138.69 234.578 138.341 234.661 138.039 234.828C137.742 234.995 137.492 235.224 137.289 235.516C137.091 235.802 136.943 236.133 136.844 236.508C136.745 236.878 136.695 237.271 136.695 237.688ZM144.375 237.867V237.688C144.375 237.078 144.464 236.513 144.641 235.992C144.818 235.466 145.073 235.01 145.406 234.625C145.74 234.234 146.143 233.932 146.617 233.719C147.091 233.5 147.622 233.391 148.211 233.391C148.805 233.391 149.339 233.5 149.812 233.719C150.292 233.932 150.698 234.234 151.031 234.625C151.37 235.01 151.628 235.466 151.805 235.992C151.982 236.513 152.07 237.078 152.07 237.688V237.867C152.07 238.477 151.982 239.042 151.805 239.562C151.628 240.083 151.37 240.539 151.031 240.93C150.698 241.315 150.294 241.617 149.82 241.836C149.352 242.049 148.82 242.156 148.227 242.156C147.633 242.156 147.099 242.049 146.625 241.836C146.151 241.617 145.745 241.315 145.406 240.93C145.073 240.539 144.818 240.083 144.641 239.562C144.464 239.042 144.375 238.477 144.375 237.867ZM145.82 237.688V237.867C145.82 238.289 145.87 238.688 145.969 239.062C146.068 239.432 146.216 239.76 146.414 240.047C146.617 240.333 146.87 240.56 147.172 240.727C147.474 240.888 147.826 240.969 148.227 240.969C148.622 240.969 148.969 240.888 149.266 240.727C149.568 240.56 149.818 240.333 150.016 240.047C150.214 239.76 150.362 239.432 150.461 239.062C150.565 238.688 150.617 238.289 150.617 237.867V237.688C150.617 237.271 150.565 236.878 150.461 236.508C150.362 236.133 150.211 235.802 150.008 235.516C149.81 235.224 149.56 234.995 149.258 234.828C148.961 234.661 148.612 234.578 148.211 234.578C147.815 234.578 147.466 234.661 147.164 234.828C146.867 234.995 146.617 235.224 146.414 235.516C146.216 235.802 146.068 236.133 145.969 236.508C145.87 236.878 145.82 237.271 145.82 237.688ZM157.422 233.547V234.656H152.852V233.547H157.422ZM154.398 231.492H155.844V239.906C155.844 240.193 155.888 240.409 155.977 240.555C156.065 240.701 156.18 240.797 156.32 240.844C156.461 240.891 156.612 240.914 156.773 240.914C156.893 240.914 157.018 240.904 157.148 240.883C157.284 240.857 157.385 240.836 157.453 240.82L157.461 242C157.346 242.036 157.195 242.07 157.008 242.102C156.826 242.138 156.604 242.156 156.344 242.156C155.99 242.156 155.664 242.086 155.367 241.945C155.07 241.805 154.833 241.57 154.656 241.242C154.484 240.909 154.398 240.461 154.398 239.898V231.492ZM160.562 230V242H159.117V230H160.562ZM160.219 237.453L159.617 237.43C159.622 236.852 159.708 236.318 159.875 235.828C160.042 235.333 160.276 234.904 160.578 234.539C160.88 234.174 161.24 233.893 161.656 233.695C162.078 233.492 162.544 233.391 163.055 233.391C163.471 233.391 163.846 233.448 164.18 233.562C164.513 233.672 164.797 233.849 165.031 234.094C165.271 234.339 165.453 234.656 165.578 235.047C165.703 235.432 165.766 235.904 165.766 236.461V242H164.312V236.445C164.312 236.003 164.247 235.648 164.117 235.383C163.987 235.112 163.797 234.917 163.547 234.797C163.297 234.672 162.99 234.609 162.625 234.609C162.266 234.609 161.938 234.685 161.641 234.836C161.349 234.987 161.096 235.195 160.883 235.461C160.674 235.727 160.51 236.031 160.391 236.375C160.276 236.714 160.219 237.073 160.219 237.453ZM58.1719 266.156C57.5833 266.156 57.0495 266.057 56.5703 265.859C56.0964 265.656 55.6875 265.372 55.3438 265.008C55.0052 264.643 54.7448 264.211 54.5625 263.711C54.3802 263.211 54.2891 262.664 54.2891 262.07V261.742C54.2891 261.055 54.3906 260.443 54.5938 259.906C54.7969 259.365 55.0729 258.906 55.4219 258.531C55.7708 258.156 56.1667 257.872 56.6094 257.68C57.0521 257.487 57.5104 257.391 57.9844 257.391C58.5885 257.391 59.1094 257.495 59.5469 257.703C59.9896 257.911 60.3516 258.203 60.6328 258.578C60.9141 258.948 61.1224 259.385 61.2578 259.891C61.3932 260.391 61.4609 260.938 61.4609 261.531V262.18H55.1484V261H60.0156V260.891C59.9948 260.516 59.9167 260.151 59.7812 259.797C59.651 259.443 59.4427 259.151 59.1562 258.922C58.8698 258.693 58.4792 258.578 57.9844 258.578C57.6562 258.578 57.3542 258.648 57.0781 258.789C56.8021 258.924 56.5651 259.128 56.3672 259.398C56.1693 259.669 56.0156 260 55.9062 260.391C55.7969 260.781 55.7422 261.232 55.7422 261.742V262.07C55.7422 262.471 55.7969 262.849 55.9062 263.203C56.0208 263.552 56.1849 263.859 56.3984 264.125C56.6172 264.391 56.8802 264.599 57.1875 264.75C57.5 264.901 57.8542 264.977 58.25 264.977C58.7604 264.977 59.1927 264.872 59.5469 264.664C59.901 264.456 60.2109 264.177 60.4766 263.828L61.3516 264.523C61.1693 264.799 60.9375 265.062 60.6562 265.312C60.375 265.562 60.0286 265.766 59.6172 265.922C59.2109 266.078 58.7292 266.156 58.1719 266.156ZM64.125 257.547L65.9766 260.625L67.8516 257.547H69.5469L66.7812 261.719L69.6328 266H67.9609L66.0078 262.828L64.0547 266H62.375L65.2188 261.719L62.4609 257.547H64.125ZM72.5312 259.172V269.25H71.0781V257.547H72.4062L72.5312 259.172ZM78.2266 261.703V261.867C78.2266 262.482 78.1536 263.052 78.0078 263.578C77.862 264.099 77.6484 264.552 77.3672 264.938C77.0911 265.323 76.75 265.622 76.3438 265.836C75.9375 266.049 75.4714 266.156 74.9453 266.156C74.4089 266.156 73.9349 266.068 73.5234 265.891C73.112 265.714 72.763 265.456 72.4766 265.117C72.1901 264.779 71.9609 264.372 71.7891 263.898C71.6224 263.424 71.5078 262.891 71.4453 262.297V261.422C71.5078 260.797 71.625 260.237 71.7969 259.742C71.9688 259.247 72.1953 258.826 72.4766 258.477C72.763 258.122 73.1094 257.854 73.5156 257.672C73.9219 257.484 74.3906 257.391 74.9219 257.391C75.4531 257.391 75.9245 257.495 76.3359 257.703C76.7474 257.906 77.0938 258.198 77.375 258.578C77.6562 258.958 77.8672 259.414 78.0078 259.945C78.1536 260.471 78.2266 261.057 78.2266 261.703ZM76.7734 261.867V261.703C76.7734 261.281 76.7292 260.885 76.6406 260.516C76.5521 260.141 76.4141 259.812 76.2266 259.531C76.0443 259.245 75.8099 259.021 75.5234 258.859C75.237 258.693 74.8958 258.609 74.5 258.609C74.1354 258.609 73.8177 258.672 73.5469 258.797C73.2812 258.922 73.0547 259.091 72.8672 259.305C72.6797 259.513 72.526 259.753 72.4062 260.023C72.2917 260.289 72.2057 260.565 72.1484 260.852V262.875C72.2526 263.24 72.3984 263.583 72.5859 263.906C72.7734 264.224 73.0234 264.482 73.3359 264.68C73.6484 264.872 74.0417 264.969 74.5156 264.969C74.9062 264.969 75.2422 264.888 75.5234 264.727C75.8099 264.56 76.0443 264.333 76.2266 264.047C76.4141 263.76 76.5521 263.432 76.6406 263.062C76.7292 262.688 76.7734 262.289 76.7734 261.867ZM83.5781 266.156C82.9896 266.156 82.4557 266.057 81.9766 265.859C81.5026 265.656 81.0938 265.372 80.75 265.008C80.4115 264.643 80.151 264.211 79.9688 263.711C79.7865 263.211 79.6953 262.664 79.6953 262.07V261.742C79.6953 261.055 79.7969 260.443 80 259.906C80.2031 259.365 80.4792 258.906 80.8281 258.531C81.1771 258.156 81.5729 257.872 82.0156 257.68C82.4583 257.487 82.9167 257.391 83.3906 257.391C83.9948 257.391 84.5156 257.495 84.9531 257.703C85.3958 257.911 85.7578 258.203 86.0391 258.578C86.3203 258.948 86.5286 259.385 86.6641 259.891C86.7995 260.391 86.8672 260.938 86.8672 261.531V262.18H80.5547V261H85.4219V260.891C85.401 260.516 85.3229 260.151 85.1875 259.797C85.0573 259.443 84.849 259.151 84.5625 258.922C84.276 258.693 83.8854 258.578 83.3906 258.578C83.0625 258.578 82.7604 258.648 82.4844 258.789C82.2083 258.924 81.9714 259.128 81.7734 259.398C81.5755 259.669 81.4219 260 81.3125 260.391C81.2031 260.781 81.1484 261.232 81.1484 261.742V262.07C81.1484 262.471 81.2031 262.849 81.3125 263.203C81.4271 263.552 81.5911 263.859 81.8047 264.125C82.0234 264.391 82.2865 264.599 82.5938 264.75C82.9062 264.901 83.2604 264.977 83.6562 264.977C84.1667 264.977 84.599 264.872 84.9531 264.664C85.3073 264.456 85.6172 264.177 85.8828 263.828L86.7578 264.523C86.5755 264.799 86.3438 265.062 86.0625 265.312C85.7812 265.562 85.4349 265.766 85.0234 265.922C84.6172 266.078 84.1354 266.156 83.5781 266.156ZM90 258.875V266H88.5547V257.547H89.9609L90 258.875ZM92.6406 257.5L92.6328 258.844C92.513 258.818 92.3984 258.802 92.2891 258.797C92.1849 258.786 92.0651 258.781 91.9297 258.781C91.5964 258.781 91.3021 258.833 91.0469 258.938C90.7917 259.042 90.5755 259.188 90.3984 259.375C90.2214 259.562 90.0807 259.786 89.9766 260.047C89.8776 260.302 89.8125 260.583 89.7812 260.891L89.375 261.125C89.375 260.615 89.4245 260.135 89.5234 259.688C89.6276 259.24 89.7865 258.844 90 258.5C90.2135 258.151 90.4844 257.88 90.8125 257.688C91.1458 257.49 91.5417 257.391 92 257.391C92.1042 257.391 92.224 257.404 92.3594 257.43C92.4948 257.451 92.5885 257.474 92.6406 257.5ZM95.5469 257.547V266H94.0938V257.547H95.5469ZM93.9844 255.305C93.9844 255.07 94.0547 254.872 94.1953 254.711C94.3411 254.549 94.5547 254.469 94.8359 254.469C95.112 254.469 95.3229 254.549 95.4688 254.711C95.6198 254.872 95.6953 255.07 95.6953 255.305C95.6953 255.529 95.6198 255.721 95.4688 255.883C95.3229 256.039 95.112 256.117 94.8359 256.117C94.5547 256.117 94.3411 256.039 94.1953 255.883C94.0547 255.721 93.9844 255.529 93.9844 255.305ZM101.375 266.156C100.786 266.156 100.253 266.057 99.7734 265.859C99.2995 265.656 98.8906 265.372 98.5469 265.008C98.2083 264.643 97.9479 264.211 97.7656 263.711C97.5833 263.211 97.4922 262.664 97.4922 262.07V261.742C97.4922 261.055 97.5938 260.443 97.7969 259.906C98 259.365 98.276 258.906 98.625 258.531C98.974 258.156 99.3698 257.872 99.8125 257.68C100.255 257.487 100.714 257.391 101.188 257.391C101.792 257.391 102.312 257.495 102.75 257.703C103.193 257.911 103.555 258.203 103.836 258.578C104.117 258.948 104.326 259.385 104.461 259.891C104.596 260.391 104.664 260.938 104.664 261.531V262.18H98.3516V261H103.219V260.891C103.198 260.516 103.12 260.151 102.984 259.797C102.854 259.443 102.646 259.151 102.359 258.922C102.073 258.693 101.682 258.578 101.188 258.578C100.859 258.578 100.557 258.648 100.281 258.789C100.005 258.924 99.7682 259.128 99.5703 259.398C99.3724 259.669 99.2188 260 99.1094 260.391C99 260.781 98.9453 261.232 98.9453 261.742V262.07C98.9453 262.471 99 262.849 99.1094 263.203C99.224 263.552 99.388 263.859 99.6016 264.125C99.8203 264.391 100.083 264.599 100.391 264.75C100.703 264.901 101.057 264.977 101.453 264.977C101.964 264.977 102.396 264.872 102.75 264.664C103.104 264.456 103.414 264.177 103.68 263.828L104.555 264.523C104.372 264.799 104.141 265.062 103.859 265.312C103.578 265.562 103.232 265.766 102.82 265.922C102.414 266.078 101.932 266.156 101.375 266.156ZM107.797 259.352V266H106.352V257.547H107.719L107.797 259.352ZM107.453 261.453L106.852 261.43C106.857 260.852 106.943 260.318 107.109 259.828C107.276 259.333 107.51 258.904 107.812 258.539C108.115 258.174 108.474 257.893 108.891 257.695C109.312 257.492 109.779 257.391 110.289 257.391C110.706 257.391 111.081 257.448 111.414 257.562C111.747 257.672 112.031 257.849 112.266 258.094C112.505 258.339 112.688 258.656 112.812 259.047C112.938 259.432 113 259.904 113 260.461V266H111.547V260.445C111.547 260.003 111.482 259.648 111.352 259.383C111.221 259.112 111.031 258.917 110.781 258.797C110.531 258.672 110.224 258.609 109.859 258.609C109.5 258.609 109.172 258.685 108.875 258.836C108.583 258.987 108.331 259.195 108.117 259.461C107.909 259.727 107.745 260.031 107.625 260.375C107.51 260.714 107.453 261.073 107.453 261.453ZM118.578 264.969C118.922 264.969 119.24 264.898 119.531 264.758C119.823 264.617 120.062 264.424 120.25 264.18C120.438 263.93 120.544 263.646 120.57 263.328H121.945C121.919 263.828 121.75 264.294 121.438 264.727C121.13 265.154 120.727 265.5 120.227 265.766C119.727 266.026 119.177 266.156 118.578 266.156C117.943 266.156 117.388 266.044 116.914 265.82C116.445 265.596 116.055 265.289 115.742 264.898C115.435 264.508 115.203 264.06 115.047 263.555C114.896 263.044 114.82 262.505 114.82 261.938V261.609C114.82 261.042 114.896 260.505 115.047 260C115.203 259.49 115.435 259.039 115.742 258.648C116.055 258.258 116.445 257.951 116.914 257.727C117.388 257.503 117.943 257.391 118.578 257.391C119.24 257.391 119.818 257.526 120.312 257.797C120.807 258.062 121.195 258.427 121.477 258.891C121.763 259.349 121.919 259.87 121.945 260.453H120.57C120.544 260.104 120.445 259.789 120.273 259.508C120.107 259.227 119.878 259.003 119.586 258.836C119.299 258.664 118.964 258.578 118.578 258.578C118.135 258.578 117.763 258.667 117.461 258.844C117.164 259.016 116.927 259.25 116.75 259.547C116.578 259.839 116.453 260.164 116.375 260.523C116.302 260.878 116.266 261.24 116.266 261.609V261.938C116.266 262.307 116.302 262.672 116.375 263.031C116.448 263.391 116.57 263.716 116.742 264.008C116.919 264.299 117.156 264.534 117.453 264.711C117.755 264.883 118.13 264.969 118.578 264.969ZM127.078 266.156C126.49 266.156 125.956 266.057 125.477 265.859C125.003 265.656 124.594 265.372 124.25 265.008C123.911 264.643 123.651 264.211 123.469 263.711C123.286 263.211 123.195 262.664 123.195 262.07V261.742C123.195 261.055 123.297 260.443 123.5 259.906C123.703 259.365 123.979 258.906 124.328 258.531C124.677 258.156 125.073 257.872 125.516 257.68C125.958 257.487 126.417 257.391 126.891 257.391C127.495 257.391 128.016 257.495 128.453 257.703C128.896 257.911 129.258 258.203 129.539 258.578C129.82 258.948 130.029 259.385 130.164 259.891C130.299 260.391 130.367 260.938 130.367 261.531V262.18H124.055V261H128.922V260.891C128.901 260.516 128.823 260.151 128.688 259.797C128.557 259.443 128.349 259.151 128.062 258.922C127.776 258.693 127.385 258.578 126.891 258.578C126.562 258.578 126.26 258.648 125.984 258.789C125.708 258.924 125.471 259.128 125.273 259.398C125.076 259.669 124.922 260 124.812 260.391C124.703 260.781 124.648 261.232 124.648 261.742V262.07C124.648 262.471 124.703 262.849 124.812 263.203C124.927 263.552 125.091 263.859 125.305 264.125C125.523 264.391 125.786 264.599 126.094 264.75C126.406 264.901 126.76 264.977 127.156 264.977C127.667 264.977 128.099 264.872 128.453 264.664C128.807 264.456 129.117 264.177 129.383 263.828L130.258 264.523C130.076 264.799 129.844 265.062 129.562 265.312C129.281 265.562 128.935 265.766 128.523 265.922C128.117 266.078 127.635 266.156 127.078 266.156ZM136.977 263.758C136.977 263.549 136.93 263.357 136.836 263.18C136.747 262.997 136.562 262.833 136.281 262.688C136.005 262.536 135.589 262.406 135.031 262.297C134.562 262.198 134.138 262.081 133.758 261.945C133.383 261.81 133.062 261.646 132.797 261.453C132.536 261.26 132.336 261.034 132.195 260.773C132.055 260.513 131.984 260.208 131.984 259.859C131.984 259.526 132.057 259.211 132.203 258.914C132.354 258.617 132.565 258.354 132.836 258.125C133.112 257.896 133.443 257.716 133.828 257.586C134.214 257.456 134.643 257.391 135.117 257.391C135.794 257.391 136.372 257.51 136.852 257.75C137.331 257.99 137.698 258.31 137.953 258.711C138.208 259.107 138.336 259.547 138.336 260.031H136.891C136.891 259.797 136.82 259.57 136.68 259.352C136.544 259.128 136.344 258.943 136.078 258.797C135.818 258.651 135.497 258.578 135.117 258.578C134.716 258.578 134.391 258.641 134.141 258.766C133.896 258.885 133.716 259.039 133.602 259.227C133.492 259.414 133.438 259.612 133.438 259.82C133.438 259.977 133.464 260.117 133.516 260.242C133.573 260.362 133.672 260.474 133.812 260.578C133.953 260.677 134.151 260.771 134.406 260.859C134.661 260.948 134.987 261.036 135.383 261.125C136.076 261.281 136.646 261.469 137.094 261.688C137.542 261.906 137.875 262.174 138.094 262.492C138.312 262.81 138.422 263.195 138.422 263.648C138.422 264.018 138.344 264.357 138.188 264.664C138.036 264.971 137.815 265.237 137.523 265.461C137.237 265.68 136.893 265.852 136.492 265.977C136.096 266.096 135.651 266.156 135.156 266.156C134.411 266.156 133.781 266.023 133.266 265.758C132.75 265.492 132.359 265.148 132.094 264.727C131.828 264.305 131.695 263.859 131.695 263.391H133.148C133.169 263.786 133.284 264.102 133.492 264.336C133.701 264.565 133.956 264.729 134.258 264.828C134.56 264.922 134.859 264.969 135.156 264.969C135.552 264.969 135.883 264.917 136.148 264.812C136.419 264.708 136.625 264.565 136.766 264.383C136.906 264.201 136.977 263.992 136.977 263.758ZM140.344 265.234C140.344 264.99 140.419 264.784 140.57 264.617C140.727 264.445 140.951 264.359 141.242 264.359C141.534 264.359 141.755 264.445 141.906 264.617C142.062 264.784 142.141 264.99 142.141 265.234C142.141 265.474 142.062 265.677 141.906 265.844C141.755 266.01 141.534 266.094 141.242 266.094C140.951 266.094 140.727 266.01 140.57 265.844C140.419 265.677 140.344 265.474 140.344 265.234Z" fill="#2A394E"/>
<path d="M58.5353 172.804C58.4393 172.972 58.3353 173.096 58.2233 173.176C58.1193 173.248 57.9873 173.284 57.8273 173.284C57.6593 173.284 57.4753 173.224 57.2753 173.104C57.0833 172.976 56.8513 172.836 56.5793 172.684C56.3073 172.532 55.9873 172.396 55.6193 172.276C55.2593 172.148 54.8313 172.084 54.3353 172.084C53.8873 172.084 53.4953 172.14 53.1593 172.252C52.8233 172.356 52.5393 172.504 52.3073 172.696C52.0833 172.888 51.9153 173.12 51.8033 173.392C51.6913 173.656 51.6353 173.948 51.6353 174.268C51.6353 174.676 51.7473 175.016 51.9713 175.288C52.2033 175.56 52.5073 175.792 52.8833 175.984C53.2593 176.176 53.6873 176.348 54.1673 176.5C54.6473 176.652 55.1393 176.816 55.6433 176.992C56.1473 177.16 56.6393 177.36 57.1193 177.592C57.5993 177.816 58.0273 178.104 58.4033 178.456C58.7793 178.8 59.0793 179.224 59.3033 179.728C59.5353 180.232 59.6513 180.844 59.6513 181.564C59.6513 182.348 59.5153 183.084 59.2433 183.772C58.9793 184.452 58.5873 185.048 58.0673 185.56C57.5553 186.064 56.9273 186.464 56.1833 186.76C55.4393 187.048 54.5873 187.192 53.6273 187.192C53.0753 187.192 52.5313 187.136 51.9953 187.024C51.4593 186.92 50.9433 186.768 50.4473 186.568C49.9593 186.368 49.4993 186.128 49.0673 185.848C48.6353 185.568 48.2513 185.256 47.9153 184.912L48.8633 183.364C48.9433 183.252 49.0473 183.16 49.1753 183.088C49.3033 183.008 49.4393 182.968 49.5833 182.968C49.7833 182.968 49.9993 183.052 50.2313 183.22C50.4633 183.38 50.7393 183.56 51.0593 183.76C51.3793 183.96 51.7513 184.144 52.1753 184.312C52.6073 184.472 53.1233 184.552 53.7233 184.552C54.6433 184.552 55.3553 184.336 55.8593 183.904C56.3633 183.464 56.6153 182.836 56.6153 182.02C56.6153 181.564 56.4993 181.192 56.2673 180.904C56.0433 180.616 55.7433 180.376 55.3673 180.184C54.9913 179.984 54.5633 179.816 54.0833 179.68C53.6033 179.544 53.1153 179.396 52.6193 179.236C52.1233 179.076 51.6353 178.884 51.1553 178.66C50.6753 178.436 50.2473 178.144 49.8713 177.784C49.4953 177.424 49.1913 176.976 48.9593 176.44C48.7353 175.896 48.6233 175.228 48.6233 174.436C48.6233 173.804 48.7473 173.188 48.9953 172.588C49.2513 171.988 49.6193 171.456 50.0993 170.992C50.5793 170.528 51.1713 170.156 51.8753 169.876C52.5793 169.596 53.3873 169.456 54.2993 169.456C55.3233 169.456 56.2673 169.616 57.1313 169.936C57.9953 170.256 58.7313 170.704 59.3393 171.28L58.5353 172.804ZM65.0243 174.688V187H62.0483V174.688H65.0243ZM65.4323 171.1C65.4323 171.356 65.3803 171.596 65.2763 171.82C65.1723 172.044 65.0323 172.24 64.8563 172.408C64.6883 172.576 64.4883 172.712 64.2563 172.816C64.0243 172.912 63.7763 172.96 63.5123 172.96C63.2563 172.96 63.0123 172.912 62.7803 172.816C62.5563 172.712 62.3603 172.576 62.1923 172.408C62.0243 172.24 61.8883 172.044 61.7843 171.82C61.6883 171.596 61.6403 171.356 61.6403 171.1C61.6403 170.836 61.6883 170.588 61.7843 170.356C61.8883 170.124 62.0243 169.924 62.1923 169.756C62.3603 169.588 62.5563 169.456 62.7803 169.36C63.0123 169.256 63.2563 169.204 63.5123 169.204C63.7763 169.204 64.0243 169.256 64.2563 169.36C64.4883 169.456 64.6883 169.588 64.8563 169.756C65.0323 169.924 65.1723 170.124 65.2763 170.356C65.3803 170.588 65.4323 170.836 65.4323 171.1ZM68.046 187V174.688H69.858C70.242 174.688 70.494 174.868 70.614 175.228L70.806 176.14C71.022 175.9 71.246 175.68 71.478 175.48C71.718 175.28 71.97 175.108 72.234 174.964C72.506 174.82 72.794 174.708 73.098 174.628C73.41 174.54 73.75 174.496 74.118 174.496C74.894 174.496 75.53 174.708 76.026 175.132C76.53 175.548 76.906 176.104 77.154 176.8C77.346 176.392 77.586 176.044 77.874 175.756C78.162 175.46 78.478 175.22 78.822 175.036C79.166 174.852 79.53 174.716 79.914 174.628C80.306 174.54 80.698 174.496 81.09 174.496C81.77 174.496 82.374 174.6 82.902 174.808C83.43 175.016 83.874 175.32 84.234 175.72C84.594 176.12 84.866 176.608 85.05 177.184C85.242 177.76 85.338 178.42 85.338 179.164V187H82.374V179.164C82.374 178.38 82.202 177.792 81.858 177.4C81.514 177 81.01 176.8 80.346 176.8C80.042 176.8 79.758 176.852 79.494 176.956C79.238 177.06 79.01 177.212 78.81 177.412C78.618 177.604 78.466 177.848 78.354 178.144C78.242 178.44 78.186 178.78 78.186 179.164V187H75.21V179.164C75.21 178.34 75.042 177.74 74.706 177.364C74.378 176.988 73.894 176.8 73.254 176.8C72.822 176.8 72.418 176.908 72.042 177.124C71.674 177.332 71.33 177.62 71.01 177.988V187H68.046ZM91.1194 183.808C91.4554 184.216 91.8194 184.504 92.2114 184.672C92.6114 184.84 93.0434 184.924 93.5074 184.924C93.9554 184.924 94.3594 184.84 94.7194 184.672C95.0794 184.504 95.3834 184.248 95.6314 183.904C95.8874 183.56 96.0834 183.128 96.2194 182.608C96.3554 182.08 96.4234 181.46 96.4234 180.748C96.4234 180.028 96.3634 179.42 96.2434 178.924C96.1314 178.42 95.9674 178.012 95.7514 177.7C95.5354 177.388 95.2714 177.16 94.9594 177.016C94.6554 176.872 94.3074 176.8 93.9154 176.8C93.2994 176.8 92.7754 176.932 92.3434 177.196C91.9114 177.452 91.5034 177.816 91.1194 178.288V183.808ZM90.9634 176.368C91.4674 175.8 92.0394 175.34 92.6794 174.988C93.3194 174.636 94.0714 174.46 94.9354 174.46C95.6074 174.46 96.2194 174.6 96.7714 174.88C97.3314 175.16 97.8114 175.568 98.2114 176.104C98.6194 176.632 98.9314 177.288 99.1474 178.072C99.3714 178.848 99.4834 179.74 99.4834 180.748C99.4834 181.668 99.3594 182.52 99.1114 183.304C98.8634 184.088 98.5074 184.768 98.0434 185.344C97.5874 185.92 97.0314 186.372 96.3754 186.7C95.7274 187.02 94.9994 187.18 94.1914 187.18C93.5034 187.18 92.9154 187.076 92.4274 186.868C91.9394 186.652 91.5034 186.356 91.1194 185.98V191.02H88.1554V174.688H89.9674C90.3514 174.688 90.6034 174.868 90.7234 175.228L90.9634 176.368ZM104.796 169.168V187H101.832V169.168H104.796ZM110.821 174.688V187H107.845V174.688H110.821ZM111.229 171.1C111.229 171.356 111.177 171.596 111.073 171.82C110.969 172.044 110.829 172.24 110.653 172.408C110.485 172.576 110.285 172.712 110.053 172.816C109.821 172.912 109.573 172.96 109.309 172.96C109.053 172.96 108.809 172.912 108.577 172.816C108.353 172.712 108.157 172.576 107.989 172.408C107.821 172.24 107.685 172.044 107.581 171.82C107.485 171.596 107.437 171.356 107.437 171.1C107.437 170.836 107.485 170.588 107.581 170.356C107.685 170.124 107.821 169.924 107.989 169.756C108.157 169.588 108.353 169.456 108.577 169.36C108.809 169.256 109.053 169.204 109.309 169.204C109.573 169.204 109.821 169.256 110.053 169.36C110.285 169.456 110.485 169.588 110.653 169.756C110.829 169.924 110.969 170.124 111.073 170.356C111.177 170.588 111.229 170.836 111.229 171.1ZM122.663 177.292C122.575 177.404 122.487 177.492 122.399 177.556C122.319 177.62 122.199 177.652 122.039 177.652C121.887 177.652 121.739 177.608 121.595 177.52C121.451 177.424 121.279 177.32 121.079 177.208C120.879 177.088 120.639 176.984 120.359 176.896C120.087 176.8 119.747 176.752 119.339 176.752C118.819 176.752 118.363 176.848 117.971 177.04C117.579 177.224 117.251 177.492 116.987 177.844C116.731 178.196 116.539 178.624 116.411 179.128C116.283 179.624 116.219 180.188 116.219 180.82C116.219 181.476 116.287 182.06 116.423 182.572C116.567 183.084 116.771 183.516 117.035 183.868C117.299 184.212 117.619 184.476 117.995 184.66C118.371 184.836 118.795 184.924 119.267 184.924C119.739 184.924 120.119 184.868 120.407 184.756C120.703 184.636 120.951 184.508 121.151 184.372C121.351 184.228 121.523 184.1 121.667 183.988C121.819 183.868 121.987 183.808 122.171 183.808C122.411 183.808 122.591 183.9 122.711 184.084L123.563 185.164C123.235 185.548 122.879 185.872 122.495 186.136C122.111 186.392 121.711 186.6 121.295 186.76C120.887 186.912 120.463 187.02 120.023 187.084C119.591 187.148 119.159 187.18 118.727 187.18C117.967 187.18 117.251 187.04 116.579 186.76C115.907 186.472 115.319 186.056 114.815 185.512C114.311 184.968 113.911 184.304 113.615 183.52C113.327 182.728 113.183 181.828 113.183 180.82C113.183 179.916 113.311 179.08 113.567 178.312C113.831 177.536 114.215 176.868 114.719 176.308C115.223 175.74 115.847 175.296 116.591 174.976C117.335 174.656 118.191 174.496 119.159 174.496C120.079 174.496 120.883 174.644 121.571 174.94C122.267 175.236 122.891 175.66 123.443 176.212L122.663 177.292ZM128.493 174.688V187H125.517V174.688H128.493ZM128.901 171.1C128.901 171.356 128.849 171.596 128.745 171.82C128.641 172.044 128.501 172.24 128.325 172.408C128.157 172.576 127.957 172.712 127.725 172.816C127.493 172.912 127.245 172.96 126.981 172.96C126.725 172.96 126.481 172.912 126.249 172.816C126.025 172.712 125.829 172.576 125.661 172.408C125.493 172.24 125.357 172.044 125.253 171.82C125.157 171.596 125.109 171.356 125.109 171.1C125.109 170.836 125.157 170.588 125.253 170.356C125.357 170.124 125.493 169.924 125.661 169.756C125.829 169.588 126.025 169.456 126.249 169.36C126.481 169.256 126.725 169.204 126.981 169.204C127.245 169.204 127.493 169.256 127.725 169.36C127.957 169.456 128.157 169.588 128.325 169.756C128.501 169.924 128.641 170.124 128.745 170.356C128.849 170.588 128.901 170.836 128.901 171.1ZM135.619 187.192C134.547 187.192 133.723 186.892 133.147 186.292C132.579 185.684 132.295 184.848 132.295 183.784V176.908H131.035C130.875 176.908 130.739 176.856 130.627 176.752C130.515 176.648 130.459 176.492 130.459 176.284V175.108L132.439 174.784L133.063 171.424C133.103 171.264 133.179 171.14 133.291 171.052C133.403 170.964 133.547 170.92 133.723 170.92H135.259V174.796H138.547V176.908H135.259V183.58C135.259 183.964 135.351 184.264 135.535 184.48C135.727 184.696 135.987 184.804 136.315 184.804C136.499 184.804 136.651 184.784 136.771 184.744C136.899 184.696 137.007 184.648 137.095 184.6C137.191 184.552 137.275 184.508 137.347 184.468C137.419 184.42 137.491 184.396 137.563 184.396C137.651 184.396 137.723 184.42 137.779 184.468C137.835 184.508 137.895 184.572 137.959 184.66L138.847 186.1C138.415 186.46 137.919 186.732 137.359 186.916C136.799 187.1 136.219 187.192 135.619 187.192ZM151.628 174.688L144.92 190.384C144.832 190.592 144.716 190.748 144.572 190.852C144.436 190.964 144.224 191.02 143.936 191.02H141.728L144.032 186.076L139.052 174.688H141.656C141.888 174.688 142.068 174.744 142.196 174.856C142.332 174.968 142.432 175.096 142.496 175.24L145.112 181.624C145.2 181.84 145.272 182.056 145.328 182.272C145.392 182.488 145.452 182.708 145.508 182.932C145.58 182.708 145.652 182.488 145.724 182.272C145.796 182.048 145.876 181.828 145.964 181.612L148.436 175.24C148.5 175.08 148.604 174.948 148.748 174.844C148.9 174.74 149.068 174.688 149.252 174.688H151.628Z" fill="#0B051D"/>
<g filter="url(#filter0_d_401_15644)">
<rect x="50.5" y="45" width="95" height="95" rx="18" fill="#F9F8F8"/>
</g>
<path d="M99 79.0039L113 88.1039V97.9039L99 107.004L85 97.9039V88.1039L99 79.0039Z" stroke="#F85252" stroke-width="2.8" stroke-linecap="round" stroke-linejoin="round"/>
<path d="M99 107.002V97.9023" stroke="#F85252" stroke-width="2.8" stroke-linecap="round" stroke-linejoin="round"/>
<path d="M113 88.0977L99 97.8977L85 88.0977" stroke="#F85252" stroke-width="2.8" stroke-linecap="round" stroke-linejoin="round"/>
<path d="M85 97.8977L99 88.0977L113 97.8977" stroke="#F85252" stroke-width="2.8" stroke-linecap="round" stroke-linejoin="round"/>
<path d="M99 79.0039V88.1039" stroke="#F85252" stroke-width="2.8" stroke-linecap="round" stroke-linejoin="round"/>
<defs>
<filter id="filter0_d_401_15644" x="0.5" y="0" width="195" height="195" filterUnits="userSpaceOnUse" color-interpolation-filters="sRGB">
<feFlood flood-opacity="0" result="BackgroundImageFix"/>
<feColorMatrix in="SourceAlpha" type="matrix" values="0 0 0 0 0 0 0 0 0 0 0 0 0 0 0 0 0 0 127 0" result="hardAlpha"/>
<feOffset dy="5"/>
<feGaussianBlur stdDeviation="25"/>
<feComposite in2="hardAlpha" operator="out"/>
<feColorMatrix type="matrix" values="0 0 0 0 0 0 0 0 0 0 0 0 0 0 0 0 0 0 0.08 0"/>
<feBlend mode="normal" in2="BackgroundImageFix" result="effect1_dropShadow_401_15644"/>
<feBlend mode="normal" in="SourceGraphic" in2="effect1_dropShadow_401_15644" result="shape"/>
</filter>
</defs>
</svg>
