<svg width="196" height="311" viewBox="0 0 196 311" fill="none" xmlns="http://www.w3.org/2000/svg">
<path d="M7.65625 206.625V218H6.14844V206.625H7.65625ZM13.7188 209.547V210.656H9.14844V209.547H13.7188ZM10.6953 207.492H12.1406V215.906C12.1406 216.193 12.1849 216.409 12.2734 216.555C12.362 216.701 12.4766 216.797 12.6172 216.844C12.7578 216.891 12.9089 216.914 13.0703 216.914C13.1901 216.914 13.3151 216.904 13.4453 216.883C13.5807 216.857 13.6823 216.836 13.75 216.82L13.7578 218C13.6432 218.036 13.4922 218.07 13.3047 218.102C13.1224 218.138 12.901 218.156 12.6406 218.156C12.2865 218.156 11.9609 218.086 11.6641 217.945C11.3672 217.805 11.1302 217.57 10.9531 217.242C10.7812 216.909 10.6953 216.461 10.6953 215.898V207.492ZM16.2969 206V206.859L16.1328 209.734H15.125L15.1328 206.992V206H16.2969ZM22.5078 215.758C22.5078 215.549 22.4609 215.357 22.3672 215.18C22.2786 214.997 22.0938 214.833 21.8125 214.688C21.5365 214.536 21.1198 214.406 20.5625 214.297C20.0938 214.198 19.6693 214.081 19.2891 213.945C18.9141 213.81 18.5938 213.646 18.3281 213.453C18.0677 213.26 17.8672 213.034 17.7266 212.773C17.5859 212.513 17.5156 212.208 17.5156 211.859C17.5156 211.526 17.5885 211.211 17.7344 210.914C17.8854 210.617 18.0964 210.354 18.3672 210.125C18.6432 209.896 18.974 209.716 19.3594 209.586C19.7448 209.456 20.1745 209.391 20.6484 209.391C21.3255 209.391 21.9036 209.51 22.3828 209.75C22.862 209.99 23.2292 210.31 23.4844 210.711C23.7396 211.107 23.8672 211.547 23.8672 212.031H22.4219C22.4219 211.797 22.3516 211.57 22.2109 211.352C22.0755 211.128 21.875 210.943 21.6094 210.797C21.349 210.651 21.0286 210.578 20.6484 210.578C20.2474 210.578 19.9219 210.641 19.6719 210.766C19.4271 210.885 19.2474 211.039 19.1328 211.227C19.0234 211.414 18.9688 211.612 18.9688 211.82C18.9688 211.977 18.9948 212.117 19.0469 212.242C19.1042 212.362 19.2031 212.474 19.3438 212.578C19.4844 212.677 19.6823 212.771 19.9375 212.859C20.1927 212.948 20.5182 213.036 20.9141 213.125C21.6068 213.281 22.1771 213.469 22.625 213.688C23.0729 213.906 23.4062 214.174 23.625 214.492C23.8438 214.81 23.9531 215.195 23.9531 215.648C23.9531 216.018 23.875 216.357 23.7188 216.664C23.5677 216.971 23.3464 217.237 23.0547 217.461C22.7682 217.68 22.4245 217.852 22.0234 217.977C21.6276 218.096 21.1823 218.156 20.6875 218.156C19.9427 218.156 19.3125 218.023 18.7969 217.758C18.2812 217.492 17.8906 217.148 17.625 216.727C17.3594 216.305 17.2266 215.859 17.2266 215.391H18.6797C18.7005 215.786 18.8151 216.102 19.0234 216.336C19.2318 216.565 19.487 216.729 19.7891 216.828C20.0911 216.922 20.3906 216.969 20.6875 216.969C21.0833 216.969 21.4141 216.917 21.6797 216.812C21.9505 216.708 22.1562 216.565 22.2969 216.383C22.4375 216.201 22.5078 215.992 22.5078 215.758ZM33.2031 216.969C33.5469 216.969 33.8646 216.898 34.1562 216.758C34.4479 216.617 34.6875 216.424 34.875 216.18C35.0625 215.93 35.1693 215.646 35.1953 215.328H36.5703C36.5443 215.828 36.375 216.294 36.0625 216.727C35.7552 217.154 35.3516 217.5 34.8516 217.766C34.3516 218.026 33.8021 218.156 33.2031 218.156C32.5677 218.156 32.013 218.044 31.5391 217.82C31.0703 217.596 30.6797 217.289 30.3672 216.898C30.0599 216.508 29.8281 216.06 29.6719 215.555C29.5208 215.044 29.4453 214.505 29.4453 213.938V213.609C29.4453 213.042 29.5208 212.505 29.6719 212C29.8281 211.49 30.0599 211.039 30.3672 210.648C30.6797 210.258 31.0703 209.951 31.5391 209.727C32.013 209.503 32.5677 209.391 33.2031 209.391C33.8646 209.391 34.4427 209.526 34.9375 209.797C35.4323 210.062 35.8203 210.427 36.1016 210.891C36.388 211.349 36.5443 211.87 36.5703 212.453H35.1953C35.1693 212.104 35.0703 211.789 34.8984 211.508C34.7318 211.227 34.5026 211.003 34.2109 210.836C33.9245 210.664 33.5885 210.578 33.2031 210.578C32.7604 210.578 32.388 210.667 32.0859 210.844C31.7891 211.016 31.5521 211.25 31.375 211.547C31.2031 211.839 31.0781 212.164 31 212.523C30.9271 212.878 30.8906 213.24 30.8906 213.609V213.938C30.8906 214.307 30.9271 214.672 31 215.031C31.0729 215.391 31.1953 215.716 31.3672 216.008C31.5443 216.299 31.7812 216.534 32.0781 216.711C32.3802 216.883 32.7552 216.969 33.2031 216.969ZM39.6406 210.875V218H38.1953V209.547H39.6016L39.6406 210.875ZM42.2812 209.5L42.2734 210.844C42.1536 210.818 42.0391 210.802 41.9297 210.797C41.8255 210.786 41.7057 210.781 41.5703 210.781C41.237 210.781 40.9427 210.833 40.6875 210.938C40.4323 211.042 40.2161 211.188 40.0391 211.375C39.862 211.562 39.7214 211.786 39.6172 212.047C39.5182 212.302 39.4531 212.583 39.4219 212.891L39.0156 213.125C39.0156 212.615 39.0651 212.135 39.1641 211.688C39.2682 211.24 39.4271 210.844 39.6406 210.5C39.8542 210.151 40.125 209.88 40.4531 209.688C40.7865 209.49 41.1823 209.391 41.6406 209.391C41.7448 209.391 41.8646 209.404 42 209.43C42.1354 209.451 42.2292 209.474 42.2812 209.5ZM48.7891 216.047V209.547H50.2422V218H48.8594L48.7891 216.047ZM49.0625 214.266L49.6641 214.25C49.6641 214.812 49.6042 215.333 49.4844 215.812C49.3698 216.286 49.1823 216.698 48.9219 217.047C48.6615 217.396 48.3203 217.669 47.8984 217.867C47.4766 218.06 46.9635 218.156 46.3594 218.156C45.9479 218.156 45.5703 218.096 45.2266 217.977C44.888 217.857 44.5964 217.672 44.3516 217.422C44.1068 217.172 43.9167 216.846 43.7812 216.445C43.651 216.044 43.5859 215.562 43.5859 215V209.547H45.0312V215.016C45.0312 215.396 45.0729 215.711 45.1562 215.961C45.2448 216.206 45.362 216.401 45.5078 216.547C45.6589 216.688 45.8255 216.786 46.0078 216.844C46.1953 216.901 46.388 216.93 46.5859 216.93C47.2005 216.93 47.6875 216.812 48.0469 216.578C48.4062 216.339 48.6641 216.018 48.8203 215.617C48.9818 215.211 49.0625 214.76 49.0625 214.266ZM55.8281 216.969C56.1719 216.969 56.4896 216.898 56.7812 216.758C57.0729 216.617 57.3125 216.424 57.5 216.18C57.6875 215.93 57.7943 215.646 57.8203 215.328H59.1953C59.1693 215.828 59 216.294 58.6875 216.727C58.3802 217.154 57.9766 217.5 57.4766 217.766C56.9766 218.026 56.4271 218.156 55.8281 218.156C55.1927 218.156 54.638 218.044 54.1641 217.82C53.6953 217.596 53.3047 217.289 52.9922 216.898C52.6849 216.508 52.4531 216.06 52.2969 215.555C52.1458 215.044 52.0703 214.505 52.0703 213.938V213.609C52.0703 213.042 52.1458 212.505 52.2969 212C52.4531 211.49 52.6849 211.039 52.9922 210.648C53.3047 210.258 53.6953 209.951 54.1641 209.727C54.638 209.503 55.1927 209.391 55.8281 209.391C56.4896 209.391 57.0677 209.526 57.5625 209.797C58.0573 210.062 58.4453 210.427 58.7266 210.891C59.013 211.349 59.1693 211.87 59.1953 212.453H57.8203C57.7943 212.104 57.6953 211.789 57.5234 211.508C57.3568 211.227 57.1276 211.003 56.8359 210.836C56.5495 210.664 56.2135 210.578 55.8281 210.578C55.3854 210.578 55.013 210.667 54.7109 210.844C54.4141 211.016 54.1771 211.25 54 211.547C53.8281 211.839 53.7031 212.164 53.625 212.523C53.5521 212.878 53.5156 213.24 53.5156 213.609V213.938C53.5156 214.307 53.5521 214.672 53.625 215.031C53.6979 215.391 53.8203 215.716 53.9922 216.008C54.1693 216.299 54.4062 216.534 54.7031 216.711C55.0052 216.883 55.3802 216.969 55.8281 216.969ZM62.3906 209.547V218H60.9375V209.547H62.3906ZM60.8281 207.305C60.8281 207.07 60.8984 206.872 61.0391 206.711C61.1849 206.549 61.3984 206.469 61.6797 206.469C61.9557 206.469 62.1667 206.549 62.3125 206.711C62.4635 206.872 62.5391 207.07 62.5391 207.305C62.5391 207.529 62.4635 207.721 62.3125 207.883C62.1667 208.039 61.9557 208.117 61.6797 208.117C61.3984 208.117 61.1849 208.039 61.0391 207.883C60.8984 207.721 60.8281 207.529 60.8281 207.305ZM69.6953 216.555V212.203C69.6953 211.87 69.6276 211.581 69.4922 211.336C69.362 211.086 69.1641 210.893 68.8984 210.758C68.6328 210.622 68.3047 210.555 67.9141 210.555C67.5495 210.555 67.2292 210.617 66.9531 210.742C66.6823 210.867 66.4688 211.031 66.3125 211.234C66.1615 211.438 66.0859 211.656 66.0859 211.891H64.6406C64.6406 211.589 64.7188 211.289 64.875 210.992C65.0312 210.695 65.2552 210.427 65.5469 210.188C65.8438 209.943 66.1979 209.75 66.6094 209.609C67.026 209.464 67.4896 209.391 68 209.391C68.6146 209.391 69.1562 209.495 69.625 209.703C70.099 209.911 70.4688 210.227 70.7344 210.648C71.0052 211.065 71.1406 211.589 71.1406 212.219V216.156C71.1406 216.438 71.1641 216.737 71.2109 217.055C71.263 217.372 71.3385 217.646 71.4375 217.875V218H69.9297C69.8568 217.833 69.7995 217.612 69.7578 217.336C69.7161 217.055 69.6953 216.794 69.6953 216.555ZM69.9453 212.875L69.9609 213.891H68.5C68.0885 213.891 67.7214 213.924 67.3984 213.992C67.0755 214.055 66.8047 214.151 66.5859 214.281C66.3672 214.411 66.2005 214.576 66.0859 214.773C65.9714 214.966 65.9141 215.193 65.9141 215.453C65.9141 215.719 65.974 215.961 66.0938 216.18C66.2135 216.398 66.3932 216.573 66.6328 216.703C66.8776 216.828 67.1771 216.891 67.5312 216.891C67.974 216.891 68.3646 216.797 68.7031 216.609C69.0417 216.422 69.3099 216.193 69.5078 215.922C69.7109 215.651 69.8203 215.388 69.8359 215.133L70.4531 215.828C70.4167 216.047 70.3177 216.289 70.1562 216.555C69.9948 216.82 69.7786 217.076 69.5078 217.32C69.2422 217.56 68.9245 217.76 68.5547 217.922C68.1901 218.078 67.7786 218.156 67.3203 218.156C66.7474 218.156 66.2448 218.044 65.8125 217.82C65.3854 217.596 65.0521 217.297 64.8125 216.922C64.5781 216.542 64.4609 216.117 64.4609 215.648C64.4609 215.195 64.5495 214.797 64.7266 214.453C64.9036 214.104 65.1589 213.815 65.4922 213.586C65.8255 213.352 66.2266 213.174 66.6953 213.055C67.1641 212.935 67.6875 212.875 68.2656 212.875H69.9453ZM74.9844 206V218H73.5312V206H74.9844ZM84.8125 209.547V210.656H80.2422V209.547H84.8125ZM81.7891 207.492H83.2344V215.906C83.2344 216.193 83.2786 216.409 83.3672 216.555C83.4557 216.701 83.5703 216.797 83.7109 216.844C83.8516 216.891 84.0026 216.914 84.1641 216.914C84.2839 216.914 84.4089 216.904 84.5391 216.883C84.6745 216.857 84.776 216.836 84.8438 216.82L84.8516 218C84.737 218.036 84.5859 218.07 84.3984 218.102C84.2161 218.138 83.9948 218.156 83.7344 218.156C83.3802 218.156 83.0547 218.086 82.7578 217.945C82.4609 217.805 82.224 217.57 82.0469 217.242C81.875 216.909 81.7891 216.461 81.7891 215.898V207.492ZM87.9531 206V218H86.5078V206H87.9531ZM87.6094 213.453L87.0078 213.43C87.013 212.852 87.099 212.318 87.2656 211.828C87.4323 211.333 87.6667 210.904 87.9688 210.539C88.2708 210.174 88.6302 209.893 89.0469 209.695C89.4688 209.492 89.9349 209.391 90.4453 209.391C90.862 209.391 91.237 209.448 91.5703 209.562C91.9036 209.672 92.1875 209.849 92.4219 210.094C92.6615 210.339 92.8438 210.656 92.9688 211.047C93.0938 211.432 93.1562 211.904 93.1562 212.461V218H91.7031V212.445C91.7031 212.003 91.638 211.648 91.5078 211.383C91.3776 211.112 91.1875 210.917 90.9375 210.797C90.6875 210.672 90.3802 210.609 90.0156 210.609C89.6562 210.609 89.3281 210.685 89.0312 210.836C88.7396 210.987 88.487 211.195 88.2734 211.461C88.0651 211.727 87.901 212.031 87.7812 212.375C87.6667 212.714 87.6094 213.073 87.6094 213.453ZM100.305 216.555V212.203C100.305 211.87 100.237 211.581 100.102 211.336C99.9714 211.086 99.7734 210.893 99.5078 210.758C99.2422 210.622 98.9141 210.555 98.5234 210.555C98.1589 210.555 97.8385 210.617 97.5625 210.742C97.2917 210.867 97.0781 211.031 96.9219 211.234C96.7708 211.438 96.6953 211.656 96.6953 211.891H95.25C95.25 211.589 95.3281 211.289 95.4844 210.992C95.6406 210.695 95.8646 210.427 96.1562 210.188C96.4531 209.943 96.8073 209.75 97.2188 209.609C97.6354 209.464 98.099 209.391 98.6094 209.391C99.224 209.391 99.7656 209.495 100.234 209.703C100.708 209.911 101.078 210.227 101.344 210.648C101.615 211.065 101.75 211.589 101.75 212.219V216.156C101.75 216.438 101.773 216.737 101.82 217.055C101.872 217.372 101.948 217.646 102.047 217.875V218H100.539C100.466 217.833 100.409 217.612 100.367 217.336C100.326 217.055 100.305 216.794 100.305 216.555ZM100.555 212.875L100.57 213.891H99.1094C98.6979 213.891 98.3307 213.924 98.0078 213.992C97.6849 214.055 97.4141 214.151 97.1953 214.281C96.9766 214.411 96.8099 214.576 96.6953 214.773C96.5807 214.966 96.5234 215.193 96.5234 215.453C96.5234 215.719 96.5833 215.961 96.7031 216.18C96.8229 216.398 97.0026 216.573 97.2422 216.703C97.487 216.828 97.7865 216.891 98.1406 216.891C98.5833 216.891 98.974 216.797 99.3125 216.609C99.651 216.422 99.9193 216.193 100.117 215.922C100.32 215.651 100.43 215.388 100.445 215.133L101.062 215.828C101.026 216.047 100.927 216.289 100.766 216.555C100.604 216.82 100.388 217.076 100.117 217.32C99.8516 217.56 99.5339 217.76 99.1641 217.922C98.7995 218.078 98.388 218.156 97.9297 218.156C97.3568 218.156 96.8542 218.044 96.4219 217.82C95.9948 217.596 95.6615 217.297 95.4219 216.922C95.1875 216.542 95.0703 216.117 95.0703 215.648C95.0703 215.195 95.1589 214.797 95.3359 214.453C95.513 214.104 95.7682 213.815 96.1016 213.586C96.4349 213.352 96.8359 213.174 97.3047 213.055C97.7734 212.935 98.2969 212.875 98.875 212.875H100.555ZM107.562 209.547V210.656H102.992V209.547H107.562ZM104.539 207.492H105.984V215.906C105.984 216.193 106.029 216.409 106.117 216.555C106.206 216.701 106.32 216.797 106.461 216.844C106.602 216.891 106.753 216.914 106.914 216.914C107.034 216.914 107.159 216.904 107.289 216.883C107.424 216.857 107.526 216.836 107.594 216.82L107.602 218C107.487 218.036 107.336 218.07 107.148 218.102C106.966 218.138 106.745 218.156 106.484 218.156C106.13 218.156 105.805 218.086 105.508 217.945C105.211 217.805 104.974 217.57 104.797 217.242C104.625 216.909 104.539 216.461 104.539 215.898V207.492ZM112.844 213.867V213.688C112.844 213.078 112.932 212.513 113.109 211.992C113.286 211.466 113.542 211.01 113.875 210.625C114.208 210.234 114.612 209.932 115.086 209.719C115.56 209.5 116.091 209.391 116.68 209.391C117.273 209.391 117.807 209.5 118.281 209.719C118.76 209.932 119.167 210.234 119.5 210.625C119.839 211.01 120.096 211.466 120.273 211.992C120.451 212.513 120.539 213.078 120.539 213.688V213.867C120.539 214.477 120.451 215.042 120.273 215.562C120.096 216.083 119.839 216.539 119.5 216.93C119.167 217.315 118.763 217.617 118.289 217.836C117.82 218.049 117.289 218.156 116.695 218.156C116.102 218.156 115.568 218.049 115.094 217.836C114.62 217.617 114.214 217.315 113.875 216.93C113.542 216.539 113.286 216.083 113.109 215.562C112.932 215.042 112.844 214.477 112.844 213.867ZM114.289 213.688V213.867C114.289 214.289 114.339 214.688 114.438 215.062C114.536 215.432 114.685 215.76 114.883 216.047C115.086 216.333 115.339 216.56 115.641 216.727C115.943 216.888 116.294 216.969 116.695 216.969C117.091 216.969 117.438 216.888 117.734 216.727C118.036 216.56 118.286 216.333 118.484 216.047C118.682 215.76 118.831 215.432 118.93 215.062C119.034 214.688 119.086 214.289 119.086 213.867V213.688C119.086 213.271 119.034 212.878 118.93 212.508C118.831 212.133 118.68 211.802 118.477 211.516C118.279 211.224 118.029 210.995 117.727 210.828C117.43 210.661 117.081 210.578 116.68 210.578C116.284 210.578 115.935 210.661 115.633 210.828C115.336 210.995 115.086 211.224 114.883 211.516C114.685 211.802 114.536 212.133 114.438 212.508C114.339 212.878 114.289 213.271 114.289 213.688ZM127.523 216.047V209.547H128.977V218H127.594L127.523 216.047ZM127.797 214.266L128.398 214.25C128.398 214.812 128.339 215.333 128.219 215.812C128.104 216.286 127.917 216.698 127.656 217.047C127.396 217.396 127.055 217.669 126.633 217.867C126.211 218.06 125.698 218.156 125.094 218.156C124.682 218.156 124.305 218.096 123.961 217.977C123.622 217.857 123.331 217.672 123.086 217.422C122.841 217.172 122.651 216.846 122.516 216.445C122.385 216.044 122.32 215.562 122.32 215V209.547H123.766V215.016C123.766 215.396 123.807 215.711 123.891 215.961C123.979 216.206 124.096 216.401 124.242 216.547C124.393 216.688 124.56 216.786 124.742 216.844C124.93 216.901 125.122 216.93 125.32 216.93C125.935 216.93 126.422 216.812 126.781 216.578C127.141 216.339 127.398 216.018 127.555 215.617C127.716 215.211 127.797 214.76 127.797 214.266ZM132.625 210.875V218H131.18V209.547H132.586L132.625 210.875ZM135.266 209.5L135.258 210.844C135.138 210.818 135.023 210.802 134.914 210.797C134.81 210.786 134.69 210.781 134.555 210.781C134.221 210.781 133.927 210.833 133.672 210.938C133.417 211.042 133.201 211.188 133.023 211.375C132.846 211.562 132.706 211.786 132.602 212.047C132.503 212.302 132.438 212.583 132.406 212.891L132 213.125C132 212.615 132.049 212.135 132.148 211.688C132.253 211.24 132.411 210.844 132.625 210.5C132.839 210.151 133.109 209.88 133.438 209.688C133.771 209.49 134.167 209.391 134.625 209.391C134.729 209.391 134.849 209.404 134.984 209.43C135.12 209.451 135.214 209.474 135.266 209.5ZM145.492 215.758C145.492 215.549 145.445 215.357 145.352 215.18C145.263 214.997 145.078 214.833 144.797 214.688C144.521 214.536 144.104 214.406 143.547 214.297C143.078 214.198 142.654 214.081 142.273 213.945C141.898 213.81 141.578 213.646 141.312 213.453C141.052 213.26 140.852 213.034 140.711 212.773C140.57 212.513 140.5 212.208 140.5 211.859C140.5 211.526 140.573 211.211 140.719 210.914C140.87 210.617 141.081 210.354 141.352 210.125C141.628 209.896 141.958 209.716 142.344 209.586C142.729 209.456 143.159 209.391 143.633 209.391C144.31 209.391 144.888 209.51 145.367 209.75C145.846 209.99 146.214 210.31 146.469 210.711C146.724 211.107 146.852 211.547 146.852 212.031H145.406C145.406 211.797 145.336 211.57 145.195 211.352C145.06 211.128 144.859 210.943 144.594 210.797C144.333 210.651 144.013 210.578 143.633 210.578C143.232 210.578 142.906 210.641 142.656 210.766C142.411 210.885 142.232 211.039 142.117 211.227C142.008 211.414 141.953 211.612 141.953 211.82C141.953 211.977 141.979 212.117 142.031 212.242C142.089 212.362 142.188 212.474 142.328 212.578C142.469 212.677 142.667 212.771 142.922 212.859C143.177 212.948 143.503 213.036 143.898 213.125C144.591 213.281 145.161 213.469 145.609 213.688C146.057 213.906 146.391 214.174 146.609 214.492C146.828 214.81 146.938 215.195 146.938 215.648C146.938 216.018 146.859 216.357 146.703 216.664C146.552 216.971 146.331 217.237 146.039 217.461C145.753 217.68 145.409 217.852 145.008 217.977C144.612 218.096 144.167 218.156 143.672 218.156C142.927 218.156 142.297 218.023 141.781 217.758C141.266 217.492 140.875 217.148 140.609 216.727C140.344 216.305 140.211 215.859 140.211 215.391H141.664C141.685 215.786 141.799 216.102 142.008 216.336C142.216 216.565 142.471 216.729 142.773 216.828C143.076 216.922 143.375 216.969 143.672 216.969C144.068 216.969 144.398 216.917 144.664 216.812C144.935 216.708 145.141 216.565 145.281 216.383C145.422 216.201 145.492 215.992 145.492 215.758ZM152.344 218.156C151.755 218.156 151.221 218.057 150.742 217.859C150.268 217.656 149.859 217.372 149.516 217.008C149.177 216.643 148.917 216.211 148.734 215.711C148.552 215.211 148.461 214.664 148.461 214.07V213.742C148.461 213.055 148.562 212.443 148.766 211.906C148.969 211.365 149.245 210.906 149.594 210.531C149.943 210.156 150.339 209.872 150.781 209.68C151.224 209.487 151.682 209.391 152.156 209.391C152.76 209.391 153.281 209.495 153.719 209.703C154.161 209.911 154.523 210.203 154.805 210.578C155.086 210.948 155.294 211.385 155.43 211.891C155.565 212.391 155.633 212.938 155.633 213.531V214.18H149.32V213H154.188V212.891C154.167 212.516 154.089 212.151 153.953 211.797C153.823 211.443 153.615 211.151 153.328 210.922C153.042 210.693 152.651 210.578 152.156 210.578C151.828 210.578 151.526 210.648 151.25 210.789C150.974 210.924 150.737 211.128 150.539 211.398C150.341 211.669 150.188 212 150.078 212.391C149.969 212.781 149.914 213.232 149.914 213.742V214.07C149.914 214.471 149.969 214.849 150.078 215.203C150.193 215.552 150.357 215.859 150.57 216.125C150.789 216.391 151.052 216.599 151.359 216.75C151.672 216.901 152.026 216.977 152.422 216.977C152.932 216.977 153.365 216.872 153.719 216.664C154.073 216.456 154.383 216.177 154.648 215.828L155.523 216.523C155.341 216.799 155.109 217.062 154.828 217.312C154.547 217.562 154.201 217.766 153.789 217.922C153.383 218.078 152.901 218.156 152.344 218.156ZM158.766 210.875V218H157.32V209.547H158.727L158.766 210.875ZM161.406 209.5L161.398 210.844C161.279 210.818 161.164 210.802 161.055 210.797C160.951 210.786 160.831 210.781 160.695 210.781C160.362 210.781 160.068 210.833 159.812 210.938C159.557 211.042 159.341 211.188 159.164 211.375C158.987 211.562 158.846 211.786 158.742 212.047C158.643 212.302 158.578 212.583 158.547 212.891L158.141 213.125C158.141 212.615 158.19 212.135 158.289 211.688C158.393 211.24 158.552 210.844 158.766 210.5C158.979 210.151 159.25 209.88 159.578 209.688C159.911 209.49 160.307 209.391 160.766 209.391C160.87 209.391 160.99 209.404 161.125 209.43C161.26 209.451 161.354 209.474 161.406 209.5ZM165.453 216.695L167.766 209.547H169.242L166.203 218H165.234L165.453 216.695ZM163.523 209.547L165.906 216.734L166.07 218H165.102L162.039 209.547H163.523ZM172.203 209.547V218H170.75V209.547H172.203ZM170.641 207.305C170.641 207.07 170.711 206.872 170.852 206.711C170.997 206.549 171.211 206.469 171.492 206.469C171.768 206.469 171.979 206.549 172.125 206.711C172.276 206.872 172.352 207.07 172.352 207.305C172.352 207.529 172.276 207.721 172.125 207.883C171.979 208.039 171.768 208.117 171.492 208.117C171.211 208.117 170.997 208.039 170.852 207.883C170.711 207.721 170.641 207.529 170.641 207.305ZM177.906 216.969C178.25 216.969 178.568 216.898 178.859 216.758C179.151 216.617 179.391 216.424 179.578 216.18C179.766 215.93 179.872 215.646 179.898 215.328H181.273C181.247 215.828 181.078 216.294 180.766 216.727C180.458 217.154 180.055 217.5 179.555 217.766C179.055 218.026 178.505 218.156 177.906 218.156C177.271 218.156 176.716 218.044 176.242 217.82C175.773 217.596 175.383 217.289 175.07 216.898C174.763 216.508 174.531 216.06 174.375 215.555C174.224 215.044 174.148 214.505 174.148 213.938V213.609C174.148 213.042 174.224 212.505 174.375 212C174.531 211.49 174.763 211.039 175.07 210.648C175.383 210.258 175.773 209.951 176.242 209.727C176.716 209.503 177.271 209.391 177.906 209.391C178.568 209.391 179.146 209.526 179.641 209.797C180.135 210.062 180.523 210.427 180.805 210.891C181.091 211.349 181.247 211.87 181.273 212.453H179.898C179.872 212.104 179.773 211.789 179.602 211.508C179.435 211.227 179.206 211.003 178.914 210.836C178.628 210.664 178.292 210.578 177.906 210.578C177.464 210.578 177.091 210.667 176.789 210.844C176.492 211.016 176.255 211.25 176.078 211.547C175.906 211.839 175.781 212.164 175.703 212.523C175.63 212.878 175.594 213.24 175.594 213.609V213.938C175.594 214.307 175.63 214.672 175.703 215.031C175.776 215.391 175.898 215.716 176.07 216.008C176.247 216.299 176.484 216.534 176.781 216.711C177.083 216.883 177.458 216.969 177.906 216.969ZM186.406 218.156C185.818 218.156 185.284 218.057 184.805 217.859C184.331 217.656 183.922 217.372 183.578 217.008C183.24 216.643 182.979 216.211 182.797 215.711C182.615 215.211 182.523 214.664 182.523 214.07V213.742C182.523 213.055 182.625 212.443 182.828 211.906C183.031 211.365 183.307 210.906 183.656 210.531C184.005 210.156 184.401 209.872 184.844 209.68C185.286 209.487 185.745 209.391 186.219 209.391C186.823 209.391 187.344 209.495 187.781 209.703C188.224 209.911 188.586 210.203 188.867 210.578C189.148 210.948 189.357 211.385 189.492 211.891C189.628 212.391 189.695 212.938 189.695 213.531V214.18H183.383V213H188.25V212.891C188.229 212.516 188.151 212.151 188.016 211.797C187.885 211.443 187.677 211.151 187.391 210.922C187.104 210.693 186.714 210.578 186.219 210.578C185.891 210.578 185.589 210.648 185.312 210.789C185.036 210.924 184.799 211.128 184.602 211.398C184.404 211.669 184.25 212 184.141 212.391C184.031 212.781 183.977 213.232 183.977 213.742V214.07C183.977 214.471 184.031 214.849 184.141 215.203C184.255 215.552 184.419 215.859 184.633 216.125C184.852 216.391 185.115 216.599 185.422 216.75C185.734 216.901 186.089 216.977 186.484 216.977C186.995 216.977 187.427 216.872 187.781 216.664C188.135 216.456 188.445 216.177 188.711 215.828L189.586 216.523C189.404 216.799 189.172 217.062 188.891 217.312C188.609 217.562 188.263 217.766 187.852 217.922C187.445 218.078 186.964 218.156 186.406 218.156ZM15.9609 235.227V242H14.5078V233.547H15.8828L15.9609 235.227ZM15.6641 237.453L14.9922 237.43C14.9974 236.852 15.0729 236.318 15.2188 235.828C15.3646 235.333 15.5807 234.904 15.8672 234.539C16.1536 234.174 16.5104 233.893 16.9375 233.695C17.3646 233.492 17.8594 233.391 18.4219 233.391C18.8177 233.391 19.1823 233.448 19.5156 233.562C19.849 233.672 20.138 233.846 20.3828 234.086C20.6276 234.326 20.8177 234.633 20.9531 235.008C21.0885 235.383 21.1562 235.836 21.1562 236.367V242H19.7109V236.438C19.7109 235.995 19.6354 235.641 19.4844 235.375C19.3385 235.109 19.1302 234.917 18.8594 234.797C18.5885 234.672 18.2708 234.609 17.9062 234.609C17.4792 234.609 17.1224 234.685 16.8359 234.836C16.5495 234.987 16.3203 235.195 16.1484 235.461C15.9766 235.727 15.8516 236.031 15.7734 236.375C15.7005 236.714 15.6641 237.073 15.6641 237.453ZM21.1406 236.656L20.1719 236.953C20.1771 236.49 20.2526 236.044 20.3984 235.617C20.5495 235.19 20.7656 234.81 21.0469 234.477C21.3333 234.143 21.6849 233.88 22.1016 233.688C22.5182 233.49 22.9948 233.391 23.5312 233.391C23.9844 233.391 24.3854 233.451 24.7344 233.57C25.0885 233.69 25.3854 233.875 25.625 234.125C25.8698 234.37 26.0547 234.685 26.1797 235.07C26.3047 235.456 26.3672 235.914 26.3672 236.445V242H24.9141V236.43C24.9141 235.956 24.8385 235.589 24.6875 235.328C24.5417 235.062 24.3333 234.878 24.0625 234.773C23.7969 234.664 23.4792 234.609 23.1094 234.609C22.7917 234.609 22.5104 234.664 22.2656 234.773C22.0208 234.883 21.8151 235.034 21.6484 235.227C21.4818 235.414 21.3542 235.63 21.2656 235.875C21.1823 236.12 21.1406 236.38 21.1406 236.656ZM32.0625 242.156C31.474 242.156 30.9401 242.057 30.4609 241.859C29.987 241.656 29.5781 241.372 29.2344 241.008C28.8958 240.643 28.6354 240.211 28.4531 239.711C28.2708 239.211 28.1797 238.664 28.1797 238.07V237.742C28.1797 237.055 28.2812 236.443 28.4844 235.906C28.6875 235.365 28.9635 234.906 29.3125 234.531C29.6615 234.156 30.0573 233.872 30.5 233.68C30.9427 233.487 31.401 233.391 31.875 233.391C32.4792 233.391 33 233.495 33.4375 233.703C33.8802 233.911 34.2422 234.203 34.5234 234.578C34.8047 234.948 35.013 235.385 35.1484 235.891C35.2839 236.391 35.3516 236.938 35.3516 237.531V238.18H29.0391V237H33.9062V236.891C33.8854 236.516 33.8073 236.151 33.6719 235.797C33.5417 235.443 33.3333 235.151 33.0469 234.922C32.7604 234.693 32.3698 234.578 31.875 234.578C31.5469 234.578 31.2448 234.648 30.9688 234.789C30.6927 234.924 30.4557 235.128 30.2578 235.398C30.0599 235.669 29.9062 236 29.7969 236.391C29.6875 236.781 29.6328 237.232 29.6328 237.742V238.07C29.6328 238.471 29.6875 238.849 29.7969 239.203C29.9115 239.552 30.0755 239.859 30.2891 240.125C30.5078 240.391 30.7708 240.599 31.0781 240.75C31.3906 240.901 31.7448 240.977 32.1406 240.977C32.651 240.977 33.0833 240.872 33.4375 240.664C33.7917 240.456 34.1016 240.177 34.3672 239.828L35.2422 240.523C35.0599 240.799 34.8281 241.062 34.5469 241.312C34.2656 241.562 33.9193 241.766 33.5078 241.922C33.1016 242.078 32.6198 242.156 32.0625 242.156ZM40.5469 242.156C39.9583 242.156 39.4245 242.057 38.9453 241.859C38.4714 241.656 38.0625 241.372 37.7188 241.008C37.3802 240.643 37.1198 240.211 36.9375 239.711C36.7552 239.211 36.6641 238.664 36.6641 238.07V237.742C36.6641 237.055 36.7656 236.443 36.9688 235.906C37.1719 235.365 37.4479 234.906 37.7969 234.531C38.1458 234.156 38.5417 233.872 38.9844 233.68C39.4271 233.487 39.8854 233.391 40.3594 233.391C40.9635 233.391 41.4844 233.495 41.9219 233.703C42.3646 233.911 42.7266 234.203 43.0078 234.578C43.2891 234.948 43.4974 235.385 43.6328 235.891C43.7682 236.391 43.8359 236.938 43.8359 237.531V238.18H37.5234V237H42.3906V236.891C42.3698 236.516 42.2917 236.151 42.1562 235.797C42.026 235.443 41.8177 235.151 41.5312 234.922C41.2448 234.693 40.8542 234.578 40.3594 234.578C40.0312 234.578 39.7292 234.648 39.4531 234.789C39.1771 234.924 38.9401 235.128 38.7422 235.398C38.5443 235.669 38.3906 236 38.2812 236.391C38.1719 236.781 38.1172 237.232 38.1172 237.742V238.07C38.1172 238.471 38.1719 238.849 38.2812 239.203C38.3958 239.552 38.5599 239.859 38.7734 240.125C38.9922 240.391 39.2552 240.599 39.5625 240.75C39.875 240.901 40.2292 240.977 40.625 240.977C41.1354 240.977 41.5677 240.872 41.9219 240.664C42.276 240.456 42.5859 240.177 42.8516 239.828L43.7266 240.523C43.5443 240.799 43.3125 241.062 43.0312 241.312C42.75 241.562 42.4036 241.766 41.9922 241.922C41.5859 242.078 41.1042 242.156 40.5469 242.156ZM49.0625 233.547V234.656H44.4922V233.547H49.0625ZM46.0391 231.492H47.4844V239.906C47.4844 240.193 47.5286 240.409 47.6172 240.555C47.7057 240.701 47.8203 240.797 47.9609 240.844C48.1016 240.891 48.2526 240.914 48.4141 240.914C48.5339 240.914 48.6589 240.904 48.7891 240.883C48.9245 240.857 49.026 240.836 49.0938 240.82L49.1016 242C48.987 242.036 48.8359 242.07 48.6484 242.102C48.4661 242.138 48.2448 242.156 47.9844 242.156C47.6302 242.156 47.3047 242.086 47.0078 241.945C46.7109 241.805 46.474 241.57 46.2969 241.242C46.125 240.909 46.0391 240.461 46.0391 239.898V231.492ZM55.6797 239.758C55.6797 239.549 55.6328 239.357 55.5391 239.18C55.4505 238.997 55.2656 238.833 54.9844 238.688C54.7083 238.536 54.2917 238.406 53.7344 238.297C53.2656 238.198 52.8411 238.081 52.4609 237.945C52.0859 237.81 51.7656 237.646 51.5 237.453C51.2396 237.26 51.0391 237.034 50.8984 236.773C50.7578 236.513 50.6875 236.208 50.6875 235.859C50.6875 235.526 50.7604 235.211 50.9062 234.914C51.0573 234.617 51.2682 234.354 51.5391 234.125C51.8151 233.896 52.1458 233.716 52.5312 233.586C52.9167 233.456 53.3464 233.391 53.8203 233.391C54.4974 233.391 55.0755 233.51 55.5547 233.75C56.0339 233.99 56.401 234.31 56.6562 234.711C56.9115 235.107 57.0391 235.547 57.0391 236.031H55.5938C55.5938 235.797 55.5234 235.57 55.3828 235.352C55.2474 235.128 55.0469 234.943 54.7812 234.797C54.5208 234.651 54.2005 234.578 53.8203 234.578C53.4193 234.578 53.0938 234.641 52.8438 234.766C52.599 234.885 52.4193 235.039 52.3047 235.227C52.1953 235.414 52.1406 235.612 52.1406 235.82C52.1406 235.977 52.1667 236.117 52.2188 236.242C52.276 236.362 52.375 236.474 52.5156 236.578C52.6562 236.677 52.8542 236.771 53.1094 236.859C53.3646 236.948 53.6901 237.036 54.0859 237.125C54.7786 237.281 55.349 237.469 55.7969 237.688C56.2448 237.906 56.5781 238.174 56.7969 238.492C57.0156 238.81 57.125 239.195 57.125 239.648C57.125 240.018 57.0469 240.357 56.8906 240.664C56.7396 240.971 56.5182 241.237 56.2266 241.461C55.9401 241.68 55.5964 241.852 55.1953 241.977C54.7995 242.096 54.3542 242.156 53.8594 242.156C53.1146 242.156 52.4844 242.023 51.9688 241.758C51.4531 241.492 51.0625 241.148 50.7969 240.727C50.5312 240.305 50.3984 239.859 50.3984 239.391H51.8516C51.8724 239.786 51.987 240.102 52.1953 240.336C52.4036 240.565 52.6589 240.729 52.9609 240.828C53.263 240.922 53.5625 240.969 53.8594 240.969C54.2552 240.969 54.5859 240.917 54.8516 240.812C55.1224 240.708 55.3281 240.565 55.4688 240.383C55.6094 240.201 55.6797 239.992 55.6797 239.758ZM68.1641 240.047V233.547H69.6172V242H68.2344L68.1641 240.047ZM68.4375 238.266L69.0391 238.25C69.0391 238.812 68.9792 239.333 68.8594 239.812C68.7448 240.286 68.5573 240.698 68.2969 241.047C68.0365 241.396 67.6953 241.669 67.2734 241.867C66.8516 242.06 66.3385 242.156 65.7344 242.156C65.3229 242.156 64.9453 242.096 64.6016 241.977C64.263 241.857 63.9714 241.672 63.7266 241.422C63.4818 241.172 63.2917 240.846 63.1562 240.445C63.026 240.044 62.9609 239.562 62.9609 239V233.547H64.4062V239.016C64.4062 239.396 64.4479 239.711 64.5312 239.961C64.6198 240.206 64.737 240.401 64.8828 240.547C65.0339 240.688 65.2005 240.786 65.3828 240.844C65.5703 240.901 65.763 240.93 65.9609 240.93C66.5755 240.93 67.0625 240.812 67.4219 240.578C67.7812 240.339 68.0391 240.018 68.1953 239.617C68.3568 239.211 68.4375 238.76 68.4375 238.266ZM76.7422 239.758C76.7422 239.549 76.6953 239.357 76.6016 239.18C76.513 238.997 76.3281 238.833 76.0469 238.688C75.7708 238.536 75.3542 238.406 74.7969 238.297C74.3281 238.198 73.9036 238.081 73.5234 237.945C73.1484 237.81 72.8281 237.646 72.5625 237.453C72.3021 237.26 72.1016 237.034 71.9609 236.773C71.8203 236.513 71.75 236.208 71.75 235.859C71.75 235.526 71.8229 235.211 71.9688 234.914C72.1198 234.617 72.3307 234.354 72.6016 234.125C72.8776 233.896 73.2083 233.716 73.5938 233.586C73.9792 233.456 74.4089 233.391 74.8828 233.391C75.5599 233.391 76.138 233.51 76.6172 233.75C77.0964 233.99 77.4635 234.31 77.7188 234.711C77.974 235.107 78.1016 235.547 78.1016 236.031H76.6562C76.6562 235.797 76.5859 235.57 76.4453 235.352C76.3099 235.128 76.1094 234.943 75.8438 234.797C75.5833 234.651 75.263 234.578 74.8828 234.578C74.4818 234.578 74.1562 234.641 73.9062 234.766C73.6615 234.885 73.4818 235.039 73.3672 235.227C73.2578 235.414 73.2031 235.612 73.2031 235.82C73.2031 235.977 73.2292 236.117 73.2812 236.242C73.3385 236.362 73.4375 236.474 73.5781 236.578C73.7188 236.677 73.9167 236.771 74.1719 236.859C74.4271 236.948 74.7526 237.036 75.1484 237.125C75.8411 237.281 76.4115 237.469 76.8594 237.688C77.3073 237.906 77.6406 238.174 77.8594 238.492C78.0781 238.81 78.1875 239.195 78.1875 239.648C78.1875 240.018 78.1094 240.357 77.9531 240.664C77.8021 240.971 77.5807 241.237 77.2891 241.461C77.0026 241.68 76.6589 241.852 76.2578 241.977C75.862 242.096 75.4167 242.156 74.9219 242.156C74.1771 242.156 73.5469 242.023 73.0312 241.758C72.5156 241.492 72.125 241.148 71.8594 240.727C71.5938 240.305 71.4609 239.859 71.4609 239.391H72.9141C72.9349 239.786 73.0495 240.102 73.2578 240.336C73.4661 240.565 73.7214 240.729 74.0234 240.828C74.3255 240.922 74.625 240.969 74.9219 240.969C75.3177 240.969 75.6484 240.917 75.9141 240.812C76.1849 240.708 76.3906 240.565 76.5312 240.383C76.6719 240.201 76.7422 239.992 76.7422 239.758ZM83.5938 242.156C83.0052 242.156 82.4714 242.057 81.9922 241.859C81.5182 241.656 81.1094 241.372 80.7656 241.008C80.4271 240.643 80.1667 240.211 79.9844 239.711C79.8021 239.211 79.7109 238.664 79.7109 238.07V237.742C79.7109 237.055 79.8125 236.443 80.0156 235.906C80.2188 235.365 80.4948 234.906 80.8438 234.531C81.1927 234.156 81.5885 233.872 82.0312 233.68C82.474 233.487 82.9323 233.391 83.4062 233.391C84.0104 233.391 84.5312 233.495 84.9688 233.703C85.4115 233.911 85.7734 234.203 86.0547 234.578C86.3359 234.948 86.5443 235.385 86.6797 235.891C86.8151 236.391 86.8828 236.938 86.8828 237.531V238.18H80.5703V237H85.4375V236.891C85.4167 236.516 85.3385 236.151 85.2031 235.797C85.0729 235.443 84.8646 235.151 84.5781 234.922C84.2917 234.693 83.901 234.578 83.4062 234.578C83.0781 234.578 82.776 234.648 82.5 234.789C82.224 234.924 81.987 235.128 81.7891 235.398C81.5911 235.669 81.4375 236 81.3281 236.391C81.2188 236.781 81.1641 237.232 81.1641 237.742V238.07C81.1641 238.471 81.2188 238.849 81.3281 239.203C81.4427 239.552 81.6068 239.859 81.8203 240.125C82.0391 240.391 82.3021 240.599 82.6094 240.75C82.9219 240.901 83.276 240.977 83.6719 240.977C84.1823 240.977 84.6146 240.872 84.9688 240.664C85.3229 240.456 85.6328 240.177 85.8984 239.828L86.7734 240.523C86.5911 240.799 86.3594 241.062 86.0781 241.312C85.7969 241.562 85.4505 241.766 85.0391 241.922C84.6328 242.078 84.151 242.156 83.5938 242.156ZM90.0156 234.875V242H88.5703V233.547H89.9766L90.0156 234.875ZM92.6562 233.5L92.6484 234.844C92.5286 234.818 92.4141 234.802 92.3047 234.797C92.2005 234.786 92.0807 234.781 91.9453 234.781C91.612 234.781 91.3177 234.833 91.0625 234.938C90.8073 235.042 90.5911 235.188 90.4141 235.375C90.237 235.562 90.0964 235.786 89.9922 236.047C89.8932 236.302 89.8281 236.583 89.7969 236.891L89.3906 237.125C89.3906 236.615 89.4401 236.135 89.5391 235.688C89.6432 235.24 89.8021 234.844 90.0156 234.5C90.2292 234.151 90.5 233.88 90.8281 233.688C91.1615 233.49 91.5573 233.391 92.0156 233.391C92.1198 233.391 92.2396 233.404 92.375 233.43C92.5104 233.451 92.6042 233.474 92.6562 233.5ZM98.9141 239.758C98.9141 239.549 98.8672 239.357 98.7734 239.18C98.6849 238.997 98.5 238.833 98.2188 238.688C97.9427 238.536 97.526 238.406 96.9688 238.297C96.5 238.198 96.0755 238.081 95.6953 237.945C95.3203 237.81 95 237.646 94.7344 237.453C94.474 237.26 94.2734 237.034 94.1328 236.773C93.9922 236.513 93.9219 236.208 93.9219 235.859C93.9219 235.526 93.9948 235.211 94.1406 234.914C94.2917 234.617 94.5026 234.354 94.7734 234.125C95.0495 233.896 95.3802 233.716 95.7656 233.586C96.151 233.456 96.5807 233.391 97.0547 233.391C97.7318 233.391 98.3099 233.51 98.7891 233.75C99.2682 233.99 99.6354 234.31 99.8906 234.711C100.146 235.107 100.273 235.547 100.273 236.031H98.8281C98.8281 235.797 98.7578 235.57 98.6172 235.352C98.4818 235.128 98.2812 234.943 98.0156 234.797C97.7552 234.651 97.4349 234.578 97.0547 234.578C96.6536 234.578 96.3281 234.641 96.0781 234.766C95.8333 234.885 95.6536 235.039 95.5391 235.227C95.4297 235.414 95.375 235.612 95.375 235.82C95.375 235.977 95.401 236.117 95.4531 236.242C95.5104 236.362 95.6094 236.474 95.75 236.578C95.8906 236.677 96.0885 236.771 96.3438 236.859C96.599 236.948 96.9245 237.036 97.3203 237.125C98.013 237.281 98.5833 237.469 99.0312 237.688C99.4792 237.906 99.8125 238.174 100.031 238.492C100.25 238.81 100.359 239.195 100.359 239.648C100.359 240.018 100.281 240.357 100.125 240.664C99.974 240.971 99.7526 241.237 99.4609 241.461C99.1745 241.68 98.8307 241.852 98.4297 241.977C98.0339 242.096 97.5885 242.156 97.0938 242.156C96.349 242.156 95.7188 242.023 95.2031 241.758C94.6875 241.492 94.2969 241.148 94.0312 240.727C93.7656 240.305 93.6328 239.859 93.6328 239.391H95.0859C95.1068 239.786 95.2214 240.102 95.4297 240.336C95.638 240.565 95.8932 240.729 96.1953 240.828C96.4974 240.922 96.7969 240.969 97.0938 240.969C97.4896 240.969 97.8203 240.917 98.0859 240.812C98.3568 240.708 98.5625 240.565 98.7031 240.383C98.8438 240.201 98.9141 239.992 98.9141 239.758ZM103.141 230V230.859L102.977 233.734H101.969L101.977 230.992V230H103.141ZM110.469 235.352V242H109.023V233.547H110.391L110.469 235.352ZM110.125 237.453L109.523 237.43C109.529 236.852 109.615 236.318 109.781 235.828C109.948 235.333 110.182 234.904 110.484 234.539C110.786 234.174 111.146 233.893 111.562 233.695C111.984 233.492 112.451 233.391 112.961 233.391C113.378 233.391 113.753 233.448 114.086 233.562C114.419 233.672 114.703 233.849 114.938 234.094C115.177 234.339 115.359 234.656 115.484 235.047C115.609 235.432 115.672 235.904 115.672 236.461V242H114.219V236.445C114.219 236.003 114.154 235.648 114.023 235.383C113.893 235.112 113.703 234.917 113.453 234.797C113.203 234.672 112.896 234.609 112.531 234.609C112.172 234.609 111.844 234.685 111.547 234.836C111.255 234.987 111.003 235.195 110.789 235.461C110.581 235.727 110.417 236.031 110.297 236.375C110.182 236.714 110.125 237.073 110.125 237.453ZM121.375 242.156C120.786 242.156 120.253 242.057 119.773 241.859C119.299 241.656 118.891 241.372 118.547 241.008C118.208 240.643 117.948 240.211 117.766 239.711C117.583 239.211 117.492 238.664 117.492 238.07V237.742C117.492 237.055 117.594 236.443 117.797 235.906C118 235.365 118.276 234.906 118.625 234.531C118.974 234.156 119.37 233.872 119.812 233.68C120.255 233.487 120.714 233.391 121.188 233.391C121.792 233.391 122.312 233.495 122.75 233.703C123.193 233.911 123.555 234.203 123.836 234.578C124.117 234.948 124.326 235.385 124.461 235.891C124.596 236.391 124.664 236.938 124.664 237.531V238.18H118.352V237H123.219V236.891C123.198 236.516 123.12 236.151 122.984 235.797C122.854 235.443 122.646 235.151 122.359 234.922C122.073 234.693 121.682 234.578 121.188 234.578C120.859 234.578 120.557 234.648 120.281 234.789C120.005 234.924 119.768 235.128 119.57 235.398C119.372 235.669 119.219 236 119.109 236.391C119 236.781 118.945 237.232 118.945 237.742V238.07C118.945 238.471 119 238.849 119.109 239.203C119.224 239.552 119.388 239.859 119.602 240.125C119.82 240.391 120.083 240.599 120.391 240.75C120.703 240.901 121.057 240.977 121.453 240.977C121.964 240.977 122.396 240.872 122.75 240.664C123.104 240.456 123.414 240.177 123.68 239.828L124.555 240.523C124.372 240.799 124.141 241.062 123.859 241.312C123.578 241.562 123.232 241.766 122.82 241.922C122.414 242.078 121.932 242.156 121.375 242.156ZM129.859 242.156C129.271 242.156 128.737 242.057 128.258 241.859C127.784 241.656 127.375 241.372 127.031 241.008C126.693 240.643 126.432 240.211 126.25 239.711C126.068 239.211 125.977 238.664 125.977 238.07V237.742C125.977 237.055 126.078 236.443 126.281 235.906C126.484 235.365 126.76 234.906 127.109 234.531C127.458 234.156 127.854 233.872 128.297 233.68C128.74 233.487 129.198 233.391 129.672 233.391C130.276 233.391 130.797 233.495 131.234 233.703C131.677 233.911 132.039 234.203 132.32 234.578C132.602 234.948 132.81 235.385 132.945 235.891C133.081 236.391 133.148 236.938 133.148 237.531V238.18H126.836V237H131.703V236.891C131.682 236.516 131.604 236.151 131.469 235.797C131.339 235.443 131.13 235.151 130.844 234.922C130.557 234.693 130.167 234.578 129.672 234.578C129.344 234.578 129.042 234.648 128.766 234.789C128.49 234.924 128.253 235.128 128.055 235.398C127.857 235.669 127.703 236 127.594 236.391C127.484 236.781 127.43 237.232 127.43 237.742V238.07C127.43 238.471 127.484 238.849 127.594 239.203C127.708 239.552 127.872 239.859 128.086 240.125C128.305 240.391 128.568 240.599 128.875 240.75C129.188 240.901 129.542 240.977 129.938 240.977C130.448 240.977 130.88 240.872 131.234 240.664C131.589 240.456 131.898 240.177 132.164 239.828L133.039 240.523C132.857 240.799 132.625 241.062 132.344 241.312C132.062 241.562 131.716 241.766 131.305 241.922C130.898 242.078 130.417 242.156 129.859 242.156ZM140.164 240.359V230H141.617V242H140.289L140.164 240.359ZM134.477 237.867V237.703C134.477 237.057 134.555 236.471 134.711 235.945C134.872 235.414 135.099 234.958 135.391 234.578C135.688 234.198 136.039 233.906 136.445 233.703C136.857 233.495 137.315 233.391 137.82 233.391C138.352 233.391 138.815 233.484 139.211 233.672C139.612 233.854 139.951 234.122 140.227 234.477C140.508 234.826 140.729 235.247 140.891 235.742C141.052 236.237 141.164 236.797 141.227 237.422V238.141C141.169 238.76 141.057 239.318 140.891 239.812C140.729 240.307 140.508 240.729 140.227 241.078C139.951 241.427 139.612 241.695 139.211 241.883C138.81 242.065 138.341 242.156 137.805 242.156C137.31 242.156 136.857 242.049 136.445 241.836C136.039 241.622 135.688 241.323 135.391 240.938C135.099 240.552 134.872 240.099 134.711 239.578C134.555 239.052 134.477 238.482 134.477 237.867ZM135.93 237.703V237.867C135.93 238.289 135.971 238.685 136.055 239.055C136.143 239.424 136.279 239.75 136.461 240.031C136.643 240.312 136.875 240.534 137.156 240.695C137.438 240.852 137.773 240.93 138.164 240.93C138.643 240.93 139.036 240.828 139.344 240.625C139.656 240.422 139.906 240.154 140.094 239.82C140.281 239.487 140.427 239.125 140.531 238.734V236.852C140.469 236.565 140.378 236.289 140.258 236.023C140.143 235.753 139.992 235.513 139.805 235.305C139.622 235.091 139.396 234.922 139.125 234.797C138.859 234.672 138.544 234.609 138.18 234.609C137.784 234.609 137.443 234.693 137.156 234.859C136.875 235.021 136.643 235.245 136.461 235.531C136.279 235.812 136.143 236.141 136.055 236.516C135.971 236.885 135.93 237.281 135.93 237.703ZM148.789 239.758C148.789 239.549 148.742 239.357 148.648 239.18C148.56 238.997 148.375 238.833 148.094 238.688C147.818 238.536 147.401 238.406 146.844 238.297C146.375 238.198 145.951 238.081 145.57 237.945C145.195 237.81 144.875 237.646 144.609 237.453C144.349 237.26 144.148 237.034 144.008 236.773C143.867 236.513 143.797 236.208 143.797 235.859C143.797 235.526 143.87 235.211 144.016 234.914C144.167 234.617 144.378 234.354 144.648 234.125C144.924 233.896 145.255 233.716 145.641 233.586C146.026 233.456 146.456 233.391 146.93 233.391C147.607 233.391 148.185 233.51 148.664 233.75C149.143 233.99 149.51 234.31 149.766 234.711C150.021 235.107 150.148 235.547 150.148 236.031H148.703C148.703 235.797 148.633 235.57 148.492 235.352C148.357 235.128 148.156 234.943 147.891 234.797C147.63 234.651 147.31 234.578 146.93 234.578C146.529 234.578 146.203 234.641 145.953 234.766C145.708 234.885 145.529 235.039 145.414 235.227C145.305 235.414 145.25 235.612 145.25 235.82C145.25 235.977 145.276 236.117 145.328 236.242C145.385 236.362 145.484 236.474 145.625 236.578C145.766 236.677 145.964 236.771 146.219 236.859C146.474 236.948 146.799 237.036 147.195 237.125C147.888 237.281 148.458 237.469 148.906 237.688C149.354 237.906 149.688 238.174 149.906 238.492C150.125 238.81 150.234 239.195 150.234 239.648C150.234 240.018 150.156 240.357 150 240.664C149.849 240.971 149.628 241.237 149.336 241.461C149.049 241.68 148.706 241.852 148.305 241.977C147.909 242.096 147.464 242.156 146.969 242.156C146.224 242.156 145.594 242.023 145.078 241.758C144.562 241.492 144.172 241.148 143.906 240.727C143.641 240.305 143.508 239.859 143.508 239.391H144.961C144.982 239.786 145.096 240.102 145.305 240.336C145.513 240.565 145.768 240.729 146.07 240.828C146.372 240.922 146.672 240.969 146.969 240.969C147.365 240.969 147.695 240.917 147.961 240.812C148.232 240.708 148.438 240.565 148.578 240.383C148.719 240.201 148.789 239.992 148.789 239.758ZM161.086 240.555V236.203C161.086 235.87 161.018 235.581 160.883 235.336C160.753 235.086 160.555 234.893 160.289 234.758C160.023 234.622 159.695 234.555 159.305 234.555C158.94 234.555 158.62 234.617 158.344 234.742C158.073 234.867 157.859 235.031 157.703 235.234C157.552 235.438 157.477 235.656 157.477 235.891H156.031C156.031 235.589 156.109 235.289 156.266 234.992C156.422 234.695 156.646 234.427 156.938 234.188C157.234 233.943 157.589 233.75 158 233.609C158.417 233.464 158.88 233.391 159.391 233.391C160.005 233.391 160.547 233.495 161.016 233.703C161.49 233.911 161.859 234.227 162.125 234.648C162.396 235.065 162.531 235.589 162.531 236.219V240.156C162.531 240.438 162.555 240.737 162.602 241.055C162.654 241.372 162.729 241.646 162.828 241.875V242H161.32C161.247 241.833 161.19 241.612 161.148 241.336C161.107 241.055 161.086 240.794 161.086 240.555ZM161.336 236.875L161.352 237.891H159.891C159.479 237.891 159.112 237.924 158.789 237.992C158.466 238.055 158.195 238.151 157.977 238.281C157.758 238.411 157.591 238.576 157.477 238.773C157.362 238.966 157.305 239.193 157.305 239.453C157.305 239.719 157.365 239.961 157.484 240.18C157.604 240.398 157.784 240.573 158.023 240.703C158.268 240.828 158.568 240.891 158.922 240.891C159.365 240.891 159.755 240.797 160.094 240.609C160.432 240.422 160.701 240.193 160.898 239.922C161.102 239.651 161.211 239.388 161.227 239.133L161.844 239.828C161.807 240.047 161.708 240.289 161.547 240.555C161.385 240.82 161.169 241.076 160.898 241.32C160.633 241.56 160.315 241.76 159.945 241.922C159.581 242.078 159.169 242.156 158.711 242.156C158.138 242.156 157.635 242.044 157.203 241.82C156.776 241.596 156.443 241.297 156.203 240.922C155.969 240.542 155.852 240.117 155.852 239.648C155.852 239.195 155.94 238.797 156.117 238.453C156.294 238.104 156.549 237.815 156.883 237.586C157.216 237.352 157.617 237.174 158.086 237.055C158.555 236.935 159.078 236.875 159.656 236.875H161.336ZM166.25 235.352V242H164.805V233.547H166.172L166.25 235.352ZM165.906 237.453L165.305 237.43C165.31 236.852 165.396 236.318 165.562 235.828C165.729 235.333 165.964 234.904 166.266 234.539C166.568 234.174 166.927 233.893 167.344 233.695C167.766 233.492 168.232 233.391 168.742 233.391C169.159 233.391 169.534 233.448 169.867 233.562C170.201 233.672 170.484 233.849 170.719 234.094C170.958 234.339 171.141 234.656 171.266 235.047C171.391 235.432 171.453 235.904 171.453 236.461V242H170V236.445C170 236.003 169.935 235.648 169.805 235.383C169.674 235.112 169.484 234.917 169.234 234.797C168.984 234.672 168.677 234.609 168.312 234.609C167.953 234.609 167.625 234.685 167.328 234.836C167.036 234.987 166.784 235.195 166.57 235.461C166.362 235.727 166.198 236.031 166.078 236.375C165.964 236.714 165.906 237.073 165.906 237.453ZM178.977 240.359V230H180.43V242H179.102L178.977 240.359ZM173.289 237.867V237.703C173.289 237.057 173.367 236.471 173.523 235.945C173.685 235.414 173.911 234.958 174.203 234.578C174.5 234.198 174.852 233.906 175.258 233.703C175.669 233.495 176.128 233.391 176.633 233.391C177.164 233.391 177.628 233.484 178.023 233.672C178.424 233.854 178.763 234.122 179.039 234.477C179.32 234.826 179.542 235.247 179.703 235.742C179.865 236.237 179.977 236.797 180.039 237.422V238.141C179.982 238.76 179.87 239.318 179.703 239.812C179.542 240.307 179.32 240.729 179.039 241.078C178.763 241.427 178.424 241.695 178.023 241.883C177.622 242.065 177.154 242.156 176.617 242.156C176.122 242.156 175.669 242.049 175.258 241.836C174.852 241.622 174.5 241.323 174.203 240.938C173.911 240.552 173.685 240.099 173.523 239.578C173.367 239.052 173.289 238.482 173.289 237.867ZM174.742 237.703V237.867C174.742 238.289 174.784 238.685 174.867 239.055C174.956 239.424 175.091 239.75 175.273 240.031C175.456 240.312 175.688 240.534 175.969 240.695C176.25 240.852 176.586 240.93 176.977 240.93C177.456 240.93 177.849 240.828 178.156 240.625C178.469 240.422 178.719 240.154 178.906 239.82C179.094 239.487 179.24 239.125 179.344 238.734V236.852C179.281 236.565 179.19 236.289 179.07 236.023C178.956 235.753 178.805 235.513 178.617 235.305C178.435 235.091 178.208 234.922 177.938 234.797C177.672 234.672 177.357 234.609 176.992 234.609C176.596 234.609 176.255 234.693 175.969 234.859C175.688 235.021 175.456 235.245 175.273 235.531C175.091 235.812 174.956 236.141 174.867 236.516C174.784 236.885 174.742 237.281 174.742 237.703ZM21.3438 266.156C20.7552 266.156 20.2214 266.057 19.7422 265.859C19.2682 265.656 18.8594 265.372 18.5156 265.008C18.1771 264.643 17.9167 264.211 17.7344 263.711C17.5521 263.211 17.4609 262.664 17.4609 262.07V261.742C17.4609 261.055 17.5625 260.443 17.7656 259.906C17.9688 259.365 18.2448 258.906 18.5938 258.531C18.9427 258.156 19.3385 257.872 19.7812 257.68C20.224 257.487 20.6823 257.391 21.1562 257.391C21.7604 257.391 22.2812 257.495 22.7188 257.703C23.1615 257.911 23.5234 258.203 23.8047 258.578C24.0859 258.948 24.2943 259.385 24.4297 259.891C24.5651 260.391 24.6328 260.938 24.6328 261.531V262.18H18.3203V261H23.1875V260.891C23.1667 260.516 23.0885 260.151 22.9531 259.797C22.8229 259.443 22.6146 259.151 22.3281 258.922C22.0417 258.693 21.651 258.578 21.1562 258.578C20.8281 258.578 20.526 258.648 20.25 258.789C19.974 258.924 19.737 259.128 19.5391 259.398C19.3411 259.669 19.1875 260 19.0781 260.391C18.9688 260.781 18.9141 261.232 18.9141 261.742V262.07C18.9141 262.471 18.9688 262.849 19.0781 263.203C19.1927 263.552 19.3568 263.859 19.5703 264.125C19.7891 264.391 20.0521 264.599 20.3594 264.75C20.6719 264.901 21.026 264.977 21.4219 264.977C21.9323 264.977 22.3646 264.872 22.7188 264.664C23.0729 264.456 23.3828 264.177 23.6484 263.828L24.5234 264.523C24.3411 264.799 24.1094 265.062 23.8281 265.312C23.5469 265.562 23.2005 265.766 22.7891 265.922C22.3828 266.078 21.901 266.156 21.3438 266.156ZM27.7656 259.352V266H26.3203V257.547H27.6875L27.7656 259.352ZM27.4219 261.453L26.8203 261.43C26.8255 260.852 26.9115 260.318 27.0781 259.828C27.2448 259.333 27.4792 258.904 27.7812 258.539C28.0833 258.174 28.4427 257.893 28.8594 257.695C29.2812 257.492 29.7474 257.391 30.2578 257.391C30.6745 257.391 31.0495 257.448 31.3828 257.562C31.7161 257.672 32 257.849 32.2344 258.094C32.474 258.339 32.6562 258.656 32.7812 259.047C32.9062 259.432 32.9688 259.904 32.9688 260.461V266H31.5156V260.445C31.5156 260.003 31.4505 259.648 31.3203 259.383C31.1901 259.112 31 258.917 30.75 258.797C30.5 258.672 30.1927 258.609 29.8281 258.609C29.4688 258.609 29.1406 258.685 28.8438 258.836C28.5521 258.987 28.2995 259.195 28.0859 259.461C27.8776 259.727 27.7135 260.031 27.5938 260.375C27.4792 260.714 27.4219 261.073 27.4219 261.453ZM36.6094 254V266H35.1641V254H36.6094ZM36.2656 261.453L35.6641 261.43C35.6693 260.852 35.7552 260.318 35.9219 259.828C36.0885 259.333 36.3229 258.904 36.625 258.539C36.9271 258.174 37.2865 257.893 37.7031 257.695C38.125 257.492 38.5911 257.391 39.1016 257.391C39.5182 257.391 39.8932 257.448 40.2266 257.562C40.5599 257.672 40.8438 257.849 41.0781 258.094C41.3177 258.339 41.5 258.656 41.625 259.047C41.75 259.432 41.8125 259.904 41.8125 260.461V266H40.3594V260.445C40.3594 260.003 40.2943 259.648 40.1641 259.383C40.0339 259.112 39.8438 258.917 39.5938 258.797C39.3438 258.672 39.0365 258.609 38.6719 258.609C38.3125 258.609 37.9844 258.685 37.6875 258.836C37.3958 258.987 37.1432 259.195 36.9297 259.461C36.7214 259.727 36.5573 260.031 36.4375 260.375C36.3229 260.714 36.2656 261.073 36.2656 261.453ZM48.9609 264.555V260.203C48.9609 259.87 48.8932 259.581 48.7578 259.336C48.6276 259.086 48.4297 258.893 48.1641 258.758C47.8984 258.622 47.5703 258.555 47.1797 258.555C46.8151 258.555 46.4948 258.617 46.2188 258.742C45.9479 258.867 45.7344 259.031 45.5781 259.234C45.4271 259.438 45.3516 259.656 45.3516 259.891H43.9062C43.9062 259.589 43.9844 259.289 44.1406 258.992C44.2969 258.695 44.5208 258.427 44.8125 258.188C45.1094 257.943 45.4635 257.75 45.875 257.609C46.2917 257.464 46.7552 257.391 47.2656 257.391C47.8802 257.391 48.4219 257.495 48.8906 257.703C49.3646 257.911 49.7344 258.227 50 258.648C50.2708 259.065 50.4062 259.589 50.4062 260.219V264.156C50.4062 264.438 50.4297 264.737 50.4766 265.055C50.5286 265.372 50.6042 265.646 50.7031 265.875V266H49.1953C49.1224 265.833 49.0651 265.612 49.0234 265.336C48.9818 265.055 48.9609 264.794 48.9609 264.555ZM49.2109 260.875L49.2266 261.891H47.7656C47.3542 261.891 46.987 261.924 46.6641 261.992C46.3411 262.055 46.0703 262.151 45.8516 262.281C45.6328 262.411 45.4661 262.576 45.3516 262.773C45.237 262.966 45.1797 263.193 45.1797 263.453C45.1797 263.719 45.2396 263.961 45.3594 264.18C45.4792 264.398 45.6589 264.573 45.8984 264.703C46.1432 264.828 46.4427 264.891 46.7969 264.891C47.2396 264.891 47.6302 264.797 47.9688 264.609C48.3073 264.422 48.5755 264.193 48.7734 263.922C48.9766 263.651 49.0859 263.388 49.1016 263.133L49.7188 263.828C49.6823 264.047 49.5833 264.289 49.4219 264.555C49.2604 264.82 49.0443 265.076 48.7734 265.32C48.5078 265.56 48.1901 265.76 47.8203 265.922C47.4557 266.078 47.0443 266.156 46.5859 266.156C46.013 266.156 45.5104 266.044 45.0781 265.82C44.651 265.596 44.3177 265.297 44.0781 264.922C43.8438 264.542 43.7266 264.117 43.7266 263.648C43.7266 263.195 43.8151 262.797 43.9922 262.453C44.1693 262.104 44.4245 261.815 44.7578 261.586C45.0911 261.352 45.4922 261.174 45.9609 261.055C46.4297 260.935 46.9531 260.875 47.5312 260.875H49.2109ZM54.125 259.352V266H52.6797V257.547H54.0469L54.125 259.352ZM53.7812 261.453L53.1797 261.43C53.1849 260.852 53.2708 260.318 53.4375 259.828C53.6042 259.333 53.8385 258.904 54.1406 258.539C54.4427 258.174 54.8021 257.893 55.2188 257.695C55.6406 257.492 56.1068 257.391 56.6172 257.391C57.0339 257.391 57.4089 257.448 57.7422 257.562C58.0755 257.672 58.3594 257.849 58.5938 258.094C58.8333 258.339 59.0156 258.656 59.1406 259.047C59.2656 259.432 59.3281 259.904 59.3281 260.461V266H57.875V260.445C57.875 260.003 57.8099 259.648 57.6797 259.383C57.5495 259.112 57.3594 258.917 57.1094 258.797C56.8594 258.672 56.5521 258.609 56.1875 258.609C55.8281 258.609 55.5 258.685 55.2031 258.836C54.9115 258.987 54.6589 259.195 54.4453 259.461C54.237 259.727 54.0729 260.031 53.9531 260.375C53.8385 260.714 53.7812 261.073 53.7812 261.453ZM64.9062 264.969C65.25 264.969 65.5677 264.898 65.8594 264.758C66.151 264.617 66.3906 264.424 66.5781 264.18C66.7656 263.93 66.8724 263.646 66.8984 263.328H68.2734C68.2474 263.828 68.0781 264.294 67.7656 264.727C67.4583 265.154 67.0547 265.5 66.5547 265.766C66.0547 266.026 65.5052 266.156 64.9062 266.156C64.2708 266.156 63.7161 266.044 63.2422 265.82C62.7734 265.596 62.3828 265.289 62.0703 264.898C61.763 264.508 61.5312 264.06 61.375 263.555C61.224 263.044 61.1484 262.505 61.1484 261.938V261.609C61.1484 261.042 61.224 260.505 61.375 260C61.5312 259.49 61.763 259.039 62.0703 258.648C62.3828 258.258 62.7734 257.951 63.2422 257.727C63.7161 257.503 64.2708 257.391 64.9062 257.391C65.5677 257.391 66.1458 257.526 66.6406 257.797C67.1354 258.062 67.5234 258.427 67.8047 258.891C68.0911 259.349 68.2474 259.87 68.2734 260.453H66.8984C66.8724 260.104 66.7734 259.789 66.6016 259.508C66.4349 259.227 66.2057 259.003 65.9141 258.836C65.6276 258.664 65.2917 258.578 64.9062 258.578C64.4635 258.578 64.0911 258.667 63.7891 258.844C63.4922 259.016 63.2552 259.25 63.0781 259.547C62.9062 259.839 62.7812 260.164 62.7031 260.523C62.6302 260.878 62.5938 261.24 62.5938 261.609V261.938C62.5938 262.307 62.6302 262.672 62.7031 263.031C62.776 263.391 62.8984 263.716 63.0703 264.008C63.2474 264.299 63.4844 264.534 63.7812 264.711C64.0833 264.883 64.4583 264.969 64.9062 264.969ZM73.4062 266.156C72.8177 266.156 72.2839 266.057 71.8047 265.859C71.3307 265.656 70.9219 265.372 70.5781 265.008C70.2396 264.643 69.9792 264.211 69.7969 263.711C69.6146 263.211 69.5234 262.664 69.5234 262.07V261.742C69.5234 261.055 69.625 260.443 69.8281 259.906C70.0312 259.365 70.3073 258.906 70.6562 258.531C71.0052 258.156 71.401 257.872 71.8438 257.68C72.2865 257.487 72.7448 257.391 73.2188 257.391C73.8229 257.391 74.3438 257.495 74.7812 257.703C75.224 257.911 75.5859 258.203 75.8672 258.578C76.1484 258.948 76.3568 259.385 76.4922 259.891C76.6276 260.391 76.6953 260.938 76.6953 261.531V262.18H70.3828V261H75.25V260.891C75.2292 260.516 75.151 260.151 75.0156 259.797C74.8854 259.443 74.6771 259.151 74.3906 258.922C74.1042 258.693 73.7135 258.578 73.2188 258.578C72.8906 258.578 72.5885 258.648 72.3125 258.789C72.0365 258.924 71.7995 259.128 71.6016 259.398C71.4036 259.669 71.25 260 71.1406 260.391C71.0312 260.781 70.9766 261.232 70.9766 261.742V262.07C70.9766 262.471 71.0312 262.849 71.1406 263.203C71.2552 263.552 71.4193 263.859 71.6328 264.125C71.8516 264.391 72.1146 264.599 72.4219 264.75C72.7344 264.901 73.0885 264.977 73.4844 264.977C73.9948 264.977 74.4271 264.872 74.7812 264.664C75.1354 264.456 75.4453 264.177 75.7109 263.828L76.5859 264.523C76.4036 264.799 76.1719 265.062 75.8906 265.312C75.6094 265.562 75.263 265.766 74.8516 265.922C74.4453 266.078 73.9635 266.156 73.4062 266.156ZM83.3047 263.758C83.3047 263.549 83.2578 263.357 83.1641 263.18C83.0755 262.997 82.8906 262.833 82.6094 262.688C82.3333 262.536 81.9167 262.406 81.3594 262.297C80.8906 262.198 80.4661 262.081 80.0859 261.945C79.7109 261.81 79.3906 261.646 79.125 261.453C78.8646 261.26 78.6641 261.034 78.5234 260.773C78.3828 260.513 78.3125 260.208 78.3125 259.859C78.3125 259.526 78.3854 259.211 78.5312 258.914C78.6823 258.617 78.8932 258.354 79.1641 258.125C79.4401 257.896 79.7708 257.716 80.1562 257.586C80.5417 257.456 80.9714 257.391 81.4453 257.391C82.1224 257.391 82.7005 257.51 83.1797 257.75C83.6589 257.99 84.026 258.31 84.2812 258.711C84.5365 259.107 84.6641 259.547 84.6641 260.031H83.2188C83.2188 259.797 83.1484 259.57 83.0078 259.352C82.8724 259.128 82.6719 258.943 82.4062 258.797C82.1458 258.651 81.8255 258.578 81.4453 258.578C81.0443 258.578 80.7188 258.641 80.4688 258.766C80.224 258.885 80.0443 259.039 79.9297 259.227C79.8203 259.414 79.7656 259.612 79.7656 259.82C79.7656 259.977 79.7917 260.117 79.8438 260.242C79.901 260.362 80 260.474 80.1406 260.578C80.2812 260.677 80.4792 260.771 80.7344 260.859C80.9896 260.948 81.3151 261.036 81.7109 261.125C82.4036 261.281 82.974 261.469 83.4219 261.688C83.8698 261.906 84.2031 262.174 84.4219 262.492C84.6406 262.81 84.75 263.195 84.75 263.648C84.75 264.018 84.6719 264.357 84.5156 264.664C84.3646 264.971 84.1432 265.237 83.8516 265.461C83.5651 265.68 83.2214 265.852 82.8203 265.977C82.4245 266.096 81.9792 266.156 81.4844 266.156C80.7396 266.156 80.1094 266.023 79.5938 265.758C79.0781 265.492 78.6875 265.148 78.4219 264.727C78.1562 264.305 78.0234 263.859 78.0234 263.391H79.4766C79.4974 263.786 79.612 264.102 79.8203 264.336C80.0286 264.565 80.2839 264.729 80.5859 264.828C80.888 264.922 81.1875 264.969 81.4844 264.969C81.8802 264.969 82.2109 264.917 82.4766 264.812C82.7474 264.708 82.9531 264.565 83.0938 264.383C83.2344 264.201 83.3047 263.992 83.3047 263.758ZM94.1562 257.547V258.656H89.5859V257.547H94.1562ZM91.1328 255.492H92.5781V263.906C92.5781 264.193 92.6224 264.409 92.7109 264.555C92.7995 264.701 92.9141 264.797 93.0547 264.844C93.1953 264.891 93.3464 264.914 93.5078 264.914C93.6276 264.914 93.7526 264.904 93.8828 264.883C94.0182 264.857 94.1198 264.836 94.1875 264.82L94.1953 266C94.0807 266.036 93.9297 266.07 93.7422 266.102C93.5599 266.138 93.3385 266.156 93.0781 266.156C92.724 266.156 92.3984 266.086 92.1016 265.945C91.8047 265.805 91.5677 265.57 91.3906 265.242C91.2188 264.909 91.1328 264.461 91.1328 263.898V255.492ZM97.2969 254V266H95.8516V254H97.2969ZM96.9531 261.453L96.3516 261.43C96.3568 260.852 96.4427 260.318 96.6094 259.828C96.776 259.333 97.0104 258.904 97.3125 258.539C97.6146 258.174 97.974 257.893 98.3906 257.695C98.8125 257.492 99.2786 257.391 99.7891 257.391C100.206 257.391 100.581 257.448 100.914 257.562C101.247 257.672 101.531 257.849 101.766 258.094C102.005 258.339 102.188 258.656 102.312 259.047C102.438 259.432 102.5 259.904 102.5 260.461V266H101.047V260.445C101.047 260.003 100.982 259.648 100.852 259.383C100.721 259.112 100.531 258.917 100.281 258.797C100.031 258.672 99.724 258.609 99.3594 258.609C99 258.609 98.6719 258.685 98.375 258.836C98.0833 258.987 97.8307 259.195 97.6172 259.461C97.4089 259.727 97.2448 260.031 97.125 260.375C97.0104 260.714 96.9531 261.073 96.9531 261.453ZM108.172 266.156C107.583 266.156 107.049 266.057 106.57 265.859C106.096 265.656 105.688 265.372 105.344 265.008C105.005 264.643 104.745 264.211 104.562 263.711C104.38 263.211 104.289 262.664 104.289 262.07V261.742C104.289 261.055 104.391 260.443 104.594 259.906C104.797 259.365 105.073 258.906 105.422 258.531C105.771 258.156 106.167 257.872 106.609 257.68C107.052 257.487 107.51 257.391 107.984 257.391C108.589 257.391 109.109 257.495 109.547 257.703C109.99 257.911 110.352 258.203 110.633 258.578C110.914 258.948 111.122 259.385 111.258 259.891C111.393 260.391 111.461 260.938 111.461 261.531V262.18H105.148V261H110.016V260.891C109.995 260.516 109.917 260.151 109.781 259.797C109.651 259.443 109.443 259.151 109.156 258.922C108.87 258.693 108.479 258.578 107.984 258.578C107.656 258.578 107.354 258.648 107.078 258.789C106.802 258.924 106.565 259.128 106.367 259.398C106.169 259.669 106.016 260 105.906 260.391C105.797 260.781 105.742 261.232 105.742 261.742V262.07C105.742 262.471 105.797 262.849 105.906 263.203C106.021 263.552 106.185 263.859 106.398 264.125C106.617 264.391 106.88 264.599 107.188 264.75C107.5 264.901 107.854 264.977 108.25 264.977C108.76 264.977 109.193 264.872 109.547 264.664C109.901 264.456 110.211 264.177 110.477 263.828L111.352 264.523C111.169 264.799 110.938 265.062 110.656 265.312C110.375 265.562 110.029 265.766 109.617 265.922C109.211 266.078 108.729 266.156 108.172 266.156ZM114.719 257.547V266H113.266V257.547H114.719ZM113.156 255.305C113.156 255.07 113.227 254.872 113.367 254.711C113.513 254.549 113.727 254.469 114.008 254.469C114.284 254.469 114.495 254.549 114.641 254.711C114.792 254.872 114.867 255.07 114.867 255.305C114.867 255.529 114.792 255.721 114.641 255.883C114.495 256.039 114.284 256.117 114.008 256.117C113.727 256.117 113.513 256.039 113.367 255.883C113.227 255.721 113.156 255.529 113.156 255.305ZM118.484 258.875V266H117.039V257.547H118.445L118.484 258.875ZM121.125 257.5L121.117 258.844C120.997 258.818 120.883 258.802 120.773 258.797C120.669 258.786 120.549 258.781 120.414 258.781C120.081 258.781 119.786 258.833 119.531 258.938C119.276 259.042 119.06 259.188 118.883 259.375C118.706 259.562 118.565 259.786 118.461 260.047C118.362 260.302 118.297 260.583 118.266 260.891L117.859 261.125C117.859 260.615 117.909 260.135 118.008 259.688C118.112 259.24 118.271 258.844 118.484 258.5C118.698 258.151 118.969 257.88 119.297 257.688C119.63 257.49 120.026 257.391 120.484 257.391C120.589 257.391 120.708 257.404 120.844 257.43C120.979 257.451 121.073 257.474 121.125 257.5ZM127.875 259.172V269.25H126.422V257.547H127.75L127.875 259.172ZM133.57 261.703V261.867C133.57 262.482 133.497 263.052 133.352 263.578C133.206 264.099 132.992 264.552 132.711 264.938C132.435 265.323 132.094 265.622 131.688 265.836C131.281 266.049 130.815 266.156 130.289 266.156C129.753 266.156 129.279 266.068 128.867 265.891C128.456 265.714 128.107 265.456 127.82 265.117C127.534 264.779 127.305 264.372 127.133 263.898C126.966 263.424 126.852 262.891 126.789 262.297V261.422C126.852 260.797 126.969 260.237 127.141 259.742C127.312 259.247 127.539 258.826 127.82 258.477C128.107 258.122 128.453 257.854 128.859 257.672C129.266 257.484 129.734 257.391 130.266 257.391C130.797 257.391 131.268 257.495 131.68 257.703C132.091 257.906 132.438 258.198 132.719 258.578C133 258.958 133.211 259.414 133.352 259.945C133.497 260.471 133.57 261.057 133.57 261.703ZM132.117 261.867V261.703C132.117 261.281 132.073 260.885 131.984 260.516C131.896 260.141 131.758 259.812 131.57 259.531C131.388 259.245 131.154 259.021 130.867 258.859C130.581 258.693 130.24 258.609 129.844 258.609C129.479 258.609 129.161 258.672 128.891 258.797C128.625 258.922 128.398 259.091 128.211 259.305C128.023 259.513 127.87 259.753 127.75 260.023C127.635 260.289 127.549 260.565 127.492 260.852V262.875C127.596 263.24 127.742 263.583 127.93 263.906C128.117 264.224 128.367 264.482 128.68 264.68C128.992 264.872 129.385 264.969 129.859 264.969C130.25 264.969 130.586 264.888 130.867 264.727C131.154 264.56 131.388 264.333 131.57 264.047C131.758 263.76 131.896 263.432 131.984 263.062C132.073 262.688 132.117 262.289 132.117 261.867ZM140.398 264.555V260.203C140.398 259.87 140.331 259.581 140.195 259.336C140.065 259.086 139.867 258.893 139.602 258.758C139.336 258.622 139.008 258.555 138.617 258.555C138.253 258.555 137.932 258.617 137.656 258.742C137.385 258.867 137.172 259.031 137.016 259.234C136.865 259.438 136.789 259.656 136.789 259.891H135.344C135.344 259.589 135.422 259.289 135.578 258.992C135.734 258.695 135.958 258.427 136.25 258.188C136.547 257.943 136.901 257.75 137.312 257.609C137.729 257.464 138.193 257.391 138.703 257.391C139.318 257.391 139.859 257.495 140.328 257.703C140.802 257.911 141.172 258.227 141.438 258.648C141.708 259.065 141.844 259.589 141.844 260.219V264.156C141.844 264.438 141.867 264.737 141.914 265.055C141.966 265.372 142.042 265.646 142.141 265.875V266H140.633C140.56 265.833 140.503 265.612 140.461 265.336C140.419 265.055 140.398 264.794 140.398 264.555ZM140.648 260.875L140.664 261.891H139.203C138.792 261.891 138.424 261.924 138.102 261.992C137.779 262.055 137.508 262.151 137.289 262.281C137.07 262.411 136.904 262.576 136.789 262.773C136.674 262.966 136.617 263.193 136.617 263.453C136.617 263.719 136.677 263.961 136.797 264.18C136.917 264.398 137.096 264.573 137.336 264.703C137.581 264.828 137.88 264.891 138.234 264.891C138.677 264.891 139.068 264.797 139.406 264.609C139.745 264.422 140.013 264.193 140.211 263.922C140.414 263.651 140.523 263.388 140.539 263.133L141.156 263.828C141.12 264.047 141.021 264.289 140.859 264.555C140.698 264.82 140.482 265.076 140.211 265.32C139.945 265.56 139.628 265.76 139.258 265.922C138.893 266.078 138.482 266.156 138.023 266.156C137.451 266.156 136.948 266.044 136.516 265.82C136.089 265.596 135.755 265.297 135.516 264.922C135.281 264.542 135.164 264.117 135.164 263.648C135.164 263.195 135.253 262.797 135.43 262.453C135.607 262.104 135.862 261.815 136.195 261.586C136.529 261.352 136.93 261.174 137.398 261.055C137.867 260.935 138.391 260.875 138.969 260.875H140.648ZM145.562 258.875V266H144.117V257.547H145.523L145.562 258.875ZM148.203 257.5L148.195 258.844C148.076 258.818 147.961 258.802 147.852 258.797C147.747 258.786 147.628 258.781 147.492 258.781C147.159 258.781 146.865 258.833 146.609 258.938C146.354 259.042 146.138 259.188 145.961 259.375C145.784 259.562 145.643 259.786 145.539 260.047C145.44 260.302 145.375 260.583 145.344 260.891L144.938 261.125C144.938 260.615 144.987 260.135 145.086 259.688C145.19 259.24 145.349 258.844 145.562 258.5C145.776 258.151 146.047 257.88 146.375 257.688C146.708 257.49 147.104 257.391 147.562 257.391C147.667 257.391 147.786 257.404 147.922 257.43C148.057 257.451 148.151 257.474 148.203 257.5ZM150.992 254V266H149.539V254H150.992ZM156.156 257.547L152.469 261.492L150.406 263.633L150.289 262.094L151.766 260.328L154.391 257.547H156.156ZM154.836 266L151.82 261.969L152.57 260.68L156.539 266H154.836ZM159.219 257.547V266H157.766V257.547H159.219ZM157.656 255.305C157.656 255.07 157.727 254.872 157.867 254.711C158.013 254.549 158.227 254.469 158.508 254.469C158.784 254.469 158.995 254.549 159.141 254.711C159.292 254.872 159.367 255.07 159.367 255.305C159.367 255.529 159.292 255.721 159.141 255.883C158.995 256.039 158.784 256.117 158.508 256.117C158.227 256.117 158.013 256.039 157.867 255.883C157.727 255.721 157.656 255.529 157.656 255.305ZM162.984 259.352V266H161.539V257.547H162.906L162.984 259.352ZM162.641 261.453L162.039 261.43C162.044 260.852 162.13 260.318 162.297 259.828C162.464 259.333 162.698 258.904 163 258.539C163.302 258.174 163.661 257.893 164.078 257.695C164.5 257.492 164.966 257.391 165.477 257.391C165.893 257.391 166.268 257.448 166.602 257.562C166.935 257.672 167.219 257.849 167.453 258.094C167.693 258.339 167.875 258.656 168 259.047C168.125 259.432 168.188 259.904 168.188 260.461V266H166.734V260.445C166.734 260.003 166.669 259.648 166.539 259.383C166.409 259.112 166.219 258.917 165.969 258.797C165.719 258.672 165.411 258.609 165.047 258.609C164.688 258.609 164.359 258.685 164.062 258.836C163.771 258.987 163.518 259.195 163.305 259.461C163.096 259.727 162.932 260.031 162.812 260.375C162.698 260.714 162.641 261.073 162.641 261.453ZM175.859 257.547H177.172V265.82C177.172 266.565 177.021 267.201 176.719 267.727C176.417 268.253 175.995 268.651 175.453 268.922C174.917 269.198 174.297 269.336 173.594 269.336C173.302 269.336 172.958 269.289 172.562 269.195C172.172 269.107 171.786 268.953 171.406 268.734C171.031 268.521 170.716 268.232 170.461 267.867L171.219 267.008C171.573 267.435 171.943 267.732 172.328 267.898C172.719 268.065 173.104 268.148 173.484 268.148C173.943 268.148 174.339 268.062 174.672 267.891C175.005 267.719 175.263 267.464 175.445 267.125C175.633 266.792 175.727 266.38 175.727 265.891V259.406L175.859 257.547ZM170.039 261.867V261.703C170.039 261.057 170.115 260.471 170.266 259.945C170.422 259.414 170.643 258.958 170.93 258.578C171.221 258.198 171.573 257.906 171.984 257.703C172.396 257.495 172.859 257.391 173.375 257.391C173.906 257.391 174.37 257.484 174.766 257.672C175.167 257.854 175.505 258.122 175.781 258.477C176.062 258.826 176.284 259.247 176.445 259.742C176.607 260.237 176.719 260.797 176.781 261.422V262.141C176.724 262.76 176.612 263.318 176.445 263.812C176.284 264.307 176.062 264.729 175.781 265.078C175.505 265.427 175.167 265.695 174.766 265.883C174.365 266.065 173.896 266.156 173.359 266.156C172.854 266.156 172.396 266.049 171.984 265.836C171.578 265.622 171.229 265.323 170.938 264.938C170.646 264.552 170.422 264.099 170.266 263.578C170.115 263.052 170.039 262.482 170.039 261.867ZM171.484 261.703V261.867C171.484 262.289 171.526 262.685 171.609 263.055C171.698 263.424 171.831 263.75 172.008 264.031C172.19 264.312 172.422 264.534 172.703 264.695C172.984 264.852 173.32 264.93 173.711 264.93C174.19 264.93 174.586 264.828 174.898 264.625C175.211 264.422 175.458 264.154 175.641 263.82C175.828 263.487 175.974 263.125 176.078 262.734V260.852C176.021 260.565 175.932 260.289 175.812 260.023C175.698 259.753 175.547 259.513 175.359 259.305C175.177 259.091 174.951 258.922 174.68 258.797C174.409 258.672 174.091 258.609 173.727 258.609C173.331 258.609 172.99 258.693 172.703 258.859C172.422 259.021 172.19 259.245 172.008 259.531C171.831 259.812 171.698 260.141 171.609 260.516C171.526 260.885 171.484 261.281 171.484 261.703ZM61.3047 290.156C60.7161 290.156 60.1823 290.057 59.7031 289.859C59.2292 289.656 58.8203 289.372 58.4766 289.008C58.138 288.643 57.8776 288.211 57.6953 287.711C57.513 287.211 57.4219 286.664 57.4219 286.07V285.742C57.4219 285.055 57.5234 284.443 57.7266 283.906C57.9297 283.365 58.2057 282.906 58.5547 282.531C58.9036 282.156 59.2995 281.872 59.7422 281.68C60.1849 281.487 60.6432 281.391 61.1172 281.391C61.7214 281.391 62.2422 281.495 62.6797 281.703C63.1224 281.911 63.4844 282.203 63.7656 282.578C64.0469 282.948 64.2552 283.385 64.3906 283.891C64.526 284.391 64.5938 284.938 64.5938 285.531V286.18H58.2812V285H63.1484V284.891C63.1276 284.516 63.0495 284.151 62.9141 283.797C62.7839 283.443 62.5755 283.151 62.2891 282.922C62.0026 282.693 61.612 282.578 61.1172 282.578C60.7891 282.578 60.487 282.648 60.2109 282.789C59.9349 282.924 59.6979 283.128 59.5 283.398C59.3021 283.669 59.1484 284 59.0391 284.391C58.9297 284.781 58.875 285.232 58.875 285.742V286.07C58.875 286.471 58.9297 286.849 59.0391 287.203C59.1536 287.552 59.3177 287.859 59.5312 288.125C59.75 288.391 60.013 288.599 60.3203 288.75C60.6328 288.901 60.987 288.977 61.3828 288.977C61.8932 288.977 62.3255 288.872 62.6797 288.664C63.0339 288.456 63.3438 288.177 63.6094 287.828L64.4844 288.523C64.3021 288.799 64.0703 289.062 63.7891 289.312C63.5078 289.562 63.1615 289.766 62.75 289.922C62.3438 290.078 61.862 290.156 61.3047 290.156ZM67.2578 281.547L69.1094 284.625L70.9844 281.547H72.6797L69.9141 285.719L72.7656 290H71.0938L69.1406 286.828L67.1875 290H65.5078L68.3516 285.719L65.5938 281.547H67.2578ZM75.6641 283.172V293.25H74.2109V281.547H75.5391L75.6641 283.172ZM81.3594 285.703V285.867C81.3594 286.482 81.2865 287.052 81.1406 287.578C80.9948 288.099 80.7812 288.552 80.5 288.938C80.224 289.323 79.8828 289.622 79.4766 289.836C79.0703 290.049 78.6042 290.156 78.0781 290.156C77.5417 290.156 77.0677 290.068 76.6562 289.891C76.2448 289.714 75.8958 289.456 75.6094 289.117C75.3229 288.779 75.0938 288.372 74.9219 287.898C74.7552 287.424 74.6406 286.891 74.5781 286.297V285.422C74.6406 284.797 74.7578 284.237 74.9297 283.742C75.1016 283.247 75.3281 282.826 75.6094 282.477C75.8958 282.122 76.2422 281.854 76.6484 281.672C77.0547 281.484 77.5234 281.391 78.0547 281.391C78.5859 281.391 79.0573 281.495 79.4688 281.703C79.8802 281.906 80.2266 282.198 80.5078 282.578C80.7891 282.958 81 283.414 81.1406 283.945C81.2865 284.471 81.3594 285.057 81.3594 285.703ZM79.9062 285.867V285.703C79.9062 285.281 79.862 284.885 79.7734 284.516C79.6849 284.141 79.5469 283.812 79.3594 283.531C79.1771 283.245 78.9427 283.021 78.6562 282.859C78.3698 282.693 78.0286 282.609 77.6328 282.609C77.2682 282.609 76.9505 282.672 76.6797 282.797C76.4141 282.922 76.1875 283.091 76 283.305C75.8125 283.513 75.6589 283.753 75.5391 284.023C75.4245 284.289 75.3385 284.565 75.2812 284.852V286.875C75.3854 287.24 75.5312 287.583 75.7188 287.906C75.9062 288.224 76.1562 288.482 76.4688 288.68C76.7812 288.872 77.1745 288.969 77.6484 288.969C78.0391 288.969 78.375 288.888 78.6562 288.727C78.9427 288.56 79.1771 288.333 79.3594 288.047C79.5469 287.76 79.6849 287.432 79.7734 287.062C79.862 286.688 79.9062 286.289 79.9062 285.867ZM86.7109 290.156C86.1224 290.156 85.5885 290.057 85.1094 289.859C84.6354 289.656 84.2266 289.372 83.8828 289.008C83.5443 288.643 83.2839 288.211 83.1016 287.711C82.9193 287.211 82.8281 286.664 82.8281 286.07V285.742C82.8281 285.055 82.9297 284.443 83.1328 283.906C83.3359 283.365 83.612 282.906 83.9609 282.531C84.3099 282.156 84.7057 281.872 85.1484 281.68C85.5911 281.487 86.0495 281.391 86.5234 281.391C87.1276 281.391 87.6484 281.495 88.0859 281.703C88.5286 281.911 88.8906 282.203 89.1719 282.578C89.4531 282.948 89.6615 283.385 89.7969 283.891C89.9323 284.391 90 284.938 90 285.531V286.18H83.6875V285H88.5547V284.891C88.5339 284.516 88.4557 284.151 88.3203 283.797C88.1901 283.443 87.9818 283.151 87.6953 282.922C87.4089 282.693 87.0182 282.578 86.5234 282.578C86.1953 282.578 85.8932 282.648 85.6172 282.789C85.3411 282.924 85.1042 283.128 84.9062 283.398C84.7083 283.669 84.5547 284 84.4453 284.391C84.3359 284.781 84.2812 285.232 84.2812 285.742V286.07C84.2812 286.471 84.3359 286.849 84.4453 287.203C84.5599 287.552 84.724 287.859 84.9375 288.125C85.1562 288.391 85.4193 288.599 85.7266 288.75C86.0391 288.901 86.3932 288.977 86.7891 288.977C87.2995 288.977 87.7318 288.872 88.0859 288.664C88.4401 288.456 88.75 288.177 89.0156 287.828L89.8906 288.523C89.7083 288.799 89.4766 289.062 89.1953 289.312C88.9141 289.562 88.5677 289.766 88.1562 289.922C87.75 290.078 87.2682 290.156 86.7109 290.156ZM93.1328 282.875V290H91.6875V281.547H93.0938L93.1328 282.875ZM95.7734 281.5L95.7656 282.844C95.6458 282.818 95.5312 282.802 95.4219 282.797C95.3177 282.786 95.1979 282.781 95.0625 282.781C94.7292 282.781 94.4349 282.833 94.1797 282.938C93.9245 283.042 93.7083 283.188 93.5312 283.375C93.3542 283.562 93.2135 283.786 93.1094 284.047C93.0104 284.302 92.9453 284.583 92.9141 284.891L92.5078 285.125C92.5078 284.615 92.5573 284.135 92.6562 283.688C92.7604 283.24 92.9193 282.844 93.1328 282.5C93.3464 282.151 93.6172 281.88 93.9453 281.688C94.2786 281.49 94.6745 281.391 95.1328 281.391C95.237 281.391 95.3568 281.404 95.4922 281.43C95.6276 281.451 95.7214 281.474 95.7734 281.5ZM98.6797 281.547V290H97.2266V281.547H98.6797ZM97.1172 279.305C97.1172 279.07 97.1875 278.872 97.3281 278.711C97.474 278.549 97.6875 278.469 97.9688 278.469C98.2448 278.469 98.4557 278.549 98.6016 278.711C98.7526 278.872 98.8281 279.07 98.8281 279.305C98.8281 279.529 98.7526 279.721 98.6016 279.883C98.4557 280.039 98.2448 280.117 97.9688 280.117C97.6875 280.117 97.474 280.039 97.3281 279.883C97.1875 279.721 97.1172 279.529 97.1172 279.305ZM104.508 290.156C103.919 290.156 103.385 290.057 102.906 289.859C102.432 289.656 102.023 289.372 101.68 289.008C101.341 288.643 101.081 288.211 100.898 287.711C100.716 287.211 100.625 286.664 100.625 286.07V285.742C100.625 285.055 100.727 284.443 100.93 283.906C101.133 283.365 101.409 282.906 101.758 282.531C102.107 282.156 102.503 281.872 102.945 281.68C103.388 281.487 103.846 281.391 104.32 281.391C104.924 281.391 105.445 281.495 105.883 281.703C106.326 281.911 106.688 282.203 106.969 282.578C107.25 282.948 107.458 283.385 107.594 283.891C107.729 284.391 107.797 284.938 107.797 285.531V286.18H101.484V285H106.352V284.891C106.331 284.516 106.253 284.151 106.117 283.797C105.987 283.443 105.779 283.151 105.492 282.922C105.206 282.693 104.815 282.578 104.32 282.578C103.992 282.578 103.69 282.648 103.414 282.789C103.138 282.924 102.901 283.128 102.703 283.398C102.505 283.669 102.352 284 102.242 284.391C102.133 284.781 102.078 285.232 102.078 285.742V286.07C102.078 286.471 102.133 286.849 102.242 287.203C102.357 287.552 102.521 287.859 102.734 288.125C102.953 288.391 103.216 288.599 103.523 288.75C103.836 288.901 104.19 288.977 104.586 288.977C105.096 288.977 105.529 288.872 105.883 288.664C106.237 288.456 106.547 288.177 106.812 287.828L107.688 288.523C107.505 288.799 107.273 289.062 106.992 289.312C106.711 289.562 106.365 289.766 105.953 289.922C105.547 290.078 105.065 290.156 104.508 290.156ZM110.93 283.352V290H109.484V281.547H110.852L110.93 283.352ZM110.586 285.453L109.984 285.43C109.99 284.852 110.076 284.318 110.242 283.828C110.409 283.333 110.643 282.904 110.945 282.539C111.247 282.174 111.607 281.893 112.023 281.695C112.445 281.492 112.911 281.391 113.422 281.391C113.839 281.391 114.214 281.448 114.547 281.562C114.88 281.672 115.164 281.849 115.398 282.094C115.638 282.339 115.82 282.656 115.945 283.047C116.07 283.432 116.133 283.904 116.133 284.461V290H114.68V284.445C114.68 284.003 114.615 283.648 114.484 283.383C114.354 283.112 114.164 282.917 113.914 282.797C113.664 282.672 113.357 282.609 112.992 282.609C112.633 282.609 112.305 282.685 112.008 282.836C111.716 282.987 111.464 283.195 111.25 283.461C111.042 283.727 110.878 284.031 110.758 284.375C110.643 284.714 110.586 285.073 110.586 285.453ZM121.711 288.969C122.055 288.969 122.372 288.898 122.664 288.758C122.956 288.617 123.195 288.424 123.383 288.18C123.57 287.93 123.677 287.646 123.703 287.328H125.078C125.052 287.828 124.883 288.294 124.57 288.727C124.263 289.154 123.859 289.5 123.359 289.766C122.859 290.026 122.31 290.156 121.711 290.156C121.076 290.156 120.521 290.044 120.047 289.82C119.578 289.596 119.188 289.289 118.875 288.898C118.568 288.508 118.336 288.06 118.18 287.555C118.029 287.044 117.953 286.505 117.953 285.938V285.609C117.953 285.042 118.029 284.505 118.18 284C118.336 283.49 118.568 283.039 118.875 282.648C119.188 282.258 119.578 281.951 120.047 281.727C120.521 281.503 121.076 281.391 121.711 281.391C122.372 281.391 122.951 281.526 123.445 281.797C123.94 282.062 124.328 282.427 124.609 282.891C124.896 283.349 125.052 283.87 125.078 284.453H123.703C123.677 284.104 123.578 283.789 123.406 283.508C123.24 283.227 123.01 283.003 122.719 282.836C122.432 282.664 122.096 282.578 121.711 282.578C121.268 282.578 120.896 282.667 120.594 282.844C120.297 283.016 120.06 283.25 119.883 283.547C119.711 283.839 119.586 284.164 119.508 284.523C119.435 284.878 119.398 285.24 119.398 285.609V285.938C119.398 286.307 119.435 286.672 119.508 287.031C119.581 287.391 119.703 287.716 119.875 288.008C120.052 288.299 120.289 288.534 120.586 288.711C120.888 288.883 121.263 288.969 121.711 288.969ZM130.211 290.156C129.622 290.156 129.089 290.057 128.609 289.859C128.135 289.656 127.727 289.372 127.383 289.008C127.044 288.643 126.784 288.211 126.602 287.711C126.419 287.211 126.328 286.664 126.328 286.07V285.742C126.328 285.055 126.43 284.443 126.633 283.906C126.836 283.365 127.112 282.906 127.461 282.531C127.81 282.156 128.206 281.872 128.648 281.68C129.091 281.487 129.549 281.391 130.023 281.391C130.628 281.391 131.148 281.495 131.586 281.703C132.029 281.911 132.391 282.203 132.672 282.578C132.953 282.948 133.161 283.385 133.297 283.891C133.432 284.391 133.5 284.938 133.5 285.531V286.18H127.188V285H132.055V284.891C132.034 284.516 131.956 284.151 131.82 283.797C131.69 283.443 131.482 283.151 131.195 282.922C130.909 282.693 130.518 282.578 130.023 282.578C129.695 282.578 129.393 282.648 129.117 282.789C128.841 282.924 128.604 283.128 128.406 283.398C128.208 283.669 128.055 284 127.945 284.391C127.836 284.781 127.781 285.232 127.781 285.742V286.07C127.781 286.471 127.836 286.849 127.945 287.203C128.06 287.552 128.224 287.859 128.438 288.125C128.656 288.391 128.919 288.599 129.227 288.75C129.539 288.901 129.893 288.977 130.289 288.977C130.799 288.977 131.232 288.872 131.586 288.664C131.94 288.456 132.25 288.177 132.516 287.828L133.391 288.523C133.208 288.799 132.977 289.062 132.695 289.312C132.414 289.562 132.068 289.766 131.656 289.922C131.25 290.078 130.768 290.156 130.211 290.156ZM135.211 289.234C135.211 288.99 135.286 288.784 135.438 288.617C135.594 288.445 135.818 288.359 136.109 288.359C136.401 288.359 136.622 288.445 136.773 288.617C136.93 288.784 137.008 288.99 137.008 289.234C137.008 289.474 136.93 289.677 136.773 289.844C136.622 290.01 136.401 290.094 136.109 290.094C135.818 290.094 135.594 290.01 135.438 289.844C135.286 289.677 135.211 289.474 135.211 289.234Z" fill="#2A394E"/>
<path d="M39.8262 185.396C40.4502 185.396 41.0062 185.292 41.4942 185.084C41.9902 184.876 42.4062 184.584 42.7422 184.208C43.0782 183.832 43.3342 183.376 43.5102 182.84C43.6942 182.304 43.7862 181.704 43.7862 181.04V170.648H47.0142V181.04C47.0142 182.072 46.8462 183.028 46.5102 183.908C46.1822 184.78 45.7062 185.536 45.0822 186.176C44.4662 186.808 43.7142 187.304 42.8262 187.664C41.9382 188.016 40.9382 188.192 39.8262 188.192C38.7062 188.192 37.7022 188.016 36.8142 187.664C35.9262 187.304 35.1702 186.808 34.5462 186.176C33.9302 185.536 33.4542 184.78 33.1182 183.908C32.7902 183.028 32.6262 182.072 32.6262 181.04V170.648H35.8542V181.028C35.8542 181.692 35.9422 182.292 36.1182 182.828C36.3022 183.364 36.5622 183.824 36.8982 184.208C37.2422 184.584 37.6582 184.876 38.1462 185.084C38.6422 185.292 39.2022 185.396 39.8262 185.396ZM57.183 178.088C57.103 178.216 57.019 178.308 56.931 178.364C56.843 178.412 56.731 178.436 56.595 178.436C56.451 178.436 56.295 178.396 56.127 178.316C55.967 178.236 55.779 178.148 55.563 178.052C55.347 177.948 55.099 177.856 54.819 177.776C54.547 177.696 54.223 177.656 53.847 177.656C53.263 177.656 52.803 177.78 52.467 178.028C52.139 178.276 51.975 178.6 51.975 179C51.975 179.264 52.059 179.488 52.227 179.672C52.403 179.848 52.631 180.004 52.911 180.14C53.199 180.276 53.523 180.4 53.883 180.512C54.243 180.616 54.607 180.732 54.975 180.86C55.351 180.988 55.719 181.136 56.079 181.304C56.439 181.464 56.759 181.672 57.039 181.928C57.327 182.176 57.555 182.476 57.723 182.828C57.899 183.18 57.987 183.604 57.987 184.1C57.987 184.692 57.879 185.24 57.663 185.744C57.455 186.24 57.143 186.672 56.727 187.04C56.311 187.4 55.795 187.684 55.179 187.892C54.571 188.092 53.867 188.192 53.067 188.192C52.643 188.192 52.227 188.152 51.819 188.072C51.419 188 51.031 187.896 50.655 187.76C50.287 187.624 49.943 187.464 49.623 187.28C49.311 187.096 49.035 186.896 48.795 186.68L49.479 185.552C49.567 185.416 49.671 185.312 49.791 185.24C49.911 185.168 50.063 185.132 50.247 185.132C50.431 185.132 50.603 185.184 50.763 185.288C50.931 185.392 51.123 185.504 51.339 185.624C51.555 185.744 51.807 185.856 52.095 185.96C52.391 186.064 52.763 186.116 53.211 186.116C53.563 186.116 53.863 186.076 54.111 185.996C54.367 185.908 54.575 185.796 54.735 185.66C54.903 185.524 55.023 185.368 55.095 185.192C55.175 185.008 55.215 184.82 55.215 184.628C55.215 184.34 55.127 184.104 54.951 183.92C54.783 183.736 54.555 183.576 54.267 183.44C53.987 183.304 53.663 183.184 53.295 183.08C52.935 182.968 52.563 182.848 52.179 182.72C51.803 182.592 51.431 182.444 51.063 182.276C50.703 182.1 50.379 181.88 50.091 181.616C49.811 181.352 49.583 181.028 49.407 180.644C49.239 180.26 49.155 179.796 49.155 179.252C49.155 178.748 49.255 178.268 49.455 177.812C49.655 177.356 49.947 176.96 50.331 176.624C50.723 176.28 51.207 176.008 51.783 175.808C52.367 175.6 53.039 175.496 53.799 175.496C54.647 175.496 55.419 175.636 56.115 175.916C56.811 176.196 57.391 176.564 57.855 177.02L57.183 178.088ZM68.1499 180.428C68.1499 180.044 68.0939 179.684 67.9819 179.348C67.8779 179.004 67.7179 178.704 67.5019 178.448C67.2859 178.192 67.0099 177.992 66.6739 177.848C66.3459 177.696 65.9619 177.62 65.5219 177.62C64.6659 177.62 63.9899 177.864 63.4939 178.352C63.0059 178.84 62.6939 179.532 62.5579 180.428H68.1499ZM62.4979 182.216C62.5459 182.848 62.6579 183.396 62.8339 183.86C63.0099 184.316 63.2419 184.696 63.5299 185C63.8179 185.296 64.1579 185.52 64.5499 185.672C64.9499 185.816 65.3899 185.888 65.8699 185.888C66.3499 185.888 66.7619 185.832 67.1059 185.72C67.4579 185.608 67.7619 185.484 68.0179 185.348C68.2819 185.212 68.5099 185.088 68.7019 184.976C68.9019 184.864 69.0939 184.808 69.2779 184.808C69.5259 184.808 69.7099 184.9 69.8299 185.084L70.6819 186.164C70.3539 186.548 69.9859 186.872 69.5779 187.136C69.1699 187.392 68.7419 187.6 68.2939 187.76C67.8539 187.912 67.4019 188.02 66.9379 188.084C66.4819 188.148 66.0379 188.18 65.6059 188.18C64.7499 188.18 63.9539 188.04 63.2179 187.76C62.4819 187.472 61.8419 187.052 61.2979 186.5C60.7539 185.94 60.3259 185.252 60.0139 184.436C59.7019 183.612 59.5459 182.66 59.5459 181.58C59.5459 180.74 59.6819 179.952 59.9539 179.216C60.2259 178.472 60.6139 177.828 61.1179 177.284C61.6299 176.732 62.2499 176.296 62.9779 175.976C63.7139 175.656 64.5419 175.496 65.4619 175.496C66.2379 175.496 66.9539 175.62 67.6099 175.868C68.2659 176.116 68.8299 176.48 69.3019 176.96C69.7739 177.432 70.1419 178.016 70.4059 178.712C70.6779 179.4 70.8139 180.188 70.8139 181.076C70.8139 181.524 70.7659 181.828 70.6699 181.988C70.5739 182.14 70.3899 182.216 70.1179 182.216H62.4979ZM75.8342 177.824C76.2182 177.088 76.6742 176.512 77.2022 176.096C77.7302 175.672 78.3542 175.46 79.0742 175.46C79.6422 175.46 80.0982 175.584 80.4422 175.832L80.2502 178.052C80.2102 178.196 80.1502 178.3 80.0702 178.364C79.9982 178.42 79.8982 178.448 79.7702 178.448C79.6502 178.448 79.4702 178.428 79.2302 178.388C78.9982 178.348 78.7702 178.328 78.5462 178.328C78.2182 178.328 77.9262 178.376 77.6702 178.472C77.4142 178.568 77.1822 178.708 76.9742 178.892C76.7742 179.068 76.5942 179.284 76.4342 179.54C76.2822 179.796 76.1382 180.088 76.0022 180.416V188H73.0382V175.688H74.7782C75.0822 175.688 75.2942 175.744 75.4142 175.856C75.5342 175.96 75.6142 176.152 75.6542 176.432L75.8342 177.824ZM88.1757 188V177.92L87.1077 177.752C86.8757 177.704 86.6877 177.624 86.5437 177.512C86.4077 177.392 86.3397 177.224 86.3397 177.008V175.796H88.1757V174.884C88.1757 174.18 88.2797 173.548 88.4877 172.988C88.7037 172.428 89.0077 171.952 89.3997 171.56C89.7997 171.168 90.2837 170.868 90.8517 170.66C91.4197 170.452 92.0597 170.348 92.7717 170.348C93.3397 170.348 93.8677 170.424 94.3557 170.576L94.2957 172.064C94.2877 172.176 94.2557 172.268 94.1997 172.34C94.1437 172.404 94.0677 172.456 93.9717 172.496C93.8837 172.528 93.7797 172.552 93.6597 172.568C93.5397 172.576 93.4117 172.58 93.2757 172.58C92.9237 172.58 92.6077 172.62 92.3277 172.7C92.0557 172.772 91.8237 172.904 91.6317 173.096C91.4397 173.28 91.2917 173.528 91.1877 173.84C91.0917 174.144 91.0437 174.524 91.0437 174.98V175.796H94.2477V177.908H91.1397V188H88.1757ZM98.7092 177.824C99.0932 177.088 99.5492 176.512 100.077 176.096C100.605 175.672 101.229 175.46 101.949 175.46C102.517 175.46 102.973 175.584 103.317 175.832L103.125 178.052C103.085 178.196 103.025 178.3 102.945 178.364C102.873 178.42 102.773 178.448 102.645 178.448C102.525 178.448 102.345 178.428 102.105 178.388C101.873 178.348 101.645 178.328 101.421 178.328C101.093 178.328 100.801 178.376 100.545 178.472C100.289 178.568 100.057 178.708 99.8492 178.892C99.6492 179.068 99.4692 179.284 99.3092 179.54C99.1572 179.796 99.0132 180.088 98.8772 180.416V188H95.9132V175.688H97.6532C97.9572 175.688 98.1692 175.744 98.2892 175.856C98.4092 175.96 98.4892 176.152 98.5292 176.432L98.7092 177.824ZM107.938 175.688V188H104.962V175.688H107.938ZM108.346 172.1C108.346 172.356 108.294 172.596 108.19 172.82C108.086 173.044 107.946 173.24 107.77 173.408C107.602 173.576 107.402 173.712 107.17 173.816C106.938 173.912 106.69 173.96 106.426 173.96C106.17 173.96 105.926 173.912 105.694 173.816C105.47 173.712 105.274 173.576 105.106 173.408C104.938 173.24 104.802 173.044 104.698 172.82C104.602 172.596 104.554 172.356 104.554 172.1C104.554 171.836 104.602 171.588 104.698 171.356C104.802 171.124 104.938 170.924 105.106 170.756C105.274 170.588 105.47 170.456 105.694 170.36C105.926 170.256 106.17 170.204 106.426 170.204C106.69 170.204 106.938 170.256 107.17 170.36C107.402 170.456 107.602 170.588 107.77 170.756C107.946 170.924 108.086 171.124 108.19 171.356C108.294 171.588 108.346 171.836 108.346 172.1ZM118.892 180.428C118.892 180.044 118.836 179.684 118.724 179.348C118.62 179.004 118.46 178.704 118.244 178.448C118.028 178.192 117.752 177.992 117.416 177.848C117.088 177.696 116.704 177.62 116.264 177.62C115.408 177.62 114.732 177.864 114.236 178.352C113.748 178.84 113.436 179.532 113.3 180.428H118.892ZM113.24 182.216C113.288 182.848 113.4 183.396 113.576 183.86C113.752 184.316 113.984 184.696 114.272 185C114.56 185.296 114.9 185.52 115.292 185.672C115.692 185.816 116.132 185.888 116.612 185.888C117.092 185.888 117.504 185.832 117.848 185.72C118.2 185.608 118.504 185.484 118.76 185.348C119.024 185.212 119.252 185.088 119.444 184.976C119.644 184.864 119.836 184.808 120.02 184.808C120.268 184.808 120.452 184.9 120.572 185.084L121.424 186.164C121.096 186.548 120.728 186.872 120.32 187.136C119.912 187.392 119.484 187.6 119.036 187.76C118.596 187.912 118.144 188.02 117.68 188.084C117.224 188.148 116.78 188.18 116.348 188.18C115.492 188.18 114.696 188.04 113.96 187.76C113.224 187.472 112.584 187.052 112.04 186.5C111.496 185.94 111.068 185.252 110.756 184.436C110.444 183.612 110.288 182.66 110.288 181.58C110.288 180.74 110.424 179.952 110.696 179.216C110.968 178.472 111.356 177.828 111.86 177.284C112.372 176.732 112.992 176.296 113.72 175.976C114.456 175.656 115.284 175.496 116.204 175.496C116.98 175.496 117.696 175.62 118.352 175.868C119.008 176.116 119.572 176.48 120.044 176.96C120.516 177.432 120.884 178.016 121.148 178.712C121.42 179.4 121.556 180.188 121.556 181.076C121.556 181.524 121.508 181.828 121.412 181.988C121.316 182.14 121.132 182.216 120.86 182.216H113.24ZM126.552 177.2C126.8 176.952 127.06 176.724 127.332 176.516C127.612 176.3 127.904 176.12 128.208 175.976C128.52 175.824 128.852 175.708 129.204 175.628C129.556 175.54 129.94 175.496 130.356 175.496C131.028 175.496 131.624 175.612 132.144 175.844C132.664 176.068 133.096 176.388 133.44 176.804C133.792 177.212 134.056 177.704 134.232 178.28C134.416 178.848 134.508 179.476 134.508 180.164V188H131.544V180.164C131.544 179.412 131.372 178.832 131.028 178.424C130.684 178.008 130.16 177.8 129.456 177.8C128.944 177.8 128.464 177.916 128.016 178.148C127.568 178.38 127.144 178.696 126.744 179.096V188H123.78V175.688H125.592C125.976 175.688 126.228 175.868 126.348 176.228L126.552 177.2ZM145.055 178.832C144.719 178.424 144.351 178.136 143.951 177.968C143.559 177.8 143.135 177.716 142.679 177.716C142.231 177.716 141.827 177.8 141.467 177.968C141.107 178.136 140.799 178.392 140.543 178.736C140.287 179.072 140.091 179.504 139.955 180.032C139.819 180.552 139.751 181.168 139.751 181.88C139.751 182.6 139.807 183.212 139.919 183.716C140.039 184.212 140.207 184.62 140.423 184.94C140.639 185.252 140.903 185.48 141.215 185.624C141.527 185.76 141.875 185.828 142.259 185.828C142.875 185.828 143.399 185.7 143.831 185.444C144.263 185.188 144.671 184.824 145.055 184.352V178.832ZM148.019 170.168V188H146.207C145.815 188 145.567 187.82 145.463 187.46L145.211 186.272C144.715 186.84 144.143 187.3 143.495 187.652C142.855 188.004 142.107 188.18 141.251 188.18C140.579 188.18 139.963 188.04 139.403 187.76C138.843 187.48 138.359 187.076 137.951 186.548C137.551 186.012 137.239 185.352 137.015 184.568C136.799 183.784 136.691 182.888 136.691 181.88C136.691 180.968 136.815 180.12 137.063 179.336C137.311 178.552 137.667 177.872 138.131 177.296C138.595 176.72 139.151 176.272 139.799 175.952C140.447 175.624 141.175 175.46 141.983 175.46C142.671 175.46 143.259 175.568 143.747 175.784C144.235 176 144.671 176.292 145.055 176.66V170.168H148.019ZM153.944 170.168V188H150.98V170.168H153.944ZM168.082 175.688L161.374 191.384C161.286 191.592 161.17 191.748 161.026 191.852C160.89 191.964 160.678 192.02 160.39 192.02H158.182L160.486 187.076L155.506 175.688H158.11C158.342 175.688 158.522 175.744 158.65 175.856C158.786 175.968 158.886 176.096 158.95 176.24L161.566 182.624C161.654 182.84 161.726 183.056 161.782 183.272C161.846 183.488 161.906 183.708 161.962 183.932C162.034 183.708 162.106 183.488 162.178 183.272C162.25 183.048 162.33 182.828 162.418 182.612L164.89 176.24C164.954 176.08 165.058 175.948 165.202 175.844C165.354 175.74 165.522 175.688 165.706 175.688H168.082Z" fill="#0B051D"/>
<g filter="url(#filter0_d_401_15667)">
<rect x="50.5" y="45" width="95" height="95" rx="18" fill="#F9F8F8" shape-rendering="crispEdges"/>
<path d="M111.846 93.8035L114 95.9727L103.954 106.111L98.6154 100.727L100.769 98.5573L103.954 101.757L111.846 93.8035ZM94.7692 100.727L99.3846 105.342H84V102.265C84 98.865 89.5077 96.1112 96.3077 96.1112L99.2154 96.2804L94.7692 100.727ZM96.3077 80.7266C97.9398 80.7266 99.505 81.3749 100.659 82.529C101.813 83.6831 102.462 85.2483 102.462 86.8804C102.462 88.5125 101.813 90.0778 100.659 91.2318C99.505 92.3859 97.9398 93.0343 96.3077 93.0343C94.6756 93.0343 93.1103 92.3859 91.9563 91.2318C90.8022 90.0778 90.1538 88.5125 90.1538 86.8804C90.1538 85.2483 90.8022 83.6831 91.9563 82.529C93.1103 81.3749 94.6756 80.7266 96.3077 80.7266Z" fill="#F85252"/>
</g>
<defs>
<filter id="filter0_d_401_15667" x="0.5" y="0" width="195" height="195" filterUnits="userSpaceOnUse" color-interpolation-filters="sRGB">
<feFlood flood-opacity="0" result="BackgroundImageFix"/>
<feColorMatrix in="SourceAlpha" type="matrix" values="0 0 0 0 0 0 0 0 0 0 0 0 0 0 0 0 0 0 127 0" result="hardAlpha"/>
<feOffset dy="5"/>
<feGaussianBlur stdDeviation="25"/>
<feComposite in2="hardAlpha" operator="out"/>
<feColorMatrix type="matrix" values="0 0 0 0 0 0 0 0 0 0 0 0 0 0 0 0 0 0 0.08 0"/>
<feBlend mode="normal" in2="BackgroundImageFix" result="effect1_dropShadow_401_15667"/>
<feBlend mode="normal" in="SourceGraphic" in2="effect1_dropShadow_401_15667" result="shape"/>
</filter>
</defs>
</svg>
