<svg width="46" height="46" viewBox="0 0 46 46" fill="none" xmlns="http://www.w3.org/2000/svg">
<path d="M9.63636 44H36.3636M14.8997 11.0815L18.9508 15.1326M18.9508 15.1326C20.0249 14.0586 21.481 13.4545 23 13.4545M18.9508 15.1326C17.8767 16.2067 17.2727 17.6629 17.2727 19.1818M17.2727 19.1818H11.5455M17.2727 19.1818C17.2727 20.7008 17.8767 22.1569 18.9508 23.231M18.9508 23.231L14.8997 27.2821M18.9508 23.231C20.0249 24.3051 21.481 24.9091 23 24.9091M23 24.9091V30.6364M23 24.9091C24.519 24.9091 25.9751 24.3051 27.0492 23.231M27.0492 23.231L31.1003 27.2821M27.0492 23.231C28.1233 22.1569 28.7273 20.7008 28.7273 19.1818M34.4545 19.1818H28.7273M28.7273 19.1818C28.7273 17.6629 28.1233 16.2067 27.0492 15.1326M31.1003 11.0815L27.0492 15.1326M27.0492 15.1326C25.9751 14.0586 24.519 13.4545 23 13.4545M23 13.4545V7.72727M2 36.3636H44V2H2V36.3636ZM15.3636 44H30.6364V36.3636H15.3636V44Z" stroke="#FF514A" stroke-width="3.81818"/>
</svg>
