<svg width="44" height="44" viewBox="0 0 44 44" fill="none" xmlns="http://www.w3.org/2000/svg">
<path d="M4 42V22C4 18.228 4 16.344 5.172 15.172C6.344 14 8.228 14 12 14C15.772 14 17.656 14 18.828 15.172C20 16.344 20 18.228 20 22" stroke="#FF514A" stroke-width="3"/>
<path d="M32 42V30C32 26.228 32 24.344 30.828 23.172C29.656 22 27.772 22 24 22H20C16.228 22 14.344 22 13.172 23.172C12 24.344 12 26.228 12 30V42" stroke="#FF514A" stroke-width="3"/>
<path d="M40 41.9984V13.5424C40 10.8624 40 9.52039 39.288 8.49239C38.576 7.46439 37.32 6.99239 34.808 6.05239C29.898 4.21039 27.444 3.29039 25.722 4.48239C24 5.67839 24 8.29839 24 13.5424V21.9984" stroke="#FF514A" stroke-width="3"/>
<path d="M6 14V11C6 9.114 6 8.172 6.586 7.586C7.172 7 8.114 7 10 7H14C15.886 7 16.828 7 17.414 7.586C18 8.172 18 9.114 18 11V14M12 6V2M42 42H2M18 28H26M18 34H26" stroke="#FF514A" stroke-width="3" stroke-linecap="round"/>
</svg>
