<svg width="40" height="42" viewBox="0 0 40 42" fill="none" xmlns="http://www.w3.org/2000/svg">
<path d="M28.9241 1.96875C28.9241 1.44661 29.1315 0.945846 29.5007 0.576633C29.87 0.207421 30.3707 0 30.8929 0H37.4554C37.9775 0 38.4783 0.207421 38.8475 0.576633C39.2167 0.945846 39.4241 1.44661 39.4241 1.96875V8.53125C39.4241 9.0534 39.2167 9.55415 38.8475 9.92337C38.4783 10.2926 37.9775 10.5 37.4554 10.5C36.9332 10.5 36.4324 10.2926 36.0632 9.92337C35.694 9.55415 35.4866 9.0534 35.4866 8.53125V6.72L23.7529 18.4537C23.3837 18.8224 22.8833 19.0295 22.3616 19.0295C21.8399 19.0295 21.3395 18.8224 20.9704 18.4537L14.4866 11.97L3.40911 23.0475C3.22887 23.2409 3.01152 23.3961 2.77002 23.5037C2.52852 23.6113 2.26783 23.6691 2.00348 23.6738C1.73914 23.6785 1.47656 23.6298 1.23142 23.5308C0.986272 23.4318 0.763583 23.2844 0.576634 23.0975C0.389684 22.9105 0.242305 22.6878 0.143287 22.4427C0.0442695 22.1975 -0.00435767 21.935 0.000306393 21.6706C0.00497045 21.4063 0.0628307 21.1456 0.170435 20.9041C0.278039 20.6626 0.433182 20.4452 0.626609 20.265L13.0954 7.79625C13.4645 7.42757 13.9649 7.22048 14.4866 7.22048C15.0083 7.22048 15.5087 7.42757 15.8779 7.79625L22.3616 14.28L32.7041 3.9375H30.8929C30.3707 3.9375 29.87 3.73008 29.5007 3.36087C29.1315 2.99165 28.9241 2.4909 28.9241 1.96875ZM2.01786 31.5C2.54 31.5 3.04076 31.7074 3.40998 32.0766C3.77919 32.4458 3.98661 32.9466 3.98661 33.4688V40.0312C3.98661 40.5534 3.77919 41.0542 3.40998 41.4234C3.04076 41.7926 2.54 42 2.01786 42C1.49571 42 0.994955 41.7926 0.625743 41.4234C0.25653 41.0542 0.0491094 40.5534 0.0491094 40.0312V33.4688C0.0491094 32.9466 0.25653 32.4458 0.625743 32.0766C0.994955 31.7074 1.49571 31.5 2.01786 31.5ZM14.4866 25.5938C14.4866 25.0716 14.2792 24.5708 13.91 24.2016C13.5408 23.8324 13.04 23.625 12.5179 23.625C11.9957 23.625 11.495 23.8324 11.1257 24.2016C10.7565 24.5708 10.5491 25.0716 10.5491 25.5938V40.0312C10.5491 40.5534 10.7565 41.0542 11.1257 41.4234C11.495 41.7926 11.9957 42 12.5179 42C13.04 42 13.5408 41.7926 13.91 41.4234C14.2792 41.0542 14.4866 40.5534 14.4866 40.0312V25.5938ZM23.0179 28.875C23.54 28.875 24.0408 29.0824 24.41 29.4516C24.7792 29.8208 24.9866 30.3216 24.9866 30.8438V40.0312C24.9866 40.5534 24.7792 41.0542 24.41 41.4234C24.0408 41.7926 23.54 42 23.0179 42C22.4957 42 21.995 41.7926 21.6257 41.4234C21.2565 41.0542 21.0491 40.5534 21.0491 40.0312V30.8438C21.0491 30.3216 21.2565 29.8208 21.6257 29.4516C21.995 29.0824 22.4957 28.875 23.0179 28.875ZM35.4866 20.3438C35.4866 19.8216 35.2792 19.3208 34.91 18.9516C34.5408 18.5824 34.04 18.375 33.5179 18.375C32.9957 18.375 32.495 18.5824 32.1257 18.9516C31.7565 19.3208 31.5491 19.8216 31.5491 20.3438V40.0312C31.5491 40.5534 31.7565 41.0542 32.1257 41.4234C32.495 41.7926 32.9957 42 33.5179 42C34.04 42 34.5408 41.7926 34.91 41.4234C35.2792 41.0542 35.4866 40.5534 35.4866 40.0312V20.3438Z" fill="#FF514A"/>
</svg>
